  0
SECTION
  2
HEADER
  9
$ACADVER
  1
AC1014
  9
$HANDSEED
  5
FFFF
  9
$MEASUREMENT
 70
     1
  0
ENDSEC
  0
SECTION
  2
TABLES
  0
TABLE
  2
VPORT
  5
8
330
0
100
AcDbSymbolTable
 70
     4
  0
VPORT
  5
2E
330
8
100
AcDbSymbolTableRecord
100
AcDbViewportTableRecord
  2
*ACTIVE
 70
     0
 10
0.0
 20
0.0
 11
1.0
 21
1.0
 12
210.0
 22
148.5
 13
0.0
 23
0.0
 14
10.0
 24
10.0
 15
10.0
 25
10.0
 16
0.0
 26
0.0
 36
1.0
 17
0.0
 27
0.0
 37
0.0
 40
341.0
 41
1.24
 42
50.0
 43
0.0
 44
0.0
 50
0.0
 51
0.0
 71
     0
 72
   100
 73
     1
 74
     3
 75
     0
 76
     0
 77
     0
 78
     0
  0
ENDTAB
  0
TABLE
  2
LTYPE
  5
5
330
0
100
AcDbSymbolTable
 70
     1
  0
LTYPE
  5
14
330
5
100
AcDbSymbolTableRecord
100
AcDbLinetypeTableRecord
  2
BYBLOCK
 70
     0
  3

 72
    65
 73
     0
 40
0.0
  0
LTYPE
  5
15
330
5
100
AcDbSymbolTableRecord
100
AcDbLinetypeTableRecord
  2
BYLAYER
 70
     0
  3

 72
    65
 73
     0
 40
0.0
  0
LTYPE
  5
16
330
5
100
AcDbSymbolTableRecord
100
AcDbLinetypeTableRecord
  2
CONTINUOUS
 70
     0
  3
Solid line
 72
    65
 73
     0
 40
0.0
  0
ENDTAB
  0
TABLE
  2
LAYER
  5
2
100
AcDbSymbolTable
 70
2
  0
LAYER
  5
50
100
AcDbSymbolTableRecord
100
AcDbLayerTableRecord
  2
0
 70
0
  6
CONTINUOUS
  0
LAYER
  5
51
100
AcDbSymbolTableRecord
100
AcDbLayerTableRecord
  2
Layer_1
 70
0
  6
CONTINUOUS
  0
ENDTAB
  0
TABLE
  2
STYLE
  5
3
330
0
100
AcDbSymbolTable
 70
     1
  0
STYLE
  5
11
330
3
100
AcDbSymbolTableRecord
100
AcDbTextStyleTableRecord
  2
STANDARD
 70
     0
 40
0.0
 41
1.0
 50
0.0
 71
     0
 42
2.5
  3
txt
  4

  0
ENDTAB
  0
TABLE
  2
VIEW
  5
6
330
0
100
AcDbSymbolTable
 70
     0
  0
ENDTAB
  0
TABLE
  2
UCS
  5
7
330
0
100
AcDbSymbolTable
 70
     0
  0
ENDTAB
  0
TABLE
  2
APPID
  5
9
330
0
100
AcDbSymbolTable
 70
     2
  0
APPID
  5
12
330
9
100
AcDbSymbolTableRecord
100
AcDbRegAppTableRecord
  2
ACAD
 70
     0
  0
ENDTAB
  0
TABLE
  2
DIMSTYLE
  5
A
330
0
100
AcDbSymbolTable
 70
     1
  0
DIMSTYLE
105
27
330
A
100
AcDbSymbolTableRecord
100
AcDbDimStyleTableRecord
  2
ISO-25
 70
     0
  3

  4

  5

  6

  7

 40
1.0
 41
2.5
 42
0.625
 43
3.75
 44
1.25
 45
0.0
 46
0.0
 47
0.0
 48
0.0
140
2.5
141
2.5
142
0.0
143
0.03937007874016
144
1.0
145
0.0
146
1.0
147
0.625
 71
     0
 72
     0
 73
     0
 74
     0
 75
     0
 76
     0
 77
     1
 78
     8
170
     0
171
     3
172
     1
173
     0
174
     0
175
     0
176
     0
177
     0
178
     0
270
     2
271
     2
272
     2
273
     2
274
     3
340
11
275
     0
280
     0
281
     0
282
     0
283
     0
284
     8
285
     0
286
     0
287
     3
288
     0
  0
ENDTAB
  0
TABLE
  2
BLOCK_RECORD
  5
1
330
0
100
AcDbSymbolTable
 70
     1
  0
BLOCK_RECORD
  5
1F
330
1
100
AcDbSymbolTableRecord
100
AcDbBlockTableRecord
  2
*MODEL_SPACE
  0
BLOCK_RECORD
  5
1B
330
1
100
AcDbSymbolTableRecord
100
AcDbBlockTableRecord
  2
*PAPER_SPACE
  0
ENDTAB
  0
ENDSEC
  0
SECTION
  2
BLOCKS
  0
BLOCK
  5
20
330
1F
100
AcDbEntity
  8
0
100
AcDbBlockBegin
  2
*MODEL_SPACE
 70
     0
 10
0.0
 20
0.0
 30
0.0
  3
*MODEL_SPACE
  1

  0
ENDBLK
  5
21
330
1F
100
AcDbEntity
  8
0
100
AcDbBlockEnd
  0
BLOCK
  5
1C
330
1B
100
AcDbEntity
 67
     1
  8
0
100
AcDbBlockBegin
  2
*PAPER_SPACE
  1

  0
ENDBLK
  5
1D
330
1B
100
AcDbEntity
 67
     1
  8
0
100
AcDbBlockEnd
  0
ENDSEC
  0
SECTION
  2
ENTITIES
  0
SPLINE
  5
100
100
AcDbEntity
  8
Layer_1
 62
7
100
AcDbSpline
 70
8
 71
3
 72
8
 73
4
 74
0
 40
0
 40
0
 40
0
 40
0
 40
1
 40
1
 40
1
 40
1
 10
24.075798
 20
157.807757
 30
0.0
 10
24.075798
 20
156.422828
 30
0.0
 10
25.190630
 20
155.307997
 30
0.0
 10
26.575559
 20
155.307997
 30
0.0
  0
LINE
  5
101
100
AcDbEntity
  8
Layer_1
 62
7
100
AcDbLine
 10
26.575559
 20
155.307997
 30
0.0
 11
71.575402
 21
155.307997
 31
0.0
  0
SPLINE
  5
102
100
AcDbEntity
  8
Layer_1
 62
7
100
AcDbSpline
 70
8
 71
3
 72
8
 73
4
 74
0
 40
0
 40
0
 40
0
 40
0
 40
1
 40
1
 40
1
 40
1
 10
71.575402
 20
155.307997
 30
0.0
 10
72.960329
 20
155.307997
 30
0.0
 10
74.075160
 20
156.422828
 30
0.0
 10
74.075160
 20
157.807757
 30
0.0
  0
LINE
  5
103
100
AcDbEntity
  8
Layer_1
 62
7
100
AcDbLine
 10
74.075160
 20
157.807757
 30
0.0
 11
74.075160
 21
212.806645
 31
0.0
  0
SPLINE
  5
104
100
AcDbEntity
  8
Layer_1
 62
7
100
AcDbSpline
 70
8
 71
3
 72
8
 73
4
 74
0
 40
0
 40
0
 40
0
 40
0
 40
1
 40
1
 40
1
 40
1
 10
74.075160
 20
212.806645
 30
0.0
 10
74.075160
 20
214.192952
 30
0.0
 10
72.960329
 20
215.307783
 30
0.0
 10
71.575402
 20
215.307783
 30
0.0
  0
LINE
  5
105
100
AcDbEntity
  8
Layer_1
 62
7
100
AcDbLine
 10
71.575402
 20
215.307783
 30
0.0
 11
26.575559
 21
215.307783
 31
0.0
  0
SPLINE
  5
106
100
AcDbEntity
  8
Layer_1
 62
7
100
AcDbSpline
 70
8
 71
3
 72
8
 73
4
 74
0
 40
0
 40
0
 40
0
 40
0
 40
1
 40
1
 40
1
 40
1
 10
26.575559
 20
215.307783
 30
0.0
 10
25.190630
 20
215.307783
 30
0.0
 10
24.075798
 20
214.192952
 30
0.0
 10
24.075798
 20
212.806645
 30
0.0
  0
LINE
  5
107
100
AcDbEntity
  8
Layer_1
 62
7
100
AcDbLine
 10
24.075798
 20
212.806645
 30
0.0
 11
24.075798
 21
157.807757
 31
0.0
  0
SPLINE
  5
108
100
AcDbEntity
  8
Layer_1
 62
7
100
AcDbSpline
 70
8
 71
3
 72
8
 73
4
 74
0
 40
0
 40
0
 40
0
 40
0
 40
1
 40
1
 40
1
 40
1
 10
68.462412
 20
211.307340
 30
0.0
 10
68.462412
 20
211.731774
 30
0.0
 10
68.630532
 20
212.138295
 30
0.0
 10
68.930943
 20
212.438709
 30
0.0
  0
SPLINE
  5
109
100
AcDbEntity
  8
Layer_1
 62
7
100
AcDbSpline
 70
8
 71
3
 72
8
 73
4
 74
0
 40
0
 40
0
 40
0
 40
0
 40
1
 40
1
 40
1
 40
1
 10
68.930943
 20
212.438709
 30
0.0
 10
69.231358
 20
212.739121
 30
0.0
 10
69.637879
 20
212.907244
 30
0.0
 10
70.062313
 20
212.907244
 30
0.0
  0
SPLINE
  5
10a
100
AcDbEntity
  8
Layer_1
 62
7
100
AcDbSpline
 70
8
 71
3
 72
8
 73
4
 74
0
 40
0
 40
0
 40
0
 40
0
 40
1
 40
1
 40
1
 40
1
 10
70.062313
 20
212.907244
 30
0.0
 10
70.486750
 20
212.907244
 30
0.0
 10
70.893271
 20
212.739121
 30
0.0
 10
71.193685
 20
212.438709
 30
0.0
  0
SPLINE
  5
10b
100
AcDbEntity
  8
Layer_1
 62
7
100
AcDbSpline
 70
8
 71
3
 72
8
 73
4
 74
0
 40
0
 40
0
 40
0
 40
0
 40
1
 40
1
 40
1
 40
1
 10
71.193685
 20
212.438709
 30
0.0
 10
71.494097
 20
212.138295
 30
0.0
 10
71.662217
 20
211.731774
 30
0.0
 10
71.662217
 20
211.307340
 30
0.0
  0
SPLINE
  5
10c
100
AcDbEntity
  8
Layer_1
 62
7
100
AcDbSpline
 70
8
 71
3
 72
8
 73
4
 74
0
 40
0
 40
0
 40
0
 40
0
 40
1
 40
1
 40
1
 40
1
 10
71.662217
 20
211.307340
 30
0.0
 10
71.662217
 20
210.882900
 30
0.0
 10
71.494097
 20
210.476382
 30
0.0
 10
71.193685
 20
210.175970
 30
0.0
  0
SPLINE
  5
10d
100
AcDbEntity
  8
Layer_1
 62
7
100
AcDbSpline
 70
8
 71
3
 72
8
 73
4
 74
0
 40
0
 40
0
 40
0
 40
0
 40
1
 40
1
 40
1
 40
1
 10
71.193685
 20
210.175970
 30
0.0
 10
70.893271
 20
209.875559
 30
0.0
 10
70.486750
 20
209.707436
 30
0.0
 10
70.062313
 20
209.707436
 30
0.0
  0
SPLINE
  5
10e
100
AcDbEntity
  8
Layer_1
 62
7
100
AcDbSpline
 70
8
 71
3
 72
8
 73
4
 74
0
 40
0
 40
0
 40
0
 40
0
 40
1
 40
1
 40
1
 40
1
 10
70.062313
 20
209.707436
 30
0.0
 10
69.637879
 20
209.707436
 30
0.0
 10
69.231358
 20
209.875559
 30
0.0
 10
68.930943
 20
210.175970
 30
0.0
  0
SPLINE
  5
10f
100
AcDbEntity
  8
Layer_1
 62
7
100
AcDbSpline
 70
8
 71
3
 72
8
 73
4
 74
0
 40
0
 40
0
 40
0
 40
0
 40
1
 40
1
 40
1
 40
1
 10
68.930943
 20
210.175970
 30
0.0
 10
68.630532
 20
210.476382
 30
0.0
 10
68.462412
 20
210.882900
 30
0.0
 10
68.462412
 20
211.307340
 30
0.0
  0
SPLINE
  5
110
100
AcDbEntity
  8
Layer_1
 62
7
100
AcDbSpline
 70
8
 71
3
 72
8
 73
4
 74
0
 40
0
 40
0
 40
0
 40
0
 40
1
 40
1
 40
1
 40
1
 10
68.462412
 20
159.307063
 30
0.0
 10
68.462412
 20
159.731500
 30
0.0
 10
68.630532
 20
160.138018
 30
0.0
 10
68.930943
 20
160.438432
 30
0.0
  0
SPLINE
  5
111
100
AcDbEntity
  8
Layer_1
 62
7
100
AcDbSpline
 70
8
 71
3
 72
8
 73
4
 74
0
 40
0
 40
0
 40
0
 40
0
 40
1
 40
1
 40
1
 40
1
 10
68.930943
 20
160.438432
 30
0.0
 10
69.231358
 20
160.738844
 30
0.0
 10
69.637879
 20
160.906964
 30
0.0
 10
70.062313
 20
160.906964
 30
0.0
  0
SPLINE
  5
112
100
AcDbEntity
  8
Layer_1
 62
7
100
AcDbSpline
 70
8
 71
3
 72
8
 73
4
 74
0
 40
0
 40
0
 40
0
 40
0
 40
1
 40
1
 40
1
 40
1
 10
70.062313
 20
160.906964
 30
0.0
 10
70.486750
 20
160.906964
 30
0.0
 10
70.893271
 20
160.738844
 30
0.0
 10
71.193685
 20
160.438432
 30
0.0
  0
SPLINE
  5
113
100
AcDbEntity
  8
Layer_1
 62
7
100
AcDbSpline
 70
8
 71
3
 72
8
 73
4
 74
0
 40
0
 40
0
 40
0
 40
0
 40
1
 40
1
 40
1
 40
1
 10
71.193685
 20
160.438432
 30
0.0
 10
71.494097
 20
160.138018
 30
0.0
 10
71.662217
 20
159.731500
 30
0.0
 10
71.662217
 20
159.307063
 30
0.0
  0
SPLINE
  5
114
100
AcDbEntity
  8
Layer_1
 62
7
100
AcDbSpline
 70
8
 71
3
 72
8
 73
4
 74
0
 40
0
 40
0
 40
0
 40
0
 40
1
 40
1
 40
1
 40
1
 10
71.662217
 20
159.307063
 30
0.0
 10
71.662217
 20
158.882626
 30
0.0
 10
71.494097
 20
158.476107
 30
0.0
 10
71.193685
 20
158.175690
 30
0.0
  0
SPLINE
  5
115
100
AcDbEntity
  8
Layer_1
 62
7
100
AcDbSpline
 70
8
 71
3
 72
8
 73
4
 74
0
 40
0
 40
0
 40
0
 40
0
 40
1
 40
1
 40
1
 40
1
 10
71.193685
 20
158.175690
 30
0.0
 10
70.893271
 20
157.875279
 30
0.0
 10
70.486750
 20
157.707159
 30
0.0
 10
70.062313
 20
157.707159
 30
0.0
  0
SPLINE
  5
116
100
AcDbEntity
  8
Layer_1
 62
7
100
AcDbSpline
 70
8
 71
3
 72
8
 73
4
 74
0
 40
0
 40
0
 40
0
 40
0
 40
1
 40
1
 40
1
 40
1
 10
70.062313
 20
157.707159
 30
0.0
 10
69.637879
 20
157.707159
 30
0.0
 10
69.231358
 20
157.876659
 30
0.0
 10
68.930943
 20
158.175690
 30
0.0
  0
SPLINE
  5
117
100
AcDbEntity
  8
Layer_1
 62
7
100
AcDbSpline
 70
8
 71
3
 72
8
 73
4
 74
0
 40
0
 40
0
 40
0
 40
0
 40
1
 40
1
 40
1
 40
1
 10
68.930943
 20
158.175690
 30
0.0
 10
68.630532
 20
158.476107
 30
0.0
 10
68.462412
 20
158.882626
 30
0.0
 10
68.462412
 20
159.307063
 30
0.0
  0
SPLINE
  5
118
100
AcDbEntity
  8
Layer_1
 62
7
100
AcDbSpline
 70
8
 71
3
 72
8
 73
4
 74
0
 40
0
 40
0
 40
0
 40
0
 40
1
 40
1
 40
1
 40
1
 10
78.475239
 20
159.307063
 30
0.0
 10
78.475239
 20
160.191765
 30
0.0
 10
79.191818
 20
160.906964
 30
0.0
 10
80.075143
 20
160.906964
 30
0.0
  0
SPLINE
  5
119
100
AcDbEntity
  8
Layer_1
 62
7
100
AcDbSpline
 70
8
 71
3
 72
8
 73
4
 74
0
 40
0
 40
0
 40
0
 40
0
 40
1
 40
1
 40
1
 40
1
 10
80.075143
 20
160.908344
 30
0.0
 10
80.958461
 20
160.908344
 30
0.0
 10
81.675043
 20
160.191765
 30
0.0
 10
81.675043
 20
159.308440
 30
0.0
  0
SPLINE
  5
11a
100
AcDbEntity
  8
Layer_1
 62
7
100
AcDbSpline
 70
8
 71
3
 72
8
 73
4
 74
0
 40
0
 40
0
 40
0
 40
0
 40
1
 40
1
 40
1
 40
1
 10
81.675043
 20
159.307063
 30
0.0
 10
81.675043
 20
158.423741
 30
0.0
 10
80.958461
 20
157.708539
 30
0.0
 10
80.075143
 20
157.708539
 30
0.0
  0
SPLINE
  5
11b
100
AcDbEntity
  8
Layer_1
 62
7
100
AcDbSpline
 70
8
 71
3
 72
8
 73
4
 74
0
 40
0
 40
0
 40
0
 40
0
 40
1
 40
1
 40
1
 40
1
 10
80.075143
 20
157.707159
 30
0.0
 10
79.191818
 20
157.707159
 30
0.0
 10
78.475239
 20
158.423741
 30
0.0
 10
78.475239
 20
159.307063
 30
0.0
  0
SPLINE
  5
11c
100
AcDbEntity
  8
Layer_1
 62
7
100
AcDbSpline
 70
8
 71
3
 72
8
 73
4
 74
0
 40
0
 40
0
 40
0
 40
0
 40
1
 40
1
 40
1
 40
1
 10
78.475239
 20
211.307340
 30
0.0
 10
78.475239
 20
212.190662
 30
0.0
 10
79.191818
 20
212.907244
 30
0.0
 10
80.075143
 20
212.907244
 30
0.0
  0
SPLINE
  5
11d
100
AcDbEntity
  8
Layer_1
 62
7
100
AcDbSpline
 70
8
 71
3
 72
8
 73
4
 74
0
 40
0
 40
0
 40
0
 40
0
 40
1
 40
1
 40
1
 40
1
 10
80.075143
 20
212.907244
 30
0.0
 10
80.958461
 20
212.907244
 30
0.0
 10
81.675043
 20
212.190662
 30
0.0
 10
81.675043
 20
211.307340
 30
0.0
  0
SPLINE
  5
11e
100
AcDbEntity
  8
Layer_1
 62
7
100
AcDbSpline
 70
8
 71
3
 72
8
 73
4
 74
0
 40
0
 40
0
 40
0
 40
0
 40
1
 40
1
 40
1
 40
1
 10
81.675043
 20
211.307340
 30
0.0
 10
81.675043
 20
210.424015
 30
0.0
 10
80.958461
 20
209.707436
 30
0.0
 10
80.075143
 20
209.707436
 30
0.0
  0
SPLINE
  5
11f
100
AcDbEntity
  8
Layer_1
 62
7
100
AcDbSpline
 70
8
 71
3
 72
8
 73
4
 74
0
 40
0
 40
0
 40
0
 40
0
 40
1
 40
1
 40
1
 40
1
 10
80.075143
 20
209.707436
 30
0.0
 10
79.191818
 20
209.707436
 30
0.0
 10
78.475239
 20
210.424015
 30
0.0
 10
78.475239
 20
211.307340
 30
0.0
  0
SPLINE
  5
120
100
AcDbEntity
  8
Layer_1
 62
7
100
AcDbSpline
 70
8
 71
3
 72
8
 73
4
 74
0
 40
0
 40
0
 40
0
 40
0
 40
1
 40
1
 40
1
 40
1
 10
129.225630
 20
159.307063
 30
0.0
 10
129.225630
 20
160.191765
 30
0.0
 10
129.942212
 20
160.906964
 30
0.0
 10
130.825534
 20
160.906964
 30
0.0
  0
SPLINE
  5
121
100
AcDbEntity
  8
Layer_1
 62
7
100
AcDbSpline
 70
8
 71
3
 72
8
 73
4
 74
0
 40
0
 40
0
 40
0
 40
0
 40
1
 40
1
 40
1
 40
1
 10
130.825534
 20
160.908344
 30
0.0
 10
131.708858
 20
160.908344
 30
0.0
 10
132.425437
 20
160.191765
 30
0.0
 10
132.425437
 20
159.308440
 30
0.0
  0
SPLINE
  5
122
100
AcDbEntity
  8
Layer_1
 62
7
100
AcDbSpline
 70
8
 71
3
 72
8
 73
4
 74
0
 40
0
 40
0
 40
0
 40
0
 40
1
 40
1
 40
1
 40
1
 10
132.425437
 20
159.307063
 30
0.0
 10
132.425437
 20
158.423741
 30
0.0
 10
131.708858
 20
157.708539
 30
0.0
 10
130.825534
 20
157.708539
 30
0.0
  0
SPLINE
  5
123
100
AcDbEntity
  8
Layer_1
 62
7
100
AcDbSpline
 70
8
 71
3
 72
8
 73
4
 74
0
 40
0
 40
0
 40
0
 40
0
 40
1
 40
1
 40
1
 40
1
 10
130.825534
 20
157.707159
 30
0.0
 10
129.940835
 20
157.707159
 30
0.0
 10
129.225630
 20
158.423741
 30
0.0
 10
129.225630
 20
159.307063
 30
0.0
  0
SPLINE
  5
124
100
AcDbEntity
  8
Layer_1
 62
7
100
AcDbSpline
 70
8
 71
3
 72
8
 73
4
 74
0
 40
0
 40
0
 40
0
 40
0
 40
1
 40
1
 40
1
 40
1
 10
179.974649
 20
159.307063
 30
0.0
 10
179.974649
 20
160.191765
 30
0.0
 10
180.691228
 20
160.906964
 30
0.0
 10
181.574553
 20
160.906964
 30
0.0
  0
SPLINE
  5
125
100
AcDbEntity
  8
Layer_1
 62
7
100
AcDbSpline
 70
8
 71
3
 72
8
 73
4
 74
0
 40
0
 40
0
 40
0
 40
0
 40
1
 40
1
 40
1
 40
1
 10
181.574553
 20
160.908344
 30
0.0
 10
182.459252
 20
160.908344
 30
0.0
 10
183.174457
 20
160.191765
 30
0.0
 10
183.174457
 20
159.308440
 30
0.0
  0
SPLINE
  5
126
100
AcDbEntity
  8
Layer_1
 62
7
100
AcDbSpline
 70
8
 71
3
 72
8
 73
4
 74
0
 40
0
 40
0
 40
0
 40
0
 40
1
 40
1
 40
1
 40
1
 10
183.174457
 20
159.307063
 30
0.0
 10
183.174457
 20
158.423741
 30
0.0
 10
182.457875
 20
157.708539
 30
0.0
 10
181.574553
 20
157.708539
 30
0.0
  0
SPLINE
  5
127
100
AcDbEntity
  8
Layer_1
 62
7
100
AcDbSpline
 70
8
 71
3
 72
8
 73
4
 74
0
 40
0
 40
0
 40
0
 40
0
 40
1
 40
1
 40
1
 40
1
 10
181.574553
 20
157.707159
 30
0.0
 10
180.691228
 20
157.707159
 30
0.0
 10
179.974649
 20
158.423741
 30
0.0
 10
179.974649
 20
159.307063
 30
0.0
  0
SPLINE
  5
128
100
AcDbEntity
  8
Layer_1
 62
7
100
AcDbSpline
 70
8
 71
3
 72
8
 73
4
 74
0
 40
0
 40
0
 40
0
 40
0
 40
1
 40
1
 40
1
 40
1
 10
179.974649
 20
211.307340
 30
0.0
 10
179.974649
 20
212.190662
 30
0.0
 10
180.691228
 20
212.907244
 30
0.0
 10
181.574553
 20
212.907244
 30
0.0
  0
SPLINE
  5
129
100
AcDbEntity
  8
Layer_1
 62
7
100
AcDbSpline
 70
8
 71
3
 72
8
 73
4
 74
0
 40
0
 40
0
 40
0
 40
0
 40
1
 40
1
 40
1
 40
1
 10
181.574553
 20
212.907244
 30
0.0
 10
182.459252
 20
212.907244
 30
0.0
 10
183.174457
 20
212.190662
 30
0.0
 10
183.174457
 20
211.307340
 30
0.0
  0
SPLINE
  5
12a
100
AcDbEntity
  8
Layer_1
 62
7
100
AcDbSpline
 70
8
 71
3
 72
8
 73
4
 74
0
 40
0
 40
0
 40
0
 40
0
 40
1
 40
1
 40
1
 40
1
 10
183.174457
 20
211.307340
 30
0.0
 10
183.174457
 20
210.424015
 30
0.0
 10
182.457875
 20
209.707436
 30
0.0
 10
181.574553
 20
209.707436
 30
0.0
  0
SPLINE
  5
12b
100
AcDbEntity
  8
Layer_1
 62
7
100
AcDbSpline
 70
8
 71
3
 72
8
 73
4
 74
0
 40
0
 40
0
 40
0
 40
0
 40
1
 40
1
 40
1
 40
1
 10
181.574553
 20
209.707436
 30
0.0
 10
180.691228
 20
209.707436
 30
0.0
 10
179.974649
 20
210.424015
 30
0.0
 10
179.974649
 20
211.307340
 30
0.0
  0
SPLINE
  5
12c
100
AcDbEntity
  8
Layer_1
 62
7
100
AcDbSpline
 70
8
 71
3
 72
8
 73
4
 74
0
 40
0
 40
0
 40
0
 40
0
 40
1
 40
1
 40
1
 40
1
 10
129.225630
 20
211.307340
 30
0.0
 10
129.225630
 20
212.190662
 30
0.0
 10
129.942212
 20
212.907244
 30
0.0
 10
130.825534
 20
212.907244
 30
0.0
  0
SPLINE
  5
12d
100
AcDbEntity
  8
Layer_1
 62
7
100
AcDbSpline
 70
8
 71
3
 72
8
 73
4
 74
0
 40
0
 40
0
 40
0
 40
0
 40
1
 40
1
 40
1
 40
1
 10
130.825534
 20
212.907244
 30
0.0
 10
131.708858
 20
212.907244
 30
0.0
 10
132.425437
 20
212.190662
 30
0.0
 10
132.425437
 20
211.307340
 30
0.0
  0
SPLINE
  5
12e
100
AcDbEntity
  8
Layer_1
 62
7
100
AcDbSpline
 70
8
 71
3
 72
8
 73
4
 74
0
 40
0
 40
0
 40
0
 40
0
 40
1
 40
1
 40
1
 40
1
 10
132.425437
 20
211.307340
 30
0.0
 10
132.425437
 20
210.424015
 30
0.0
 10
131.708858
 20
209.707436
 30
0.0
 10
130.825534
 20
209.707436
 30
0.0
  0
SPLINE
  5
12f
100
AcDbEntity
  8
Layer_1
 62
7
100
AcDbSpline
 70
8
 71
3
 72
8
 73
4
 74
0
 40
0
 40
0
 40
0
 40
0
 40
1
 40
1
 40
1
 40
1
 10
130.825534
 20
209.707436
 30
0.0
 10
129.940835
 20
209.707436
 30
0.0
 10
129.225630
 20
210.424015
 30
0.0
 10
129.225630
 20
211.307340
 30
0.0
  0
SPLINE
  5
130
100
AcDbEntity
  8
Layer_1
 62
7
100
AcDbSpline
 70
8
 71
3
 72
8
 73
4
 74
0
 40
0
 40
0
 40
0
 40
0
 40
1
 40
1
 40
1
 40
1
 10
134.624786
 20
205.807591
 30
0.0
 10
135.288999
 20
205.807591
 30
0.0
 10
135.825061
 20
205.272909
 30
0.0
 10
135.825061
 20
204.607317
 30
0.0
  0
LINE
  5
131
100
AcDbEntity
  8
Layer_1
 62
7
100
AcDbLine
 10
135.825061
 20
204.607317
 30
0.0
 11
135.825061
 21
204.007868
 31
0.0
  0
SPLINE
  5
132
100
AcDbEntity
  8
Layer_1
 62
7
100
AcDbSpline
 70
8
 71
3
 72
8
 73
4
 74
0
 40
0
 40
0
 40
0
 40
0
 40
1
 40
1
 40
1
 40
1
 10
135.825061
 20
204.007868
 30
0.0
 10
135.825061
 20
203.342275
 30
0.0
 10
135.288999
 20
202.807600
 30
0.0
 10
134.624786
 20
202.807600
 30
0.0
  0
LINE
  5
133
100
AcDbEntity
  8
Layer_1
 62
7
100
AcDbLine
 10
134.624786
 20
202.807600
 30
0.0
 11
127.024903
 21
202.807600
 31
0.0
  0
SPLINE
  5
134
100
AcDbEntity
  8
Layer_1
 62
7
100
AcDbSpline
 70
8
 71
3
 72
8
 73
4
 74
0
 40
0
 40
0
 40
0
 40
0
 40
1
 40
1
 40
1
 40
1
 10
127.024903
 20
202.807600
 30
0.0
 10
126.360690
 20
202.807600
 30
0.0
 10
125.824635
 20
203.342275
 30
0.0
 10
125.824635
 20
204.007868
 30
0.0
  0
LINE
  5
135
100
AcDbEntity
  8
Layer_1
 62
7
100
AcDbLine
 10
125.824635
 20
204.007868
 30
0.0
 11
125.824635
 21
204.607317
 31
0.0
  0
SPLINE
  5
136
100
AcDbEntity
  8
Layer_1
 62
7
100
AcDbSpline
 70
8
 71
3
 72
8
 73
4
 74
0
 40
0
 40
0
 40
0
 40
0
 40
1
 40
1
 40
1
 40
1
 10
125.824635
 20
204.607317
 30
0.0
 10
125.824635
 20
205.272909
 30
0.0
 10
126.360690
 20
205.807591
 30
0.0
 10
127.024903
 20
205.807591
 30
0.0
  0
LINE
  5
137
100
AcDbEntity
  8
Layer_1
 62
7
100
AcDbLine
 10
127.024903
 20
205.807591
 30
0.0
 11
134.624786
 21
205.807591
 31
0.0
  0
SPLINE
  5
138
100
AcDbEntity
  8
Layer_1
 62
7
100
AcDbSpline
 70
8
 71
3
 72
8
 73
4
 74
0
 40
0
 40
0
 40
0
 40
0
 40
1
 40
1
 40
1
 40
1
 10
134.624786
 20
167.808180
 30
0.0
 10
135.288999
 20
167.808180
 30
0.0
 10
135.825061
 20
167.272125
 30
0.0
 10
135.825061
 20
166.607909
 30
0.0
  0
LINE
  5
139
100
AcDbEntity
  8
Layer_1
 62
7
100
AcDbLine
 10
135.825061
 20
166.607909
 30
0.0
 11
135.825061
 21
166.008463
 31
0.0
  0
SPLINE
  5
13a
100
AcDbEntity
  8
Layer_1
 62
7
100
AcDbSpline
 70
8
 71
3
 72
8
 73
4
 74
0
 40
0
 40
0
 40
0
 40
0
 40
1
 40
1
 40
1
 40
1
 10
135.825061
 20
166.008463
 30
0.0
 10
135.825061
 20
165.342870
 30
0.0
 10
135.288999
 20
164.808192
 30
0.0
 10
134.624786
 20
164.808192
 30
0.0
  0
LINE
  5
13b
100
AcDbEntity
  8
Layer_1
 62
7
100
AcDbLine
 10
134.624786
 20
164.808192
 30
0.0
 11
127.024903
 21
164.808192
 31
0.0
  0
SPLINE
  5
13c
100
AcDbEntity
  8
Layer_1
 62
7
100
AcDbSpline
 70
8
 71
3
 72
8
 73
4
 74
0
 40
0
 40
0
 40
0
 40
0
 40
1
 40
1
 40
1
 40
1
 10
127.024903
 20
164.808192
 30
0.0
 10
126.360690
 20
164.808192
 30
0.0
 10
125.824635
 20
165.342870
 30
0.0
 10
125.824635
 20
166.008463
 30
0.0
  0
LINE
  5
13d
100
AcDbEntity
  8
Layer_1
 62
7
100
AcDbLine
 10
125.824635
 20
166.008463
 30
0.0
 11
125.824635
 21
166.607909
 31
0.0
  0
SPLINE
  5
13e
100
AcDbEntity
  8
Layer_1
 62
7
100
AcDbSpline
 70
8
 71
3
 72
8
 73
4
 74
0
 40
0
 40
0
 40
0
 40
0
 40
1
 40
1
 40
1
 40
1
 10
125.824635
 20
166.607909
 30
0.0
 10
125.824635
 20
167.272125
 30
0.0
 10
126.360690
 20
167.808180
 30
0.0
 10
127.024903
 20
167.808180
 30
0.0
  0
LINE
  5
13f
100
AcDbEntity
  8
Layer_1
 62
7
100
AcDbLine
 10
127.024903
 20
167.808180
 30
0.0
 11
134.624786
 21
167.808180
 31
0.0
  0
SPLINE
  5
140
100
AcDbEntity
  8
Layer_1
 62
7
100
AcDbSpline
 70
8
 71
3
 72
8
 73
4
 74
0
 40
0
 40
0
 40
0
 40
0
 40
1
 40
1
 40
1
 40
1
 10
179.610845
 20
204.308285
 30
0.0
 10
179.610845
 20
203.936212
 30
0.0
 10
179.758298
 20
203.580680
 30
0.0
 10
180.020124
 20
203.317471
 30
0.0
  0
SPLINE
  5
141
100
AcDbEntity
  8
Layer_1
 62
7
100
AcDbSpline
 70
8
 71
3
 72
8
 73
4
 74
0
 40
0
 40
0
 40
0
 40
0
 40
1
 40
1
 40
1
 40
1
 10
180.020124
 20
203.317471
 30
0.0
 10
180.283330
 20
203.055645
 30
0.0
 10
180.638865
 20
202.908198
 30
0.0
 10
181.010933
 20
202.908198
 30
0.0
  0
SPLINE
  5
142
100
AcDbEntity
  8
Layer_1
 62
7
100
AcDbSpline
 70
8
 71
3
 72
8
 73
4
 74
0
 40
0
 40
0
 40
0
 40
0
 40
1
 40
1
 40
1
 40
1
 10
181.010933
 20
202.908198
 30
0.0
 10
181.381626
 20
202.908198
 30
0.0
 10
181.738538
 20
203.055645
 30
0.0
 10
182.000364
 20
203.317471
 30
0.0
  0
SPLINE
  5
143
100
AcDbEntity
  8
Layer_1
 62
7
100
AcDbSpline
 70
8
 71
3
 72
8
 73
4
 74
0
 40
0
 40
0
 40
0
 40
0
 40
1
 40
1
 40
1
 40
1
 10
182.000364
 20
203.317471
 30
0.0
 10
182.262193
 20
203.580680
 30
0.0
 10
182.409643
 20
203.936212
 30
0.0
 10
182.409643
 20
204.306905
 30
0.0
  0
SPLINE
  5
144
100
AcDbEntity
  8
Layer_1
 62
7
100
AcDbSpline
 70
8
 71
3
 72
8
 73
4
 74
0
 40
0
 40
0
 40
0
 40
0
 40
1
 40
1
 40
1
 40
1
 10
182.411020
 20
204.308285
 30
0.0
 10
182.411020
 20
204.678976
 30
0.0
 10
182.263570
 20
205.034508
 30
0.0
 10
182.000364
 20
205.297714
 30
0.0
  0
SPLINE
  5
145
100
AcDbEntity
  8
Layer_1
 62
7
100
AcDbSpline
 70
8
 71
3
 72
8
 73
4
 74
0
 40
0
 40
0
 40
0
 40
0
 40
1
 40
1
 40
1
 40
1
 10
182.000364
 20
205.297714
 30
0.0
 10
181.738538
 20
205.559540
 30
0.0
 10
181.381626
 20
205.706993
 30
0.0
 10
181.010933
 20
205.706993
 30
0.0
  0
SPLINE
  5
146
100
AcDbEntity
  8
Layer_1
 62
7
100
AcDbSpline
 70
8
 71
3
 72
8
 73
4
 74
0
 40
0
 40
0
 40
0
 40
0
 40
1
 40
1
 40
1
 40
1
 10
181.010933
 20
205.706993
 30
0.0
 10
180.638865
 20
205.706993
 30
0.0
 10
180.283330
 20
205.559540
 30
0.0
 10
180.020124
 20
205.297714
 30
0.0
  0
SPLINE
  5
147
100
AcDbEntity
  8
Layer_1
 62
7
100
AcDbSpline
 70
8
 71
3
 72
8
 73
4
 74
0
 40
0
 40
0
 40
0
 40
0
 40
1
 40
1
 40
1
 40
1
 10
180.020124
 20
205.297714
 30
0.0
 10
179.758298
 20
205.034508
 30
0.0
 10
179.610845
 20
204.678976
 30
0.0
 10
179.610845
 20
204.308285
 30
0.0
  0
SPLINE
  5
148
100
AcDbEntity
  8
Layer_1
 62
7
100
AcDbSpline
 70
8
 71
3
 72
8
 73
4
 74
0
 40
0
 40
0
 40
0
 40
0
 40
1
 40
1
 40
1
 40
1
 10
179.610845
 20
181.307445
 30
0.0
 10
179.610845
 20
180.936755
 30
0.0
 10
179.758298
 20
180.579842
 30
0.0
 10
180.020124
 20
180.318013
 30
0.0
  0
SPLINE
  5
149
100
AcDbEntity
  8
Layer_1
 62
7
100
AcDbSpline
 70
8
 71
3
 72
8
 73
4
 74
0
 40
0
 40
0
 40
0
 40
0
 40
1
 40
1
 40
1
 40
1
 10
180.020124
 20
180.318013
 30
0.0
 10
180.283330
 20
180.054810
 30
0.0
 10
180.638865
 20
179.907357
 30
0.0
 10
181.010933
 20
179.907357
 30
0.0
  0
SPLINE
  5
14a
100
AcDbEntity
  8
Layer_1
 62
7
100
AcDbSpline
 70
8
 71
3
 72
8
 73
4
 74
0
 40
0
 40
0
 40
0
 40
0
 40
1
 40
1
 40
1
 40
1
 10
181.010933
 20
179.907357
 30
0.0
 10
181.381626
 20
179.907357
 30
0.0
 10
181.738538
 20
180.054810
 30
0.0
 10
182.000364
 20
180.318013
 30
0.0
  0
SPLINE
  5
14b
100
AcDbEntity
  8
Layer_1
 62
7
100
AcDbSpline
 70
8
 71
3
 72
8
 73
4
 74
0
 40
0
 40
0
 40
0
 40
0
 40
1
 40
1
 40
1
 40
1
 10
182.000364
 20
180.318013
 30
0.0
 10
182.262193
 20
180.579842
 30
0.0
 10
182.409643
 20
180.936755
 30
0.0
 10
182.409643
 20
181.307445
 30
0.0
  0
SPLINE
  5
14c
100
AcDbEntity
  8
Layer_1
 62
7
100
AcDbSpline
 70
8
 71
3
 72
8
 73
4
 74
0
 40
0
 40
0
 40
0
 40
0
 40
1
 40
1
 40
1
 40
1
 10
182.411020
 20
181.307445
 30
0.0
 10
182.411020
 20
181.679513
 30
0.0
 10
182.263570
 20
182.035051
 30
0.0
 10
182.000364
 20
182.296874
 30
0.0
  0
SPLINE
  5
14d
100
AcDbEntity
  8
Layer_1
 62
7
100
AcDbSpline
 70
8
 71
3
 72
8
 73
4
 74
0
 40
0
 40
0
 40
0
 40
0
 40
1
 40
1
 40
1
 40
1
 10
182.000364
 20
182.298254
 30
0.0
 10
181.738538
 20
182.560083
 30
0.0
 10
181.381626
 20
182.707533
 30
0.0
 10
181.010933
 20
182.707533
 30
0.0
  0
SPLINE
  5
14e
100
AcDbEntity
  8
Layer_1
 62
7
100
AcDbSpline
 70
8
 71
3
 72
8
 73
4
 74
0
 40
0
 40
0
 40
0
 40
0
 40
1
 40
1
 40
1
 40
1
 10
181.010933
 20
182.707533
 30
0.0
 10
180.638865
 20
182.707533
 30
0.0
 10
180.283330
 20
182.560083
 30
0.0
 10
180.020124
 20
182.298254
 30
0.0
  0
SPLINE
  5
14f
100
AcDbEntity
  8
Layer_1
 62
7
100
AcDbSpline
 70
8
 71
3
 72
8
 73
4
 74
0
 40
0
 40
0
 40
0
 40
0
 40
1
 40
1
 40
1
 40
1
 10
180.020124
 20
182.298254
 30
0.0
 10
179.758298
 20
182.035051
 30
0.0
 10
179.610845
 20
181.679513
 30
0.0
 10
179.610845
 20
181.307445
 30
0.0
  0
SPLINE
  5
150
100
AcDbEntity
  8
Layer_1
 62
7
100
AcDbSpline
 70
8
 71
3
 72
8
 73
4
 74
0
 40
0
 40
0
 40
0
 40
0
 40
1
 40
1
 40
1
 40
1
 10
121.610594
 20
181.307445
 30
0.0
 10
121.610594
 20
180.936755
 30
0.0
 10
121.758044
 20
180.579842
 30
0.0
 10
122.019870
 20
180.318013
 30
0.0
  0
SPLINE
  5
151
100
AcDbEntity
  8
Layer_1
 62
7
100
AcDbSpline
 70
8
 71
3
 72
8
 73
4
 74
0
 40
0
 40
0
 40
0
 40
0
 40
1
 40
1
 40
1
 40
1
 10
122.021247
 20
180.318013
 30
0.0
 10
122.283076
 20
180.054810
 30
0.0
 10
122.639988
 20
179.907357
 30
0.0
 10
123.010682
 20
179.907357
 30
0.0
  0
SPLINE
  5
152
100
AcDbEntity
  8
Layer_1
 62
7
100
AcDbSpline
 70
8
 71
3
 72
8
 73
4
 74
0
 40
0
 40
0
 40
0
 40
0
 40
1
 40
1
 40
1
 40
1
 10
123.010682
 20
179.907357
 30
0.0
 10
123.381372
 20
179.907357
 30
0.0
 10
123.738284
 20
180.054810
 30
0.0
 10
124.000110
 20
180.318013
 30
0.0
  0
SPLINE
  5
153
100
AcDbEntity
  8
Layer_1
 62
7
100
AcDbSpline
 70
8
 71
3
 72
8
 73
4
 74
0
 40
0
 40
0
 40
0
 40
0
 40
1
 40
1
 40
1
 40
1
 10
124.000110
 20
180.318013
 30
0.0
 10
124.263317
 20
180.579842
 30
0.0
 10
124.410766
 20
180.936755
 30
0.0
 10
124.410766
 20
181.307445
 30
0.0
  0
SPLINE
  5
154
100
AcDbEntity
  8
Layer_1
 62
7
100
AcDbSpline
 70
8
 71
3
 72
8
 73
4
 74
0
 40
0
 40
0
 40
0
 40
0
 40
1
 40
1
 40
1
 40
1
 10
124.410766
 20
181.307445
 30
0.0
 10
124.410766
 20
181.679513
 30
0.0
 10
124.263317
 20
182.035051
 30
0.0
 10
124.000110
 20
182.296874
 30
0.0
  0
SPLINE
  5
155
100
AcDbEntity
  8
Layer_1
 62
7
100
AcDbSpline
 70
8
 71
3
 72
8
 73
4
 74
0
 40
0
 40
0
 40
0
 40
0
 40
1
 40
1
 40
1
 40
1
 10
124.000110
 20
182.298254
 30
0.0
 10
123.738284
 20
182.560083
 30
0.0
 10
123.381372
 20
182.707533
 30
0.0
 10
123.010682
 20
182.707533
 30
0.0
  0
SPLINE
  5
156
100
AcDbEntity
  8
Layer_1
 62
7
100
AcDbSpline
 70
8
 71
3
 72
8
 73
4
 74
0
 40
0
 40
0
 40
0
 40
0
 40
1
 40
1
 40
1
 40
1
 10
123.010682
 20
182.707533
 30
0.0
 10
122.638608
 20
182.707533
 30
0.0
 10
122.283076
 20
182.560083
 30
0.0
 10
122.021247
 20
182.298254
 30
0.0
  0
SPLINE
  5
157
100
AcDbEntity
  8
Layer_1
 62
7
100
AcDbSpline
 70
8
 71
3
 72
8
 73
4
 74
0
 40
0
 40
0
 40
0
 40
0
 40
1
 40
1
 40
1
 40
1
 10
122.021247
 20
182.298254
 30
0.0
 10
121.758044
 20
182.035051
 30
0.0
 10
121.610594
 20
181.679513
 30
0.0
 10
121.610594
 20
181.307445
 30
0.0
  0
SPLINE
  5
158
100
AcDbEntity
  8
Layer_1
 62
7
100
AcDbSpline
 70
8
 71
3
 72
8
 73
4
 74
0
 40
0
 40
0
 40
0
 40
0
 40
1
 40
1
 40
1
 40
1
 10
121.610594
 20
204.308285
 30
0.0
 10
121.610594
 20
203.936212
 30
0.0
 10
121.758044
 20
203.580680
 30
0.0
 10
122.019870
 20
203.317471
 30
0.0
  0
SPLINE
  5
159
100
AcDbEntity
  8
Layer_1
 62
7
100
AcDbSpline
 70
8
 71
3
 72
8
 73
4
 74
0
 40
0
 40
0
 40
0
 40
0
 40
1
 40
1
 40
1
 40
1
 10
122.021247
 20
203.317471
 30
0.0
 10
122.283076
 20
203.055645
 30
0.0
 10
122.639988
 20
202.908198
 30
0.0
 10
123.010682
 20
202.908198
 30
0.0
  0
SPLINE
  5
15a
100
AcDbEntity
  8
Layer_1
 62
7
100
AcDbSpline
 70
8
 71
3
 72
8
 73
4
 74
0
 40
0
 40
0
 40
0
 40
0
 40
1
 40
1
 40
1
 40
1
 10
123.010682
 20
202.908198
 30
0.0
 10
123.381372
 20
202.908198
 30
0.0
 10
123.738284
 20
203.055645
 30
0.0
 10
124.000110
 20
203.317471
 30
0.0
  0
SPLINE
  5
15b
100
AcDbEntity
  8
Layer_1
 62
7
100
AcDbSpline
 70
8
 71
3
 72
8
 73
4
 74
0
 40
0
 40
0
 40
0
 40
0
 40
1
 40
1
 40
1
 40
1
 10
124.000110
 20
203.317471
 30
0.0
 10
124.263317
 20
203.580680
 30
0.0
 10
124.410766
 20
203.936212
 30
0.0
 10
124.410766
 20
204.306905
 30
0.0
  0
SPLINE
  5
15c
100
AcDbEntity
  8
Layer_1
 62
7
100
AcDbSpline
 70
8
 71
3
 72
8
 73
4
 74
0
 40
0
 40
0
 40
0
 40
0
 40
1
 40
1
 40
1
 40
1
 10
124.410766
 20
204.308285
 30
0.0
 10
124.410766
 20
204.678976
 30
0.0
 10
124.263317
 20
205.034508
 30
0.0
 10
124.000110
 20
205.297714
 30
0.0
  0
SPLINE
  5
15d
100
AcDbEntity
  8
Layer_1
 62
7
100
AcDbSpline
 70
8
 71
3
 72
8
 73
4
 74
0
 40
0
 40
0
 40
0
 40
0
 40
1
 40
1
 40
1
 40
1
 10
124.000110
 20
205.297714
 30
0.0
 10
123.738284
 20
205.559540
 30
0.0
 10
123.381372
 20
205.706993
 30
0.0
 10
123.010682
 20
205.706993
 30
0.0
  0
SPLINE
  5
15e
100
AcDbEntity
  8
Layer_1
 62
7
100
AcDbSpline
 70
8
 71
3
 72
8
 73
4
 74
0
 40
0
 40
0
 40
0
 40
0
 40
1
 40
1
 40
1
 40
1
 10
123.010682
 20
205.706993
 30
0.0
 10
122.638608
 20
205.706993
 30
0.0
 10
122.283076
 20
205.559540
 30
0.0
 10
122.021247
 20
205.297714
 30
0.0
  0
SPLINE
  5
15f
100
AcDbEntity
  8
Layer_1
 62
7
100
AcDbSpline
 70
8
 71
3
 72
8
 73
4
 74
0
 40
0
 40
0
 40
0
 40
0
 40
1
 40
1
 40
1
 40
1
 10
122.021247
 20
205.297714
 30
0.0
 10
121.758044
 20
205.034508
 30
0.0
 10
121.610594
 20
204.678976
 30
0.0
 10
121.610594
 20
204.308285
 30
0.0
  0
SPLINE
  5
160
100
AcDbEntity
  8
Layer_1
 62
7
100
AcDbSpline
 70
8
 71
3
 72
8
 73
4
 74
0
 40
0
 40
0
 40
0
 40
0
 40
1
 40
1
 40
1
 40
1
 10
78.075607
 20
155.307997
 30
0.0
 10
76.967664
 20
155.307997
 30
0.0
 10
76.076073
 20
156.199585
 30
0.0
 10
76.076073
 20
157.307530
 30
0.0
  0
LINE
  5
161
100
AcDbEntity
  8
Layer_1
 62
7
100
AcDbLine
 10
76.076073
 20
157.307530
 30
0.0
 11
76.076073
 21
213.306873
 31
0.0
  0
SPLINE
  5
162
100
AcDbEntity
  8
Layer_1
 62
7
100
AcDbSpline
 70
8
 71
3
 72
8
 73
4
 74
0
 40
0
 40
0
 40
0
 40
0
 40
1
 40
1
 40
1
 40
1
 10
76.076073
 20
213.306873
 30
0.0
 10
76.076073
 20
214.414815
 30
0.0
 10
76.967664
 20
215.307783
 30
0.0
 10
78.075607
 20
215.307783
 30
0.0
  0
LINE
  5
163
100
AcDbEntity
  8
Layer_1
 62
7
100
AcDbLine
 10
78.075607
 20
215.307783
 30
0.0
 11
183.575460
 21
215.307783
 31
0.0
  0
SPLINE
  5
164
100
AcDbEntity
  8
Layer_1
 62
7
100
AcDbSpline
 70
8
 71
3
 72
8
 73
4
 74
0
 40
0
 40
0
 40
0
 40
0
 40
1
 40
1
 40
1
 40
1
 10
183.575460
 20
215.307783
 30
0.0
 10
184.683406
 20
215.307783
 30
0.0
 10
185.574996
 20
214.414815
 30
0.0
 10
185.574996
 20
213.306873
 30
0.0
  0
LINE
  5
165
100
AcDbEntity
  8
Layer_1
 62
7
100
AcDbLine
 10
185.574996
 20
213.306873
 30
0.0
 11
185.574996
 21
157.307530
 31
0.0
  0
SPLINE
  5
166
100
AcDbEntity
  8
Layer_1
 62
7
100
AcDbSpline
 70
8
 71
3
 72
8
 73
4
 74
0
 40
0
 40
0
 40
0
 40
0
 40
1
 40
1
 40
1
 40
1
 10
185.574996
 20
157.307530
 30
0.0
 10
185.574996
 20
156.199585
 30
0.0
 10
184.683406
 20
155.307997
 30
0.0
 10
183.575460
 20
155.307997
 30
0.0
  0
LINE
  5
167
100
AcDbEntity
  8
Layer_1
 62
7
100
AcDbLine
 10
183.575460
 20
155.307997
 30
0.0
 11
78.075607
 21
155.307997
 31
0.0
  0
SPLINE
  5
168
100
AcDbEntity
  8
Layer_1
 62
7
100
AcDbSpline
 70
8
 71
3
 72
8
 73
4
 74
0
 40
0
 40
0
 40
0
 40
0
 40
1
 40
1
 40
1
 40
1
 10
33.890187
 20
195.662469
 30
0.0
 10
33.890187
 20
196.325308
 30
0.0
 10
34.427620
 20
196.861364
 30
0.0
 10
35.090458
 20
196.861364
 30
0.0
  0
SPLINE
  5
169
100
AcDbEntity
  8
Layer_1
 62
7
100
AcDbSpline
 70
8
 71
3
 72
8
 73
4
 74
0
 40
0
 40
0
 40
0
 40
0
 40
1
 40
1
 40
1
 40
1
 10
35.090458
 20
196.861364
 30
0.0
 10
35.753294
 20
196.861364
 30
0.0
 10
36.289350
 20
196.325308
 30
0.0
 10
36.289350
 20
195.662469
 30
0.0
  0
SPLINE
  5
16a
100
AcDbEntity
  8
Layer_1
 62
7
100
AcDbSpline
 70
8
 71
3
 72
8
 73
4
 74
0
 40
0
 40
0
 40
0
 40
0
 40
1
 40
1
 40
1
 40
1
 10
36.289350
 20
195.662469
 30
0.0
 10
36.289350
 20
194.999634
 30
0.0
 10
35.753294
 20
194.462198
 30
0.0
 10
35.090458
 20
194.462198
 30
0.0
  0
SPLINE
  5
16b
100
AcDbEntity
  8
Layer_1
 62
7
100
AcDbSpline
 70
8
 71
3
 72
8
 73
4
 74
0
 40
0
 40
0
 40
0
 40
0
 40
1
 40
1
 40
1
 40
1
 10
35.090458
 20
194.462198
 30
0.0
 10
34.427620
 20
194.462198
 30
0.0
 10
33.890187
 20
194.999634
 30
0.0
 10
33.890187
 20
195.662469
 30
0.0
  0
LINE
  5
16c
100
AcDbEntity
  8
Layer_1
 62
7
100
AcDbLine
 10
33.890187
 20
195.662469
 30
0.0
 11
33.890187
 21
195.662469
 31
0.0
  0
SPLINE
  5
16d
100
AcDbEntity
  8
Layer_1
 62
7
100
AcDbSpline
 70
8
 71
3
 72
8
 73
4
 74
0
 40
0
 40
0
 40
0
 40
0
 40
1
 40
1
 40
1
 40
1
 10
33.890187
 20
174.953310
 30
0.0
 10
33.890187
 20
175.616143
 30
0.0
 10
34.427620
 20
176.152205
 30
0.0
 10
35.090458
 20
176.152205
 30
0.0
  0
SPLINE
  5
16e
100
AcDbEntity
  8
Layer_1
 62
7
100
AcDbSpline
 70
8
 71
3
 72
8
 73
4
 74
0
 40
0
 40
0
 40
0
 40
0
 40
1
 40
1
 40
1
 40
1
 10
35.090458
 20
176.152205
 30
0.0
 10
35.753294
 20
176.152205
 30
0.0
 10
36.289350
 20
175.616143
 30
0.0
 10
36.289350
 20
174.953310
 30
0.0
  0
SPLINE
  5
16f
100
AcDbEntity
  8
Layer_1
 62
7
100
AcDbSpline
 70
8
 71
3
 72
8
 73
4
 74
0
 40
0
 40
0
 40
0
 40
0
 40
1
 40
1
 40
1
 40
1
 10
36.289350
 20
174.953310
 30
0.0
 10
36.289350
 20
174.290472
 30
0.0
 10
35.753294
 20
173.753036
 30
0.0
 10
35.090458
 20
173.753036
 30
0.0
  0
SPLINE
  5
170
100
AcDbEntity
  8
Layer_1
 62
7
100
AcDbSpline
 70
8
 71
3
 72
8
 73
4
 74
0
 40
0
 40
0
 40
0
 40
0
 40
1
 40
1
 40
1
 40
1
 10
35.090458
 20
173.753036
 30
0.0
 10
34.427620
 20
173.753036
 30
0.0
 10
33.890187
 20
174.290472
 30
0.0
 10
33.890187
 20
174.953310
 30
0.0
  0
LINE
  5
171
100
AcDbEntity
  8
Layer_1
 62
7
100
AcDbLine
 10
33.890187
 20
174.953310
 30
0.0
 11
33.890187
 21
174.953310
 31
0.0
  0
LINE
  5
172
100
AcDbEntity
  8
Layer_1
 62
7
100
AcDbLine
 10
43.080325
 20
180.001064
 30
0.0
 11
43.080325
 21
178.201347
 31
0.0
  0
SPLINE
  5
173
100
AcDbEntity
  8
Layer_1
 62
7
100
AcDbSpline
 70
8
 71
3
 72
8
 73
4
 74
0
 40
0
 40
0
 40
0
 40
0
 40
1
 40
1
 40
1
 40
1
 10
43.080325
 20
178.201347
 30
0.0
 10
43.080325
 20
177.648753
 30
0.0
 10
43.528186
 20
177.200889
 30
0.0
 10
44.080780
 20
177.200889
 30
0.0
  0
LINE
  5
174
100
AcDbEntity
  8
Layer_1
 62
7
100
AcDbLine
 10
44.080780
 20
177.200889
 30
0.0
 11
46.681139
 21
177.200889
 31
0.0
  0
SPLINE
  5
175
100
AcDbEntity
  8
Layer_1
 62
7
100
AcDbSpline
 70
8
 71
3
 72
8
 73
4
 74
0
 40
0
 40
0
 40
0
 40
0
 40
1
 40
1
 40
1
 40
1
 10
46.681139
 20
177.200889
 30
0.0
 10
47.233730
 20
177.200889
 30
0.0
 10
47.680217
 20
177.648753
 30
0.0
 10
47.680217
 20
178.201347
 30
0.0
  0
LINE
  5
176
100
AcDbEntity
  8
Layer_1
 62
7
100
AcDbLine
 10
47.680217
 20
178.201347
 30
0.0
 11
47.680217
 21
192.414433
 31
0.0
  0
SPLINE
  5
177
100
AcDbEntity
  8
Layer_1
 62
7
100
AcDbSpline
 70
8
 71
3
 72
8
 73
4
 74
0
 40
0
 40
0
 40
0
 40
0
 40
1
 40
1
 40
1
 40
1
 10
47.680217
 20
192.414433
 30
0.0
 10
47.680217
 20
192.965647
 30
0.0
 10
47.233730
 20
193.413511
 30
0.0
 10
46.681139
 20
193.413511
 30
0.0
  0
LINE
  5
178
100
AcDbEntity
  8
Layer_1
 62
7
100
AcDbLine
 10
46.681139
 20
193.413511
 30
0.0
 11
44.080780
 21
193.413511
 31
0.0
  0
SPLINE
  5
179
100
AcDbEntity
  8
Layer_1
 62
7
100
AcDbSpline
 70
8
 71
3
 72
8
 73
4
 74
0
 40
0
 40
0
 40
0
 40
0
 40
1
 40
1
 40
1
 40
1
 10
44.080780
 20
193.413511
 30
0.0
 10
43.528186
 20
193.413511
 30
0.0
 10
43.080325
 20
192.965647
 30
0.0
 10
43.080325
 20
192.414433
 30
0.0
  0
LINE
  5
17a
100
AcDbEntity
  8
Layer_1
 62
7
100
AcDbLine
 10
43.080325
 20
192.414433
 30
0.0
 11
43.080325
 21
190.613336
 31
0.0
  0
SPLINE
  5
17b
100
AcDbEntity
  8
Layer_1
 62
7
100
AcDbSpline
 70
8
 71
3
 72
8
 73
4
 74
0
 40
0
 40
0
 40
0
 40
0
 40
1
 40
1
 40
1
 40
1
 10
43.080325
 20
190.613336
 30
0.0
 10
43.080325
 20
190.062122
 30
0.0
 10
42.633841
 20
189.614258
 30
0.0
 10
42.081247
 20
189.614258
 30
0.0
  0
LINE
  5
17c
100
AcDbEntity
  8
Layer_1
 62
7
100
AcDbLine
 10
42.081247
 20
189.614258
 30
0.0
 11
30.906734
 21
189.614258
 31
0.0
  0
LINE
  5
17d
100
AcDbEntity
  8
Layer_1
 62
7
100
AcDbLine
 10
30.906734
 20
189.614258
 30
0.0
 11
30.906734
 21
181.001519
 31
0.0
  0
LINE
  5
17e
100
AcDbEntity
  8
Layer_1
 62
7
100
AcDbLine
 10
30.906734
 20
181.001519
 30
0.0
 11
42.081247
 21
181.001519
 31
0.0
  0
SPLINE
  5
17f
100
AcDbEntity
  8
Layer_1
 62
7
100
AcDbSpline
 70
8
 71
3
 72
8
 73
4
 74
0
 40
0
 40
0
 40
0
 40
0
 40
1
 40
1
 40
1
 40
1
 10
42.081247
 20
181.001519
 30
0.0
 10
42.633841
 20
181.001519
 30
0.0
 10
43.080325
 20
180.553658
 30
0.0
 10
43.080325
 20
180.001064
 30
0.0
  0
LINE
  5
180
100
AcDbEntity
  8
Layer_1
 62
7
100
AcDbLine
 10
43.080325
 20
180.001064
 30
0.0
 11
43.080325
 21
180.001064
 31
0.0
  0
LINE
  5
181
100
AcDbEntity
  8
Layer_1
 62
7
100
AcDbLine
 10
159.514915
 20
178.231663
 30
0.0
 11
153.870471
 21
178.231663
 31
0.0
  0
LINE
  5
182
100
AcDbEntity
  8
Layer_1
 62
7
100
AcDbLine
 10
153.870471
 20
178.231663
 30
0.0
 11
153.870471
 21
172.493510
 31
0.0
  0
LINE
  5
183
100
AcDbEntity
  8
Layer_1
 62
7
100
AcDbLine
 10
153.870471
 20
172.493510
 30
0.0
 11
159.514915
 21
172.493510
 31
0.0
  0
LINE
  5
184
100
AcDbEntity
  8
Layer_1
 62
7
100
AcDbLine
 10
159.514915
 20
172.493510
 30
0.0
 11
159.514915
 21
178.231663
 31
0.0
  0
LINE
  5
185
100
AcDbEntity
  8
Layer_1
 62
7
100
AcDbLine
 10
176.637041
 20
178.231663
 30
0.0
 11
170.992597
 21
178.231663
 31
0.0
  0
LINE
  5
186
100
AcDbEntity
  8
Layer_1
 62
7
100
AcDbLine
 10
170.992597
 20
178.231663
 30
0.0
 11
170.992597
 21
172.493510
 31
0.0
  0
LINE
  5
187
100
AcDbEntity
  8
Layer_1
 62
7
100
AcDbLine
 10
170.992597
 20
172.493510
 30
0.0
 11
176.637041
 21
172.493510
 31
0.0
  0
LINE
  5
188
100
AcDbEntity
  8
Layer_1
 62
7
100
AcDbLine
 10
176.637041
 20
172.493510
 30
0.0
 11
176.637041
 21
178.231663
 31
0.0
  0
LINE
  5
189
100
AcDbEntity
  8
Layer_1
 62
7
100
AcDbLine
 10
170.992597
 20
192.262849
 30
0.0
 11
176.637041
 21
192.262849
 31
0.0
  0
LINE
  5
18a
100
AcDbEntity
  8
Layer_1
 62
7
100
AcDbLine
 10
176.637041
 20
192.262849
 30
0.0
 11
176.637041
 21
197.999622
 31
0.0
  0
LINE
  5
18b
100
AcDbEntity
  8
Layer_1
 62
7
100
AcDbLine
 10
176.637041
 20
197.999622
 30
0.0
 11
170.992597
 21
197.999622
 31
0.0
  0
LINE
  5
18c
100
AcDbEntity
  8
Layer_1
 62
7
100
AcDbLine
 10
170.992597
 20
197.999622
 30
0.0
 11
170.992597
 21
192.262849
 31
0.0
  0
LINE
  5
18d
100
AcDbEntity
  8
Layer_1
 62
7
100
AcDbLine
 10
153.870471
 20
192.262849
 30
0.0
 11
159.514915
 21
192.262849
 31
0.0
  0
LINE
  5
18e
100
AcDbEntity
  8
Layer_1
 62
7
100
AcDbLine
 10
159.514915
 20
192.262849
 30
0.0
 11
159.514915
 21
197.999622
 31
0.0
  0
LINE
  5
18f
100
AcDbEntity
  8
Layer_1
 62
7
100
AcDbLine
 10
159.514915
 20
197.999622
 30
0.0
 11
153.870471
 21
197.999622
 31
0.0
  0
LINE
  5
190
100
AcDbEntity
  8
Layer_1
 62
7
100
AcDbLine
 10
153.870471
 20
197.999622
 30
0.0
 11
153.870471
 21
192.262849
 31
0.0
  0
SPLINE
  5
191
100
AcDbEntity
  8
Layer_1
 62
7
100
AcDbSpline
 70
8
 71
3
 72
8
 73
4
 74
0
 40
0
 40
0
 40
0
 40
0
 40
1
 40
1
 40
1
 40
1
 10
157.175005
 20
207.308271
 30
0.0
 10
157.175005
 20
206.700559
 30
0.0
 10
156.681667
 20
206.207220
 30
0.0
 10
156.073952
 20
206.207220
 30
0.0
  0
SPLINE
  5
192
100
AcDbEntity
  8
Layer_1
 62
7
100
AcDbSpline
 70
8
 71
3
 72
8
 73
4
 74
0
 40
0
 40
0
 40
0
 40
0
 40
1
 40
1
 40
1
 40
1
 10
156.073952
 20
206.207220
 30
0.0
 10
155.467614
 20
206.207220
 30
0.0
 10
154.974279
 20
206.700559
 30
0.0
 10
154.974279
 20
207.308271
 30
0.0
  0
SPLINE
  5
193
100
AcDbEntity
  8
Layer_1
 62
7
100
AcDbSpline
 70
8
 71
3
 72
8
 73
4
 74
0
 40
0
 40
0
 40
0
 40
0
 40
1
 40
1
 40
1
 40
1
 10
154.974279
 20
207.308271
 30
0.0
 10
154.974279
 20
207.914608
 30
0.0
 10
155.467614
 20
208.407947
 30
0.0
 10
156.073952
 20
208.407947
 30
0.0
  0
SPLINE
  5
194
100
AcDbEntity
  8
Layer_1
 62
7
100
AcDbSpline
 70
8
 71
3
 72
8
 73
4
 74
0
 40
0
 40
0
 40
0
 40
0
 40
1
 40
1
 40
1
 40
1
 10
156.073952
 20
208.407947
 30
0.0
 10
156.681667
 20
208.407947
 30
0.0
 10
157.175005
 20
207.914608
 30
0.0
 10
157.175005
 20
207.308271
 30
0.0
  0
LINE
  5
195
100
AcDbEntity
  8
Layer_1
 62
7
100
AcDbLine
 10
157.175005
 20
207.308271
 30
0.0
 11
157.175005
 21
207.308271
 31
0.0
  0
SPLINE
  5
196
100
AcDbEntity
  8
Layer_1
 62
7
100
AcDbSpline
 70
8
 71
3
 72
8
 73
4
 74
0
 40
0
 40
0
 40
0
 40
0
 40
1
 40
1
 40
1
 40
1
 10
175.174941
 20
207.308271
 30
0.0
 10
175.174941
 20
206.700559
 30
0.0
 10
174.681605
 20
206.207220
 30
0.0
 10
174.073888
 20
206.207220
 30
0.0
  0
SPLINE
  5
197
100
AcDbEntity
  8
Layer_1
 62
7
100
AcDbSpline
 70
8
 71
3
 72
8
 73
4
 74
0
 40
0
 40
0
 40
0
 40
0
 40
1
 40
1
 40
1
 40
1
 10
174.073888
 20
206.207220
 30
0.0
 10
173.467553
 20
206.207220
 30
0.0
 10
172.974214
 20
206.700559
 30
0.0
 10
172.974214
 20
207.308271
 30
0.0
  0
SPLINE
  5
198
100
AcDbEntity
  8
Layer_1
 62
7
100
AcDbSpline
 70
8
 71
3
 72
8
 73
4
 74
0
 40
0
 40
0
 40
0
 40
0
 40
1
 40
1
 40
1
 40
1
 10
172.974214
 20
207.308271
 30
0.0
 10
172.974214
 20
207.914608
 30
0.0
 10
173.467553
 20
208.407947
 30
0.0
 10
174.073888
 20
208.407947
 30
0.0
  0
SPLINE
  5
199
100
AcDbEntity
  8
Layer_1
 62
7
100
AcDbSpline
 70
8
 71
3
 72
8
 73
4
 74
0
 40
0
 40
0
 40
0
 40
0
 40
1
 40
1
 40
1
 40
1
 10
174.073888
 20
208.407947
 30
0.0
 10
174.681605
 20
208.407947
 30
0.0
 10
175.174941
 20
207.914608
 30
0.0
 10
175.174941
 20
207.308271
 30
0.0
  0
LINE
  5
19a
100
AcDbEntity
  8
Layer_1
 62
7
100
AcDbLine
 10
175.174941
 20
207.308271
 30
0.0
 11
175.174941
 21
207.308271
 31
0.0
  0
SPLINE
  5
19b
100
AcDbEntity
  8
Layer_1
 62
7
100
AcDbSpline
 70
8
 71
3
 72
8
 73
4
 74
0
 40
0
 40
0
 40
0
 40
0
 40
1
 40
1
 40
1
 40
1
 10
157.175005
 20
163.307509
 30
0.0
 10
157.175005
 20
162.699792
 30
0.0
 10
156.681667
 20
162.207833
 30
0.0
 10
156.073952
 20
162.207833
 30
0.0
  0
SPLINE
  5
19c
100
AcDbEntity
  8
Layer_1
 62
7
100
AcDbSpline
 70
8
 71
3
 72
8
 73
4
 74
0
 40
0
 40
0
 40
0
 40
0
 40
1
 40
1
 40
1
 40
1
 10
156.073952
 20
162.207833
 30
0.0
 10
155.467614
 20
162.207833
 30
0.0
 10
154.974279
 20
162.699792
 30
0.0
 10
154.974279
 20
163.307509
 30
0.0
  0
SPLINE
  5
19d
100
AcDbEntity
  8
Layer_1
 62
7
100
AcDbSpline
 70
8
 71
3
 72
8
 73
4
 74
0
 40
0
 40
0
 40
0
 40
0
 40
1
 40
1
 40
1
 40
1
 10
154.974279
 20
163.307509
 30
0.0
 10
154.974279
 20
163.915224
 30
0.0
 10
155.467614
 20
164.407182
 30
0.0
 10
156.073952
 20
164.407182
 30
0.0
  0
SPLINE
  5
19e
100
AcDbEntity
  8
Layer_1
 62
7
100
AcDbSpline
 70
8
 71
3
 72
8
 73
4
 74
0
 40
0
 40
0
 40
0
 40
0
 40
1
 40
1
 40
1
 40
1
 10
156.073952
 20
164.407182
 30
0.0
 10
156.681667
 20
164.407182
 30
0.0
 10
157.175005
 20
163.915224
 30
0.0
 10
157.175005
 20
163.307509
 30
0.0
  0
LINE
  5
19f
100
AcDbEntity
  8
Layer_1
 62
7
100
AcDbLine
 10
157.175005
 20
163.307509
 30
0.0
 11
157.175005
 21
163.307509
 31
0.0
  0
SPLINE
  5
1a0
100
AcDbEntity
  8
Layer_1
 62
7
100
AcDbSpline
 70
8
 71
3
 72
8
 73
4
 74
0
 40
0
 40
0
 40
0
 40
0
 40
1
 40
1
 40
1
 40
1
 10
175.174941
 20
163.307509
 30
0.0
 10
175.174941
 20
162.699792
 30
0.0
 10
174.681605
 20
162.207833
 30
0.0
 10
174.073888
 20
162.207833
 30
0.0
  0
SPLINE
  5
1a1
100
AcDbEntity
  8
Layer_1
 62
7
100
AcDbSpline
 70
8
 71
3
 72
8
 73
4
 74
0
 40
0
 40
0
 40
0
 40
0
 40
1
 40
1
 40
1
 40
1
 10
174.073888
 20
162.207833
 30
0.0
 10
173.467553
 20
162.207833
 30
0.0
 10
172.974214
 20
162.699792
 30
0.0
 10
172.974214
 20
163.307509
 30
0.0
  0
SPLINE
  5
1a2
100
AcDbEntity
  8
Layer_1
 62
7
100
AcDbSpline
 70
8
 71
3
 72
8
 73
4
 74
0
 40
0
 40
0
 40
0
 40
0
 40
1
 40
1
 40
1
 40
1
 10
172.974214
 20
163.307509
 30
0.0
 10
172.974214
 20
163.915224
 30
0.0
 10
173.467553
 20
164.407182
 30
0.0
 10
174.073888
 20
164.407182
 30
0.0
  0
SPLINE
  5
1a3
100
AcDbEntity
  8
Layer_1
 62
7
100
AcDbSpline
 70
8
 71
3
 72
8
 73
4
 74
0
 40
0
 40
0
 40
0
 40
0
 40
1
 40
1
 40
1
 40
1
 10
174.073888
 20
164.407182
 30
0.0
 10
174.681605
 20
164.407182
 30
0.0
 10
175.174941
 20
163.915224
 30
0.0
 10
175.174941
 20
163.307509
 30
0.0
  0
LINE
  5
1a4
100
AcDbEntity
  8
Layer_1
 62
7
100
AcDbLine
 10
175.174941
 20
163.307509
 30
0.0
 11
175.174941
 21
163.307509
 31
0.0
  0
LINE
  5
1a5
100
AcDbEntity
  8
Layer_1
 62
7
100
AcDbLine
 10
90.987826
 20
178.231663
 30
0.0
 11
85.343382
 21
178.231663
 31
0.0
  0
LINE
  5
1a6
100
AcDbEntity
  8
Layer_1
 62
7
100
AcDbLine
 10
85.343382
 20
178.231663
 30
0.0
 11
85.343382
 21
172.493510
 31
0.0
  0
LINE
  5
1a7
100
AcDbEntity
  8
Layer_1
 62
7
100
AcDbLine
 10
85.343382
 20
172.493510
 30
0.0
 11
90.987826
 21
172.493510
 31
0.0
  0
LINE
  5
1a8
100
AcDbEntity
  8
Layer_1
 62
7
100
AcDbLine
 10
90.987826
 20
172.493510
 30
0.0
 11
90.987826
 21
178.231663
 31
0.0
  0
LINE
  5
1a9
100
AcDbEntity
  8
Layer_1
 62
7
100
AcDbLine
 10
108.109952
 20
178.231663
 30
0.0
 11
102.465508
 21
178.231663
 31
0.0
  0
LINE
  5
1aa
100
AcDbEntity
  8
Layer_1
 62
7
100
AcDbLine
 10
102.465508
 20
178.231663
 30
0.0
 11
102.465508
 21
172.493510
 31
0.0
  0
LINE
  5
1ab
100
AcDbEntity
  8
Layer_1
 62
7
100
AcDbLine
 10
102.465508
 20
172.493510
 30
0.0
 11
108.109952
 21
172.493510
 31
0.0
  0
LINE
  5
1ac
100
AcDbEntity
  8
Layer_1
 62
7
100
AcDbLine
 10
108.109952
 20
172.493510
 30
0.0
 11
108.109952
 21
178.231663
 31
0.0
  0
LINE
  5
1ad
100
AcDbEntity
  8
Layer_1
 62
7
100
AcDbLine
 10
102.465508
 20
192.262849
 30
0.0
 11
108.109952
 21
192.262849
 31
0.0
  0
LINE
  5
1ae
100
AcDbEntity
  8
Layer_1
 62
7
100
AcDbLine
 10
108.109952
 20
192.262849
 30
0.0
 11
108.109952
 21
197.999622
 31
0.0
  0
LINE
  5
1af
100
AcDbEntity
  8
Layer_1
 62
7
100
AcDbLine
 10
108.109952
 20
197.999622
 30
0.0
 11
102.465508
 21
197.999622
 31
0.0
  0
LINE
  5
1b0
100
AcDbEntity
  8
Layer_1
 62
7
100
AcDbLine
 10
102.465508
 20
197.999622
 30
0.0
 11
102.465508
 21
192.262849
 31
0.0
  0
LINE
  5
1b1
100
AcDbEntity
  8
Layer_1
 62
7
100
AcDbLine
 10
85.343382
 20
192.262849
 30
0.0
 11
90.987826
 21
192.262849
 31
0.0
  0
LINE
  5
1b2
100
AcDbEntity
  8
Layer_1
 62
7
100
AcDbLine
 10
90.987826
 20
192.262849
 30
0.0
 11
90.987826
 21
197.999622
 31
0.0
  0
LINE
  5
1b3
100
AcDbEntity
  8
Layer_1
 62
7
100
AcDbLine
 10
90.987826
 20
197.999622
 30
0.0
 11
85.343382
 21
197.999622
 31
0.0
  0
LINE
  5
1b4
100
AcDbEntity
  8
Layer_1
 62
7
100
AcDbLine
 10
85.343382
 20
197.999622
 30
0.0
 11
85.343382
 21
192.262849
 31
0.0
  0
SPLINE
  5
1b5
100
AcDbEntity
  8
Layer_1
 62
7
100
AcDbSpline
 70
8
 71
3
 72
8
 73
4
 74
0
 40
0
 40
0
 40
0
 40
0
 40
1
 40
1
 40
1
 40
1
 10
88.647916
 20
207.308271
 30
0.0
 10
88.647916
 20
206.700559
 30
0.0
 10
88.154578
 20
206.207220
 30
0.0
 10
87.546863
 20
206.207220
 30
0.0
  0
SPLINE
  5
1b6
100
AcDbEntity
  8
Layer_1
 62
7
100
AcDbSpline
 70
8
 71
3
 72
8
 73
4
 74
0
 40
0
 40
0
 40
0
 40
0
 40
1
 40
1
 40
1
 40
1
 10
87.546863
 20
206.207220
 30
0.0
 10
86.940525
 20
206.207220
 30
0.0
 10
86.447190
 20
206.700559
 30
0.0
 10
86.447190
 20
207.308271
 30
0.0
  0
SPLINE
  5
1b7
100
AcDbEntity
  8
Layer_1
 62
7
100
AcDbSpline
 70
8
 71
3
 72
8
 73
4
 74
0
 40
0
 40
0
 40
0
 40
0
 40
1
 40
1
 40
1
 40
1
 10
86.447190
 20
207.308271
 30
0.0
 10
86.447190
 20
207.914608
 30
0.0
 10
86.940525
 20
208.407947
 30
0.0
 10
87.546863
 20
208.407947
 30
0.0
  0
SPLINE
  5
1b8
100
AcDbEntity
  8
Layer_1
 62
7
100
AcDbSpline
 70
8
 71
3
 72
8
 73
4
 74
0
 40
0
 40
0
 40
0
 40
0
 40
1
 40
1
 40
1
 40
1
 10
87.546863
 20
208.407947
 30
0.0
 10
88.154578
 20
208.407947
 30
0.0
 10
88.647916
 20
207.914608
 30
0.0
 10
88.647916
 20
207.308271
 30
0.0
  0
LINE
  5
1b9
100
AcDbEntity
  8
Layer_1
 62
7
100
AcDbLine
 10
88.647916
 20
207.308271
 30
0.0
 11
88.647916
 21
207.308271
 31
0.0
  0
SPLINE
  5
1ba
100
AcDbEntity
  8
Layer_1
 62
7
100
AcDbSpline
 70
8
 71
3
 72
8
 73
4
 74
0
 40
0
 40
0
 40
0
 40
0
 40
1
 40
1
 40
1
 40
1
 10
106.647852
 20
207.308271
 30
0.0
 10
106.647852
 20
206.700559
 30
0.0
 10
106.154516
 20
206.207220
 30
0.0
 10
105.546799
 20
206.207220
 30
0.0
  0
SPLINE
  5
1bb
100
AcDbEntity
  8
Layer_1
 62
7
100
AcDbSpline
 70
8
 71
3
 72
8
 73
4
 74
0
 40
0
 40
0
 40
0
 40
0
 40
1
 40
1
 40
1
 40
1
 10
105.546799
 20
206.207220
 30
0.0
 10
104.940464
 20
206.207220
 30
0.0
 10
104.447126
 20
206.700559
 30
0.0
 10
104.447126
 20
207.308271
 30
0.0
  0
SPLINE
  5
1bc
100
AcDbEntity
  8
Layer_1
 62
7
100
AcDbSpline
 70
8
 71
3
 72
8
 73
4
 74
0
 40
0
 40
0
 40
0
 40
0
 40
1
 40
1
 40
1
 40
1
 10
104.447126
 20
207.308271
 30
0.0
 10
104.447126
 20
207.914608
 30
0.0
 10
104.940464
 20
208.407947
 30
0.0
 10
105.546799
 20
208.407947
 30
0.0
  0
SPLINE
  5
1bd
100
AcDbEntity
  8
Layer_1
 62
7
100
AcDbSpline
 70
8
 71
3
 72
8
 73
4
 74
0
 40
0
 40
0
 40
0
 40
0
 40
1
 40
1
 40
1
 40
1
 10
105.546799
 20
208.407947
 30
0.0
 10
106.154516
 20
208.407947
 30
0.0
 10
106.647852
 20
207.914608
 30
0.0
 10
106.647852
 20
207.308271
 30
0.0
  0
LINE
  5
1be
100
AcDbEntity
  8
Layer_1
 62
7
100
AcDbLine
 10
106.647852
 20
207.308271
 30
0.0
 11
106.647852
 21
207.308271
 31
0.0
  0
SPLINE
  5
1bf
100
AcDbEntity
  8
Layer_1
 62
7
100
AcDbSpline
 70
8
 71
3
 72
8
 73
4
 74
0
 40
0
 40
0
 40
0
 40
0
 40
1
 40
1
 40
1
 40
1
 10
88.647916
 20
163.307509
 30
0.0
 10
88.647916
 20
162.699792
 30
0.0
 10
88.154578
 20
162.207833
 30
0.0
 10
87.546863
 20
162.207833
 30
0.0
  0
SPLINE
  5
1c0
100
AcDbEntity
  8
Layer_1
 62
7
100
AcDbSpline
 70
8
 71
3
 72
8
 73
4
 74
0
 40
0
 40
0
 40
0
 40
0
 40
1
 40
1
 40
1
 40
1
 10
87.546863
 20
162.207833
 30
0.0
 10
86.940525
 20
162.207833
 30
0.0
 10
86.447190
 20
162.699792
 30
0.0
 10
86.447190
 20
163.307509
 30
0.0
  0
SPLINE
  5
1c1
100
AcDbEntity
  8
Layer_1
 62
7
100
AcDbSpline
 70
8
 71
3
 72
8
 73
4
 74
0
 40
0
 40
0
 40
0
 40
0
 40
1
 40
1
 40
1
 40
1
 10
86.447190
 20
163.307509
 30
0.0
 10
86.447190
 20
163.915224
 30
0.0
 10
86.940525
 20
164.407182
 30
0.0
 10
87.546863
 20
164.407182
 30
0.0
  0
SPLINE
  5
1c2
100
AcDbEntity
  8
Layer_1
 62
7
100
AcDbSpline
 70
8
 71
3
 72
8
 73
4
 74
0
 40
0
 40
0
 40
0
 40
0
 40
1
 40
1
 40
1
 40
1
 10
87.546863
 20
164.407182
 30
0.0
 10
88.154578
 20
164.407182
 30
0.0
 10
88.647916
 20
163.915224
 30
0.0
 10
88.647916
 20
163.307509
 30
0.0
  0
LINE
  5
1c3
100
AcDbEntity
  8
Layer_1
 62
7
100
AcDbLine
 10
88.647916
 20
163.307509
 30
0.0
 11
88.647916
 21
163.307509
 31
0.0
  0
SPLINE
  5
1c4
100
AcDbEntity
  8
Layer_1
 62
7
100
AcDbSpline
 70
8
 71
3
 72
8
 73
4
 74
0
 40
0
 40
0
 40
0
 40
0
 40
1
 40
1
 40
1
 40
1
 10
106.647852
 20
163.307509
 30
0.0
 10
106.647852
 20
162.699792
 30
0.0
 10
106.154516
 20
162.207833
 30
0.0
 10
105.546799
 20
162.207833
 30
0.0
  0
SPLINE
  5
1c5
100
AcDbEntity
  8
Layer_1
 62
7
100
AcDbSpline
 70
8
 71
3
 72
8
 73
4
 74
0
 40
0
 40
0
 40
0
 40
0
 40
1
 40
1
 40
1
 40
1
 10
105.546799
 20
162.207833
 30
0.0
 10
104.940464
 20
162.207833
 30
0.0
 10
104.447126
 20
162.699792
 30
0.0
 10
104.447126
 20
163.307509
 30
0.0
  0
SPLINE
  5
1c6
100
AcDbEntity
  8
Layer_1
 62
7
100
AcDbSpline
 70
8
 71
3
 72
8
 73
4
 74
0
 40
0
 40
0
 40
0
 40
0
 40
1
 40
1
 40
1
 40
1
 10
104.447126
 20
163.307509
 30
0.0
 10
104.447126
 20
163.915224
 30
0.0
 10
104.940464
 20
164.407182
 30
0.0
 10
105.546799
 20
164.407182
 30
0.0
  0
SPLINE
  5
1c7
100
AcDbEntity
  8
Layer_1
 62
7
100
AcDbSpline
 70
8
 71
3
 72
8
 73
4
 74
0
 40
0
 40
0
 40
0
 40
0
 40
1
 40
1
 40
1
 40
1
 10
105.546799
 20
164.407182
 30
0.0
 10
106.154516
 20
164.407182
 30
0.0
 10
106.647852
 20
163.915224
 30
0.0
 10
106.647852
 20
163.307509
 30
0.0
  0
LINE
  5
1c8
100
AcDbEntity
  8
Layer_1
 62
7
100
AcDbLine
 10
106.647852
 20
163.307509
 30
0.0
 11
106.647852
 21
163.307509
 31
0.0
  0
SPLINE
  5
1c9
100
AcDbEntity
  8
Layer_1
 62
7
100
AcDbSpline
 70
8
 71
3
 72
8
 73
4
 74
0
 40
0
 40
0
 40
0
 40
0
 40
1
 40
1
 40
1
 40
1
 10
179.610845
 20
166.307498
 30
0.0
 10
179.610845
 20
166.678191
 30
0.0
 10
179.758298
 20
167.035103
 30
0.0
 10
180.020124
 20
167.296926
 30
0.0
  0
SPLINE
  5
1ca
100
AcDbEntity
  8
Layer_1
 62
7
100
AcDbSpline
 70
8
 71
3
 72
8
 73
4
 74
0
 40
0
 40
0
 40
0
 40
0
 40
1
 40
1
 40
1
 40
1
 10
180.020124
 20
167.296926
 30
0.0
 10
180.283330
 20
167.560135
 30
0.0
 10
180.638865
 20
167.707585
 30
0.0
 10
181.010933
 20
167.707585
 30
0.0
  0
SPLINE
  5
1cb
100
AcDbEntity
  8
Layer_1
 62
7
100
AcDbSpline
 70
8
 71
3
 72
8
 73
4
 74
0
 40
0
 40
0
 40
0
 40
0
 40
1
 40
1
 40
1
 40
1
 10
181.010933
 20
167.707585
 30
0.0
 10
181.381626
 20
167.707585
 30
0.0
 10
181.738538
 20
167.560135
 30
0.0
 10
182.000364
 20
167.296926
 30
0.0
  0
SPLINE
  5
1cc
100
AcDbEntity
  8
Layer_1
 62
7
100
AcDbSpline
 70
8
 71
3
 72
8
 73
4
 74
0
 40
0
 40
0
 40
0
 40
0
 40
1
 40
1
 40
1
 40
1
 10
182.000364
 20
167.296926
 30
0.0
 10
182.262193
 20
167.035103
 30
0.0
 10
182.409643
 20
166.678191
 30
0.0
 10
182.409643
 20
166.307498
 30
0.0
  0
SPLINE
  5
1cd
100
AcDbEntity
  8
Layer_1
 62
7
100
AcDbSpline
 70
8
 71
3
 72
8
 73
4
 74
0
 40
0
 40
0
 40
0
 40
0
 40
1
 40
1
 40
1
 40
1
 10
182.411020
 20
166.307498
 30
0.0
 10
182.411020
 20
165.935427
 30
0.0
 10
182.263570
 20
165.579895
 30
0.0
 10
182.000364
 20
165.318066
 30
0.0
  0
SPLINE
  5
1ce
100
AcDbEntity
  8
Layer_1
 62
7
100
AcDbSpline
 70
8
 71
3
 72
8
 73
4
 74
0
 40
0
 40
0
 40
0
 40
0
 40
1
 40
1
 40
1
 40
1
 10
182.000364
 20
165.318066
 30
0.0
 10
181.738538
 20
165.054860
 30
0.0
 10
181.381626
 20
164.907413
 30
0.0
 10
181.010933
 20
164.907413
 30
0.0
  0
SPLINE
  5
1cf
100
AcDbEntity
  8
Layer_1
 62
7
100
AcDbSpline
 70
8
 71
3
 72
8
 73
4
 74
0
 40
0
 40
0
 40
0
 40
0
 40
1
 40
1
 40
1
 40
1
 10
181.010933
 20
164.907413
 30
0.0
 10
180.638865
 20
164.907413
 30
0.0
 10
180.283330
 20
165.054860
 30
0.0
 10
180.020124
 20
165.318066
 30
0.0
  0
SPLINE
  5
1d0
100
AcDbEntity
  8
Layer_1
 62
7
100
AcDbSpline
 70
8
 71
3
 72
8
 73
4
 74
0
 40
0
 40
0
 40
0
 40
0
 40
1
 40
1
 40
1
 40
1
 10
180.020124
 20
165.318066
 30
0.0
 10
179.758298
 20
165.579895
 30
0.0
 10
179.610845
 20
165.936804
 30
0.0
 10
179.610845
 20
166.307498
 30
0.0
  0
SPLINE
  5
1d1
100
AcDbEntity
  8
Layer_1
 62
7
100
AcDbSpline
 70
8
 71
3
 72
8
 73
4
 74
0
 40
0
 40
0
 40
0
 40
0
 40
1
 40
1
 40
1
 40
1
 10
179.610845
 20
189.306958
 30
0.0
 10
179.610845
 20
189.679028
 30
0.0
 10
179.758298
 20
190.034563
 30
0.0
 10
180.020124
 20
190.297767
 30
0.0
  0
SPLINE
  5
1d2
100
AcDbEntity
  8
Layer_1
 62
7
100
AcDbSpline
 70
8
 71
3
 72
8
 73
4
 74
0
 40
0
 40
0
 40
0
 40
0
 40
1
 40
1
 40
1
 40
1
 10
180.020124
 20
190.297767
 30
0.0
 10
180.283330
 20
190.559595
 30
0.0
 10
180.638865
 20
190.707045
 30
0.0
 10
181.010933
 20
190.707045
 30
0.0
  0
SPLINE
  5
1d3
100
AcDbEntity
  8
Layer_1
 62
7
100
AcDbSpline
 70
8
 71
3
 72
8
 73
4
 74
0
 40
0
 40
0
 40
0
 40
0
 40
1
 40
1
 40
1
 40
1
 10
181.010933
 20
190.707045
 30
0.0
 10
181.381626
 20
190.707045
 30
0.0
 10
181.738538
 20
190.559595
 30
0.0
 10
182.000364
 20
190.297767
 30
0.0
  0
SPLINE
  5
1d4
100
AcDbEntity
  8
Layer_1
 62
7
100
AcDbSpline
 70
8
 71
3
 72
8
 73
4
 74
0
 40
0
 40
0
 40
0
 40
0
 40
1
 40
1
 40
1
 40
1
 10
182.000364
 20
190.297767
 30
0.0
 10
182.262193
 20
190.034563
 30
0.0
 10
182.409643
 20
189.679028
 30
0.0
 10
182.409643
 20
189.306958
 30
0.0
  0
SPLINE
  5
1d5
100
AcDbEntity
  8
Layer_1
 62
7
100
AcDbSpline
 70
8
 71
3
 72
8
 73
4
 74
0
 40
0
 40
0
 40
0
 40
0
 40
1
 40
1
 40
1
 40
1
 10
182.411020
 20
189.306958
 30
0.0
 10
182.411020
 20
188.936267
 30
0.0
 10
182.263570
 20
188.580729
 30
0.0
 10
182.000364
 20
188.317526
 30
0.0
  0
SPLINE
  5
1d6
100
AcDbEntity
  8
Layer_1
 62
7
100
AcDbSpline
 70
8
 71
3
 72
8
 73
4
 74
0
 40
0
 40
0
 40
0
 40
0
 40
1
 40
1
 40
1
 40
1
 10
182.000364
 20
188.317526
 30
0.0
 10
181.738538
 20
188.055697
 30
0.0
 10
181.381626
 20
187.908247
 30
0.0
 10
181.010933
 20
187.908247
 30
0.0
  0
SPLINE
  5
1d7
100
AcDbEntity
  8
Layer_1
 62
7
100
AcDbSpline
 70
8
 71
3
 72
8
 73
4
 74
0
 40
0
 40
0
 40
0
 40
0
 40
1
 40
1
 40
1
 40
1
 10
181.010933
 20
187.906870
 30
0.0
 10
180.638865
 20
187.906870
 30
0.0
 10
180.283330
 20
188.054323
 30
0.0
 10
180.020124
 20
188.317526
 30
0.0
  0
SPLINE
  5
1d8
100
AcDbEntity
  8
Layer_1
 62
7
100
AcDbSpline
 70
8
 71
3
 72
8
 73
4
 74
0
 40
0
 40
0
 40
0
 40
0
 40
1
 40
1
 40
1
 40
1
 10
180.020124
 20
188.317526
 30
0.0
 10
179.758298
 20
188.579355
 30
0.0
 10
179.610845
 20
188.936267
 30
0.0
 10
179.610845
 20
189.306958
 30
0.0
  0
SPLINE
  5
1d9
100
AcDbEntity
  8
Layer_1
 62
7
100
AcDbSpline
 70
8
 71
3
 72
8
 73
4
 74
0
 40
0
 40
0
 40
0
 40
0
 40
1
 40
1
 40
1
 40
1
 10
121.610594
 20
189.306958
 30
0.0
 10
121.610594
 20
189.679028
 30
0.0
 10
121.758044
 20
190.034563
 30
0.0
 10
122.019870
 20
190.297767
 30
0.0
  0
SPLINE
  5
1da
100
AcDbEntity
  8
Layer_1
 62
7
100
AcDbSpline
 70
8
 71
3
 72
8
 73
4
 74
0
 40
0
 40
0
 40
0
 40
0
 40
1
 40
1
 40
1
 40
1
 10
122.021247
 20
190.297767
 30
0.0
 10
122.283076
 20
190.559595
 30
0.0
 10
122.639988
 20
190.707045
 30
0.0
 10
123.010682
 20
190.707045
 30
0.0
  0
SPLINE
  5
1db
100
AcDbEntity
  8
Layer_1
 62
7
100
AcDbSpline
 70
8
 71
3
 72
8
 73
4
 74
0
 40
0
 40
0
 40
0
 40
0
 40
1
 40
1
 40
1
 40
1
 10
123.010682
 20
190.707045
 30
0.0
 10
123.381372
 20
190.707045
 30
0.0
 10
123.738284
 20
190.559595
 30
0.0
 10
124.000110
 20
190.297767
 30
0.0
  0
SPLINE
  5
1dc
100
AcDbEntity
  8
Layer_1
 62
7
100
AcDbSpline
 70
8
 71
3
 72
8
 73
4
 74
0
 40
0
 40
0
 40
0
 40
0
 40
1
 40
1
 40
1
 40
1
 10
124.000110
 20
190.297767
 30
0.0
 10
124.263317
 20
190.034563
 30
0.0
 10
124.410766
 20
189.679028
 30
0.0
 10
124.410766
 20
189.306958
 30
0.0
  0
SPLINE
  5
1dd
100
AcDbEntity
  8
Layer_1
 62
7
100
AcDbSpline
 70
8
 71
3
 72
8
 73
4
 74
0
 40
0
 40
0
 40
0
 40
0
 40
1
 40
1
 40
1
 40
1
 10
124.410766
 20
189.306958
 30
0.0
 10
124.410766
 20
188.936267
 30
0.0
 10
124.263317
 20
188.580729
 30
0.0
 10
124.000110
 20
188.317526
 30
0.0
  0
SPLINE
  5
1de
100
AcDbEntity
  8
Layer_1
 62
7
100
AcDbSpline
 70
8
 71
3
 72
8
 73
4
 74
0
 40
0
 40
0
 40
0
 40
0
 40
1
 40
1
 40
1
 40
1
 10
124.000110
 20
188.317526
 30
0.0
 10
123.738284
 20
188.055697
 30
0.0
 10
123.381372
 20
187.908247
 30
0.0
 10
123.010682
 20
187.908247
 30
0.0
  0
SPLINE
  5
1df
100
AcDbEntity
  8
Layer_1
 62
7
100
AcDbSpline
 70
8
 71
3
 72
8
 73
4
 74
0
 40
0
 40
0
 40
0
 40
0
 40
1
 40
1
 40
1
 40
1
 10
123.010682
 20
187.906870
 30
0.0
 10
122.638608
 20
187.906870
 30
0.0
 10
122.283076
 20
188.054323
 30
0.0
 10
122.021247
 20
188.317526
 30
0.0
  0
SPLINE
  5
1e0
100
AcDbEntity
  8
Layer_1
 62
7
100
AcDbSpline
 70
8
 71
3
 72
8
 73
4
 74
0
 40
0
 40
0
 40
0
 40
0
 40
1
 40
1
 40
1
 40
1
 10
122.021247
 20
188.317526
 30
0.0
 10
121.758044
 20
188.579355
 30
0.0
 10
121.610594
 20
188.936267
 30
0.0
 10
121.610594
 20
189.306958
 30
0.0
  0
SPLINE
  5
1e1
100
AcDbEntity
  8
Layer_1
 62
7
100
AcDbSpline
 70
8
 71
3
 72
8
 73
4
 74
0
 40
0
 40
0
 40
0
 40
0
 40
1
 40
1
 40
1
 40
1
 10
121.610594
 20
166.307498
 30
0.0
 10
121.610594
 20
166.678191
 30
0.0
 10
121.758044
 20
167.035103
 30
0.0
 10
122.019870
 20
167.296926
 30
0.0
  0
SPLINE
  5
1e2
100
AcDbEntity
  8
Layer_1
 62
7
100
AcDbSpline
 70
8
 71
3
 72
8
 73
4
 74
0
 40
0
 40
0
 40
0
 40
0
 40
1
 40
1
 40
1
 40
1
 10
122.021247
 20
167.296926
 30
0.0
 10
122.283076
 20
167.560135
 30
0.0
 10
122.639988
 20
167.707585
 30
0.0
 10
123.010682
 20
167.707585
 30
0.0
  0
SPLINE
  5
1e3
100
AcDbEntity
  8
Layer_1
 62
7
100
AcDbSpline
 70
8
 71
3
 72
8
 73
4
 74
0
 40
0
 40
0
 40
0
 40
0
 40
1
 40
1
 40
1
 40
1
 10
123.010682
 20
167.707585
 30
0.0
 10
123.381372
 20
167.707585
 30
0.0
 10
123.738284
 20
167.560135
 30
0.0
 10
124.000110
 20
167.296926
 30
0.0
  0
SPLINE
  5
1e4
100
AcDbEntity
  8
Layer_1
 62
7
100
AcDbSpline
 70
8
 71
3
 72
8
 73
4
 74
0
 40
0
 40
0
 40
0
 40
0
 40
1
 40
1
 40
1
 40
1
 10
124.000110
 20
167.296926
 30
0.0
 10
124.263317
 20
167.035103
 30
0.0
 10
124.410766
 20
166.678191
 30
0.0
 10
124.410766
 20
166.307498
 30
0.0
  0
SPLINE
  5
1e5
100
AcDbEntity
  8
Layer_1
 62
7
100
AcDbSpline
 70
8
 71
3
 72
8
 73
4
 74
0
 40
0
 40
0
 40
0
 40
0
 40
1
 40
1
 40
1
 40
1
 10
124.410766
 20
166.307498
 30
0.0
 10
124.410766
 20
165.935427
 30
0.0
 10
124.263317
 20
165.579895
 30
0.0
 10
124.000110
 20
165.318066
 30
0.0
  0
SPLINE
  5
1e6
100
AcDbEntity
  8
Layer_1
 62
7
100
AcDbSpline
 70
8
 71
3
 72
8
 73
4
 74
0
 40
0
 40
0
 40
0
 40
0
 40
1
 40
1
 40
1
 40
1
 10
124.000110
 20
165.318066
 30
0.0
 10
123.738284
 20
165.054860
 30
0.0
 10
123.381372
 20
164.907413
 30
0.0
 10
123.010682
 20
164.907413
 30
0.0
  0
SPLINE
  5
1e7
100
AcDbEntity
  8
Layer_1
 62
7
100
AcDbSpline
 70
8
 71
3
 72
8
 73
4
 74
0
 40
0
 40
0
 40
0
 40
0
 40
1
 40
1
 40
1
 40
1
 10
123.010682
 20
164.907413
 30
0.0
 10
122.638608
 20
164.907413
 30
0.0
 10
122.283076
 20
165.054860
 30
0.0
 10
122.021247
 20
165.318066
 30
0.0
  0
SPLINE
  5
1e8
100
AcDbEntity
  8
Layer_1
 62
7
100
AcDbSpline
 70
8
 71
3
 72
8
 73
4
 74
0
 40
0
 40
0
 40
0
 40
0
 40
1
 40
1
 40
1
 40
1
 10
122.021247
 20
165.318066
 30
0.0
 10
121.758044
 20
165.579895
 30
0.0
 10
121.610594
 20
165.936804
 30
0.0
 10
121.610594
 20
166.307498
 30
0.0
  0
SPLINE
  5
1e9
100
AcDbEntity
  8
Layer_1
 62
7
100
AcDbSpline
 70
8
 71
3
 72
8
 73
4
 74
0
 40
0
 40
0
 40
0
 40
0
 40
1
 40
1
 40
1
 40
1
 10
60.059796
 20
215.357706
 30
0.0
 10
60.059796
 20
214.943492
 30
0.0
 10
59.724009
 20
214.607706
 30
0.0
 10
59.309796
 20
214.607706
 30
0.0
  0
SPLINE
  5
1ea
100
AcDbEntity
  8
Layer_1
 62
7
100
AcDbSpline
 70
8
 71
3
 72
8
 73
4
 74
0
 40
0
 40
0
 40
0
 40
0
 40
1
 40
1
 40
1
 40
1
 10
59.309796
 20
214.607706
 30
0.0
 10
58.895582
 20
214.607706
 30
0.0
 10
58.559796
 20
214.943492
 30
0.0
 10
58.559796
 20
215.357706
 30
0.0
  0
SPLINE
  5
1eb
100
AcDbEntity
  8
Layer_1
 62
7
100
AcDbSpline
 70
8
 71
3
 72
8
 73
4
 74
0
 40
0
 40
0
 40
0
 40
0
 40
1
 40
1
 40
1
 40
1
 10
58.559796
 20
215.357706
 30
0.0
 10
58.559796
 20
215.771919
 30
0.0
 10
58.895582
 20
216.107706
 30
0.0
 10
59.309796
 20
216.107706
 30
0.0
  0
SPLINE
  5
1ec
100
AcDbEntity
  8
Layer_1
 62
7
100
AcDbSpline
 70
8
 71
3
 72
8
 73
4
 74
0
 40
0
 40
0
 40
0
 40
0
 40
1
 40
1
 40
1
 40
1
 10
59.309796
 20
216.107706
 30
0.0
 10
59.724009
 20
216.107706
 30
0.0
 10
60.059796
 20
215.771919
 30
0.0
 10
60.059796
 20
215.357706
 30
0.0
  0
LINE
  5
1ed
100
AcDbEntity
  8
Layer_1
 62
7
100
AcDbLine
 10
60.059796
 20
215.357706
 30
0.0
 11
60.059796
 21
215.357706
 31
0.0
  0
SPLINE
  5
1ee
100
AcDbEntity
  8
Layer_1
 62
7
100
AcDbSpline
 70
8
 71
3
 72
8
 73
4
 74
0
 40
0
 40
0
 40
0
 40
0
 40
1
 40
1
 40
1
 40
1
 10
60.059796
 20
155.258074
 30
0.0
 10
60.059796
 20
154.843861
 30
0.0
 10
59.724009
 20
154.508074
 30
0.0
 10
59.309796
 20
154.508074
 30
0.0
  0
SPLINE
  5
1ef
100
AcDbEntity
  8
Layer_1
 62
7
100
AcDbSpline
 70
8
 71
3
 72
8
 73
4
 74
0
 40
0
 40
0
 40
0
 40
0
 40
1
 40
1
 40
1
 40
1
 10
59.309796
 20
154.508074
 30
0.0
 10
58.895582
 20
154.508074
 30
0.0
 10
58.559796
 20
154.843861
 30
0.0
 10
58.559796
 20
155.258074
 30
0.0
  0
SPLINE
  5
1f0
100
AcDbEntity
  8
Layer_1
 62
7
100
AcDbSpline
 70
8
 71
3
 72
8
 73
4
 74
0
 40
0
 40
0
 40
0
 40
0
 40
1
 40
1
 40
1
 40
1
 10
58.559796
 20
155.258074
 30
0.0
 10
58.559796
 20
155.672288
 30
0.0
 10
58.895582
 20
156.008074
 30
0.0
 10
59.309796
 20
156.008074
 30
0.0
  0
SPLINE
  5
1f1
100
AcDbEntity
  8
Layer_1
 62
7
100
AcDbSpline
 70
8
 71
3
 72
8
 73
4
 74
0
 40
0
 40
0
 40
0
 40
0
 40
1
 40
1
 40
1
 40
1
 10
59.309796
 20
156.008074
 30
0.0
 10
59.724009
 20
156.008074
 30
0.0
 10
60.059796
 20
155.672288
 30
0.0
 10
60.059796
 20
155.258074
 30
0.0
  0
LINE
  5
1f2
100
AcDbEntity
  8
Layer_1
 62
7
100
AcDbLine
 10
60.059796
 20
155.258074
 30
0.0
 11
60.059796
 21
155.258074
 31
0.0
  0
LINE
  5
1f3
100
AcDbEntity
  8
Layer_1
 62
1
100
AcDbLine
 10
59.309796
 20
155.258077
 30
0.0
 11
59.309796
 21
215.357703
 31
0.0
  0
SPLINE
  5
1f4
100
AcDbEntity
  8
Layer_1
 62
7
100
AcDbSpline
 70
8
 71
3
 72
8
 73
4
 74
0
 40
0
 40
0
 40
0
 40
0
 40
1
 40
1
 40
1
 40
1
 10
61.220330
 20
88.979117
 30
0.0
 10
60.848263
 20
88.979117
 30
0.0
 10
60.492727
 20
88.831667
 30
0.0
 10
60.230901
 20
88.569841
 30
0.0
  0
SPLINE
  5
1f5
100
AcDbEntity
  8
Layer_1
 62
7
100
AcDbSpline
 70
8
 71
3
 72
8
 73
4
 74
0
 40
0
 40
0
 40
0
 40
0
 40
1
 40
1
 40
1
 40
1
 10
60.229521
 20
88.569841
 30
0.0
 10
59.967695
 20
88.306635
 30
0.0
 10
59.820246
 20
87.951100
 30
0.0
 10
59.820246
 20
87.579029
 30
0.0
  0
SPLINE
  5
1f6
100
AcDbEntity
  8
Layer_1
 62
7
100
AcDbSpline
 70
8
 71
3
 72
8
 73
4
 74
0
 40
0
 40
0
 40
0
 40
0
 40
1
 40
1
 40
1
 40
1
 10
59.820246
 20
87.579029
 30
0.0
 10
59.820246
 20
87.208339
 30
0.0
 10
59.967695
 20
86.851426
 30
0.0
 10
60.229521
 20
86.589600
 30
0.0
  0
SPLINE
  5
1f7
100
AcDbEntity
  8
Layer_1
 62
7
100
AcDbSpline
 70
8
 71
3
 72
8
 73
4
 74
0
 40
0
 40
0
 40
0
 40
0
 40
1
 40
1
 40
1
 40
1
 10
60.229521
 20
86.589600
 30
0.0
 10
60.492727
 20
86.326394
 30
0.0
 10
60.849640
 20
86.178942
 30
0.0
 10
61.220333
 20
86.178942
 30
0.0
  0
SPLINE
  5
1f8
100
AcDbEntity
  8
Layer_1
 62
7
100
AcDbSpline
 70
8
 71
3
 72
8
 73
4
 74
0
 40
0
 40
0
 40
0
 40
0
 40
1
 40
1
 40
1
 40
1
 10
61.220330
 20
86.178942
 30
0.0
 10
61.591023
 20
86.178942
 30
0.0
 10
61.947936
 20
86.326394
 30
0.0
 10
62.209762
 20
86.589600
 30
0.0
  0
SPLINE
  5
1f9
100
AcDbEntity
  8
Layer_1
 62
7
100
AcDbSpline
 70
8
 71
3
 72
8
 73
4
 74
0
 40
0
 40
0
 40
0
 40
0
 40
1
 40
1
 40
1
 40
1
 10
62.209762
 20
86.589600
 30
0.0
 10
62.472968
 20
86.851426
 30
0.0
 10
62.620418
 20
87.208339
 30
0.0
 10
62.620418
 20
87.579029
 30
0.0
  0
SPLINE
  5
1fa
100
AcDbEntity
  8
Layer_1
 62
7
100
AcDbSpline
 70
8
 71
3
 72
8
 73
4
 74
0
 40
0
 40
0
 40
0
 40
0
 40
1
 40
1
 40
1
 40
1
 10
62.620418
 20
87.579029
 30
0.0
 10
62.620418
 20
87.951100
 30
0.0
 10
62.472968
 20
88.306635
 30
0.0
 10
62.209762
 20
88.569841
 30
0.0
  0
SPLINE
  5
1fb
100
AcDbEntity
  8
Layer_1
 62
7
100
AcDbSpline
 70
8
 71
3
 72
8
 73
4
 74
0
 40
0
 40
0
 40
0
 40
0
 40
1
 40
1
 40
1
 40
1
 10
62.209762
 20
88.569841
 30
0.0
 10
61.947936
 20
88.831667
 30
0.0
 10
61.591023
 20
88.979117
 30
0.0
 10
61.220330
 20
88.979117
 30
0.0
  0
SPLINE
  5
1fc
100
AcDbEntity
  8
Layer_1
 62
7
100
AcDbSpline
 70
8
 71
3
 72
8
 73
4
 74
0
 40
0
 40
0
 40
0
 40
0
 40
1
 40
1
 40
1
 40
1
 10
38.220876
 20
88.979117
 30
0.0
 10
37.848805
 20
88.979117
 30
0.0
 10
37.493270
 20
88.831667
 30
0.0
 10
37.230064
 20
88.569841
 30
0.0
  0
SPLINE
  5
1fd
100
AcDbEntity
  8
Layer_1
 62
7
100
AcDbSpline
 70
8
 71
3
 72
8
 73
4
 74
0
 40
0
 40
0
 40
0
 40
0
 40
1
 40
1
 40
1
 40
1
 10
37.230064
 20
88.569841
 30
0.0
 10
36.968238
 20
88.306635
 30
0.0
 10
36.820788
 20
87.951100
 30
0.0
 10
36.820788
 20
87.579029
 30
0.0
  0
SPLINE
  5
1fe
100
AcDbEntity
  8
Layer_1
 62
7
100
AcDbSpline
 70
8
 71
3
 72
8
 73
4
 74
0
 40
0
 40
0
 40
0
 40
0
 40
1
 40
1
 40
1
 40
1
 10
36.820788
 20
87.579029
 30
0.0
 10
36.820788
 20
87.208339
 30
0.0
 10
36.968238
 20
86.851426
 30
0.0
 10
37.230064
 20
86.589600
 30
0.0
  0
SPLINE
  5
1ff
100
AcDbEntity
  8
Layer_1
 62
7
100
AcDbSpline
 70
8
 71
3
 72
8
 73
4
 74
0
 40
0
 40
0
 40
0
 40
0
 40
1
 40
1
 40
1
 40
1
 10
37.230064
 20
86.589600
 30
0.0
 10
37.493270
 20
86.326394
 30
0.0
 10
37.848805
 20
86.178942
 30
0.0
 10
38.219496
 20
86.178942
 30
0.0
  0
SPLINE
  5
200
100
AcDbEntity
  8
Layer_1
 62
7
100
AcDbSpline
 70
8
 71
3
 72
8
 73
4
 74
0
 40
0
 40
0
 40
0
 40
0
 40
1
 40
1
 40
1
 40
1
 10
38.220876
 20
86.178942
 30
0.0
 10
38.591566
 20
86.178942
 30
0.0
 10
38.947101
 20
86.326394
 30
0.0
 10
39.210307
 20
86.589600
 30
0.0
  0
SPLINE
  5
201
100
AcDbEntity
  8
Layer_1
 62
7
100
AcDbSpline
 70
8
 71
3
 72
8
 73
4
 74
0
 40
0
 40
0
 40
0
 40
0
 40
1
 40
1
 40
1
 40
1
 10
39.210307
 20
86.589600
 30
0.0
 10
39.472133
 20
86.851426
 30
0.0
 10
39.619583
 20
87.208339
 30
0.0
 10
39.619583
 20
87.579029
 30
0.0
  0
SPLINE
  5
202
100
AcDbEntity
  8
Layer_1
 62
7
100
AcDbSpline
 70
8
 71
3
 72
8
 73
4
 74
0
 40
0
 40
0
 40
0
 40
0
 40
1
 40
1
 40
1
 40
1
 10
39.619583
 20
87.579029
 30
0.0
 10
39.619583
 20
87.951100
 30
0.0
 10
39.472133
 20
88.306635
 30
0.0
 10
39.210307
 20
88.569841
 30
0.0
  0
SPLINE
  5
203
100
AcDbEntity
  8
Layer_1
 62
7
100
AcDbSpline
 70
8
 71
3
 72
8
 73
4
 74
0
 40
0
 40
0
 40
0
 40
0
 40
1
 40
1
 40
1
 40
1
 10
39.210307
 20
88.569841
 30
0.0
 10
38.947101
 20
88.831667
 30
0.0
 10
38.591566
 20
88.979117
 30
0.0
 10
38.220876
 20
88.979117
 30
0.0
  0
SPLINE
  5
204
100
AcDbEntity
  8
Layer_1
 62
7
100
AcDbSpline
 70
8
 71
3
 72
8
 73
4
 74
0
 40
0
 40
0
 40
0
 40
0
 40
1
 40
1
 40
1
 40
1
 10
38.220876
 20
146.979373
 30
0.0
 10
37.848805
 20
146.979373
 30
0.0
 10
37.493270
 20
146.831921
 30
0.0
 10
37.230064
 20
146.568717
 30
0.0
  0
SPLINE
  5
205
100
AcDbEntity
  8
Layer_1
 62
7
100
AcDbSpline
 70
8
 71
3
 72
8
 73
4
 74
0
 40
0
 40
0
 40
0
 40
0
 40
1
 40
1
 40
1
 40
1
 10
37.230064
 20
146.568717
 30
0.0
 10
36.968238
 20
146.306888
 30
0.0
 10
36.820788
 20
145.949976
 30
0.0
 10
36.820788
 20
145.579286
 30
0.0
  0
SPLINE
  5
206
100
AcDbEntity
  8
Layer_1
 62
7
100
AcDbSpline
 70
8
 71
3
 72
8
 73
4
 74
0
 40
0
 40
0
 40
0
 40
0
 40
1
 40
1
 40
1
 40
1
 10
36.820788
 20
145.579286
 30
0.0
 10
36.820788
 20
145.207215
 30
0.0
 10
36.968238
 20
144.851680
 30
0.0
 10
37.230064
 20
144.589854
 30
0.0
  0
SPLINE
  5
207
100
AcDbEntity
  8
Layer_1
 62
7
100
AcDbSpline
 70
8
 71
3
 72
8
 73
4
 74
0
 40
0
 40
0
 40
0
 40
0
 40
1
 40
1
 40
1
 40
1
 10
37.230064
 20
144.589854
 30
0.0
 10
37.493270
 20
144.326648
 30
0.0
 10
37.848805
 20
144.179198
 30
0.0
 10
38.219496
 20
144.179198
 30
0.0
  0
SPLINE
  5
208
100
AcDbEntity
  8
Layer_1
 62
7
100
AcDbSpline
 70
8
 71
3
 72
8
 73
4
 74
0
 40
0
 40
0
 40
0
 40
0
 40
1
 40
1
 40
1
 40
1
 10
38.220876
 20
144.179198
 30
0.0
 10
38.591566
 20
144.179198
 30
0.0
 10
38.947101
 20
144.326648
 30
0.0
 10
39.210307
 20
144.589854
 30
0.0
  0
SPLINE
  5
209
100
AcDbEntity
  8
Layer_1
 62
7
100
AcDbSpline
 70
8
 71
3
 72
8
 73
4
 74
0
 40
0
 40
0
 40
0
 40
0
 40
1
 40
1
 40
1
 40
1
 10
39.210307
 20
144.589854
 30
0.0
 10
39.472133
 20
144.851680
 30
0.0
 10
39.619583
 20
145.208592
 30
0.0
 10
39.619583
 20
145.579286
 30
0.0
  0
SPLINE
  5
20a
100
AcDbEntity
  8
Layer_1
 62
7
100
AcDbSpline
 70
8
 71
3
 72
8
 73
4
 74
0
 40
0
 40
0
 40
0
 40
0
 40
1
 40
1
 40
1
 40
1
 10
39.619583
 20
145.579286
 30
0.0
 10
39.619583
 20
145.949976
 30
0.0
 10
39.472133
 20
146.306888
 30
0.0
 10
39.210307
 20
146.568717
 30
0.0
  0
SPLINE
  5
20b
100
AcDbEntity
  8
Layer_1
 62
7
100
AcDbSpline
 70
8
 71
3
 72
8
 73
4
 74
0
 40
0
 40
0
 40
0
 40
0
 40
1
 40
1
 40
1
 40
1
 10
39.210307
 20
146.568717
 30
0.0
 10
38.947101
 20
146.831921
 30
0.0
 10
38.591566
 20
146.979373
 30
0.0
 10
38.220876
 20
146.979373
 30
0.0
  0
SPLINE
  5
20c
100
AcDbEntity
  8
Layer_1
 62
7
100
AcDbSpline
 70
8
 71
3
 72
8
 73
4
 74
0
 40
0
 40
0
 40
0
 40
0
 40
1
 40
1
 40
1
 40
1
 10
61.220330
 20
146.979373
 30
0.0
 10
60.848263
 20
146.979373
 30
0.0
 10
60.492727
 20
146.831921
 30
0.0
 10
60.230901
 20
146.568717
 30
0.0
  0
SPLINE
  5
20d
100
AcDbEntity
  8
Layer_1
 62
7
100
AcDbSpline
 70
8
 71
3
 72
8
 73
4
 74
0
 40
0
 40
0
 40
0
 40
0
 40
1
 40
1
 40
1
 40
1
 10
60.229521
 20
146.568717
 30
0.0
 10
59.967695
 20
146.306888
 30
0.0
 10
59.820246
 20
145.949976
 30
0.0
 10
59.820246
 20
145.579286
 30
0.0
  0
SPLINE
  5
20e
100
AcDbEntity
  8
Layer_1
 62
7
100
AcDbSpline
 70
8
 71
3
 72
8
 73
4
 74
0
 40
0
 40
0
 40
0
 40
0
 40
1
 40
1
 40
1
 40
1
 10
59.820246
 20
145.579286
 30
0.0
 10
59.820246
 20
145.207215
 30
0.0
 10
59.967695
 20
144.851680
 30
0.0
 10
60.229521
 20
144.589854
 30
0.0
  0
SPLINE
  5
20f
100
AcDbEntity
  8
Layer_1
 62
7
100
AcDbSpline
 70
8
 71
3
 72
8
 73
4
 74
0
 40
0
 40
0
 40
0
 40
0
 40
1
 40
1
 40
1
 40
1
 10
60.229521
 20
144.589854
 30
0.0
 10
60.492727
 20
144.326648
 30
0.0
 10
60.849640
 20
144.179198
 30
0.0
 10
61.220333
 20
144.179198
 30
0.0
  0
SPLINE
  5
210
100
AcDbEntity
  8
Layer_1
 62
7
100
AcDbSpline
 70
8
 71
3
 72
8
 73
4
 74
0
 40
0
 40
0
 40
0
 40
0
 40
1
 40
1
 40
1
 40
1
 10
61.220330
 20
144.179198
 30
0.0
 10
61.591023
 20
144.179198
 30
0.0
 10
61.947936
 20
144.326648
 30
0.0
 10
62.209762
 20
144.589854
 30
0.0
  0
SPLINE
  5
211
100
AcDbEntity
  8
Layer_1
 62
7
100
AcDbSpline
 70
8
 71
3
 72
8
 73
4
 74
0
 40
0
 40
0
 40
0
 40
0
 40
1
 40
1
 40
1
 40
1
 10
62.209762
 20
144.589854
 30
0.0
 10
62.472968
 20
144.851680
 30
0.0
 10
62.620418
 20
145.208592
 30
0.0
 10
62.620418
 20
145.579286
 30
0.0
  0
SPLINE
  5
212
100
AcDbEntity
  8
Layer_1
 62
7
100
AcDbSpline
 70
8
 71
3
 72
8
 73
4
 74
0
 40
0
 40
0
 40
0
 40
0
 40
1
 40
1
 40
1
 40
1
 10
62.620418
 20
145.579286
 30
0.0
 10
62.620418
 20
145.949976
 30
0.0
 10
62.472968
 20
146.306888
 30
0.0
 10
62.209762
 20
146.568717
 30
0.0
  0
SPLINE
  5
213
100
AcDbEntity
  8
Layer_1
 62
7
100
AcDbSpline
 70
8
 71
3
 72
8
 73
4
 74
0
 40
0
 40
0
 40
0
 40
0
 40
1
 40
1
 40
1
 40
1
 10
62.209762
 20
146.568717
 30
0.0
 10
61.947936
 20
146.831921
 30
0.0
 10
61.591023
 20
146.979373
 30
0.0
 10
61.220330
 20
146.979373
 30
0.0
  0
SPLINE
  5
214
100
AcDbEntity
  8
Layer_1
 62
7
100
AcDbSpline
 70
8
 71
3
 72
8
 73
4
 74
0
 40
0
 40
0
 40
0
 40
0
 40
1
 40
1
 40
1
 40
1
 10
77.220733
 20
142.638550
 30
0.0
 10
77.220733
 20
141.753851
 30
0.0
 10
77.937315
 20
141.038649
 30
0.0
 10
78.820637
 20
141.038649
 30
0.0
  0
SPLINE
  5
215
100
AcDbEntity
  8
Layer_1
 62
7
100
AcDbSpline
 70
8
 71
3
 72
8
 73
4
 74
0
 40
0
 40
0
 40
0
 40
0
 40
1
 40
1
 40
1
 40
1
 10
78.820637
 20
141.038649
 30
0.0
 10
79.703958
 20
141.038649
 30
0.0
 10
80.420537
 20
141.755231
 30
0.0
 10
80.420537
 20
142.638550
 30
0.0
  0
SPLINE
  5
216
100
AcDbEntity
  8
Layer_1
 62
7
100
AcDbSpline
 70
8
 71
3
 72
8
 73
4
 74
0
 40
0
 40
0
 40
0
 40
0
 40
1
 40
1
 40
1
 40
1
 10
80.420537
 20
142.638550
 30
0.0
 10
80.420537
 20
143.521874
 30
0.0
 10
79.703958
 20
144.238454
 30
0.0
 10
78.820637
 20
144.238454
 30
0.0
  0
SPLINE
  5
217
100
AcDbEntity
  8
Layer_1
 62
7
100
AcDbSpline
 70
8
 71
3
 72
8
 73
4
 74
0
 40
0
 40
0
 40
0
 40
0
 40
1
 40
1
 40
1
 40
1
 10
78.820637
 20
144.238454
 30
0.0
 10
77.937315
 20
144.238454
 30
0.0
 10
77.220733
 20
143.521874
 30
0.0
 10
77.220733
 20
142.638550
 30
0.0
  0
SPLINE
  5
218
100
AcDbEntity
  8
Layer_1
 62
7
100
AcDbSpline
 70
8
 71
3
 72
8
 73
4
 74
0
 40
0
 40
0
 40
0
 40
0
 40
1
 40
1
 40
1
 40
1
 10
77.220733
 20
90.638276
 30
0.0
 10
77.220733
 20
89.754954
 30
0.0
 10
77.937315
 20
89.038372
 30
0.0
 10
78.820637
 20
89.038372
 30
0.0
  0
SPLINE
  5
219
100
AcDbEntity
  8
Layer_1
 62
7
100
AcDbSpline
 70
8
 71
3
 72
8
 73
4
 74
0
 40
0
 40
0
 40
0
 40
0
 40
1
 40
1
 40
1
 40
1
 10
78.820637
 20
89.038372
 30
0.0
 10
79.703958
 20
89.038372
 30
0.0
 10
80.420537
 20
89.754954
 30
0.0
 10
80.420537
 20
90.638276
 30
0.0
  0
SPLINE
  5
21a
100
AcDbEntity
  8
Layer_1
 62
7
100
AcDbSpline
 70
8
 71
3
 72
8
 73
4
 74
0
 40
0
 40
0
 40
0
 40
0
 40
1
 40
1
 40
1
 40
1
 10
80.420537
 20
90.638276
 30
0.0
 10
80.420537
 20
91.521597
 30
0.0
 10
79.703958
 20
92.238177
 30
0.0
 10
78.820637
 20
92.238177
 30
0.0
  0
SPLINE
  5
21b
100
AcDbEntity
  8
Layer_1
 62
7
100
AcDbSpline
 70
8
 71
3
 72
8
 73
4
 74
0
 40
0
 40
0
 40
0
 40
0
 40
1
 40
1
 40
1
 40
1
 10
78.820637
 20
92.238177
 30
0.0
 10
77.937315
 20
92.238177
 30
0.0
 10
77.220733
 20
91.521597
 30
0.0
 10
77.220733
 20
90.638276
 30
0.0
  0
SPLINE
  5
21c
100
AcDbEntity
  8
Layer_1
 62
7
100
AcDbSpline
 70
8
 71
3
 72
8
 73
4
 74
0
 40
0
 40
0
 40
0
 40
0
 40
1
 40
1
 40
1
 40
1
 10
82.232658
 20
126.638147
 30
0.0
 10
82.232658
 20
128.023077
 30
0.0
 10
83.348870
 20
129.137911
 30
0.0
 10
84.733802
 20
129.137911
 30
0.0
  0
LINE
  5
21d
100
AcDbEntity
  8
Layer_1
 62
7
100
AcDbLine
 10
84.733802
 20
129.137911
 30
0.0
 11
89.733320
 21
129.137911
 31
0.0
  0
SPLINE
  5
21e
100
AcDbEntity
  8
Layer_1
 62
7
100
AcDbSpline
 70
8
 71
3
 72
8
 73
4
 74
0
 40
0
 40
0
 40
0
 40
0
 40
1
 40
1
 40
1
 40
1
 10
89.733320
 20
129.137911
 30
0.0
 10
91.118250
 20
129.137911
 30
0.0
 10
92.233084
 20
128.023077
 30
0.0
 10
92.233084
 20
126.638147
 30
0.0
  0
LINE
  5
21f
100
AcDbEntity
  8
Layer_1
 62
7
100
AcDbLine
 10
92.233084
 20
126.638147
 30
0.0
 11
92.233084
 21
106.638678
 31
0.0
  0
SPLINE
  5
220
100
AcDbEntity
  8
Layer_1
 62
7
100
AcDbSpline
 70
8
 71
3
 72
8
 73
4
 74
0
 40
0
 40
0
 40
0
 40
0
 40
1
 40
1
 40
1
 40
1
 10
92.233084
 20
106.638678
 30
0.0
 10
92.233084
 20
105.253752
 30
0.0
 10
91.118250
 20
104.138918
 30
0.0
 10
89.733320
 20
104.138918
 30
0.0
  0
LINE
  5
221
100
AcDbEntity
  8
Layer_1
 62
7
100
AcDbLine
 10
89.733320
 20
104.138918
 30
0.0
 11
84.733802
 21
104.138918
 31
0.0
  0
SPLINE
  5
222
100
AcDbEntity
  8
Layer_1
 62
7
100
AcDbSpline
 70
8
 71
3
 72
8
 73
4
 74
0
 40
0
 40
0
 40
0
 40
0
 40
1
 40
1
 40
1
 40
1
 10
84.733802
 20
104.138918
 30
0.0
 10
83.348870
 20
104.138918
 30
0.0
 10
82.232658
 20
105.253752
 30
0.0
 10
82.232658
 20
106.638678
 30
0.0
  0
LINE
  5
223
100
AcDbEntity
  8
Layer_1
 62
7
100
AcDbLine
 10
82.232658
 20
106.638678
 30
0.0
 11
82.232658
 21
126.638147
 31
0.0
  0
SPLINE
  5
224
100
AcDbEntity
  8
Layer_1
 62
7
100
AcDbSpline
 70
8
 71
3
 72
8
 73
4
 74
0
 40
0
 40
0
 40
0
 40
0
 40
1
 40
1
 40
1
 40
1
 10
131.169554
 20
142.638550
 30
0.0
 10
131.169554
 20
141.753851
 30
0.0
 10
130.452975
 20
141.038649
 30
0.0
 10
129.569656
 20
141.038649
 30
0.0
  0
SPLINE
  5
225
100
AcDbEntity
  8
Layer_1
 62
7
100
AcDbSpline
 70
8
 71
3
 72
8
 73
4
 74
0
 40
0
 40
0
 40
0
 40
0
 40
1
 40
1
 40
1
 40
1
 10
129.569656
 20
141.038649
 30
0.0
 10
128.686331
 20
141.038649
 30
0.0
 10
127.969752
 20
141.755231
 30
0.0
 10
127.969752
 20
142.638550
 30
0.0
  0
SPLINE
  5
226
100
AcDbEntity
  8
Layer_1
 62
7
100
AcDbSpline
 70
8
 71
3
 72
8
 73
4
 74
0
 40
0
 40
0
 40
0
 40
0
 40
1
 40
1
 40
1
 40
1
 10
127.969752
 20
142.638550
 30
0.0
 10
127.969752
 20
143.521874
 30
0.0
 10
128.686331
 20
144.238454
 30
0.0
 10
129.569656
 20
144.238454
 30
0.0
  0
SPLINE
  5
227
100
AcDbEntity
  8
Layer_1
 62
7
100
AcDbSpline
 70
8
 71
3
 72
8
 73
4
 74
0
 40
0
 40
0
 40
0
 40
0
 40
1
 40
1
 40
1
 40
1
 10
129.569656
 20
144.238454
 30
0.0
 10
130.452975
 20
144.238454
 30
0.0
 10
131.169554
 20
143.521874
 30
0.0
 10
131.169554
 20
142.638550
 30
0.0
  0
SPLINE
  5
228
100
AcDbEntity
  8
Layer_1
 62
7
100
AcDbSpline
 70
8
 71
3
 72
8
 73
4
 74
0
 40
0
 40
0
 40
0
 40
0
 40
1
 40
1
 40
1
 40
1
 10
131.169554
 20
90.638276
 30
0.0
 10
131.169554
 20
89.754954
 30
0.0
 10
130.452975
 20
89.038372
 30
0.0
 10
129.569656
 20
89.038372
 30
0.0
  0
SPLINE
  5
229
100
AcDbEntity
  8
Layer_1
 62
7
100
AcDbSpline
 70
8
 71
3
 72
8
 73
4
 74
0
 40
0
 40
0
 40
0
 40
0
 40
1
 40
1
 40
1
 40
1
 10
129.569656
 20
89.038372
 30
0.0
 10
128.686331
 20
89.038372
 30
0.0
 10
127.969752
 20
89.754954
 30
0.0
 10
127.969752
 20
90.638276
 30
0.0
  0
SPLINE
  5
22a
100
AcDbEntity
  8
Layer_1
 62
7
100
AcDbSpline
 70
8
 71
3
 72
8
 73
4
 74
0
 40
0
 40
0
 40
0
 40
0
 40
1
 40
1
 40
1
 40
1
 10
127.969752
 20
90.638276
 30
0.0
 10
127.969752
 20
91.521597
 30
0.0
 10
128.686331
 20
92.238177
 30
0.0
 10
129.569656
 20
92.238177
 30
0.0
  0
SPLINE
  5
22b
100
AcDbEntity
  8
Layer_1
 62
7
100
AcDbSpline
 70
8
 71
3
 72
8
 73
4
 74
0
 40
0
 40
0
 40
0
 40
0
 40
1
 40
1
 40
1
 40
1
 10
129.569656
 20
92.238177
 30
0.0
 10
130.452975
 20
92.238177
 30
0.0
 10
131.169554
 20
91.521597
 30
0.0
 10
131.169554
 20
90.638276
 30
0.0
  0
SPLINE
  5
22c
100
AcDbEntity
  8
Layer_1
 62
7
100
AcDbSpline
 70
8
 71
3
 72
8
 73
4
 74
0
 40
0
 40
0
 40
0
 40
0
 40
1
 40
1
 40
1
 40
1
 10
131.569172
 20
154.138281
 30
0.0
 10
132.677120
 20
154.138281
 30
0.0
 10
133.570099
 20
153.246688
 30
0.0
 10
133.570099
 20
152.138748
 30
0.0
  0
LINE
  5
22d
100
AcDbEntity
  8
Layer_1
 62
7
100
AcDbLine
 10
133.570099
 20
152.138748
 30
0.0
 11
133.570099
 21
81.138080
 31
0.0
  0
SPLINE
  5
22e
100
AcDbEntity
  8
Layer_1
 62
7
100
AcDbSpline
 70
8
 71
3
 72
8
 73
4
 74
0
 40
0
 40
0
 40
0
 40
0
 40
1
 40
1
 40
1
 40
1
 10
133.570099
 20
81.138080
 30
0.0
 10
133.570099
 20
80.030138
 30
0.0
 10
132.677120
 20
79.138544
 30
0.0
 10
131.569172
 20
79.138544
 30
0.0
  0
LINE
  5
22f
100
AcDbEntity
  8
Layer_1
 62
7
100
AcDbLine
 10
131.569172
 20
79.138544
 30
0.0
 11
26.070698
 21
79.138544
 31
0.0
  0
SPLINE
  5
230
100
AcDbEntity
  8
Layer_1
 62
7
100
AcDbSpline
 70
8
 71
3
 72
8
 73
4
 74
0
 40
0
 40
0
 40
0
 40
0
 40
1
 40
1
 40
1
 40
1
 10
26.070698
 20
79.138544
 30
0.0
 10
24.962756
 20
79.138544
 30
0.0
 10
24.071168
 20
80.030138
 30
0.0
 10
24.071168
 20
81.138080
 30
0.0
  0
LINE
  5
231
100
AcDbEntity
  8
Layer_1
 62
7
100
AcDbLine
 10
24.071168
 20
81.138080
 30
0.0
 11
24.071168
 21
152.138748
 31
0.0
  0
SPLINE
  5
232
100
AcDbEntity
  8
Layer_1
 62
7
100
AcDbSpline
 70
8
 71
3
 72
8
 73
4
 74
0
 40
0
 40
0
 40
0
 40
0
 40
1
 40
1
 40
1
 40
1
 10
24.071168
 20
152.138748
 30
0.0
 10
24.071168
 20
153.246688
 30
0.0
 10
24.962756
 20
154.138281
 30
0.0
 10
26.070698
 20
154.138281
 30
0.0
  0
LINE
  5
233
100
AcDbEntity
  8
Layer_1
 62
7
100
AcDbLine
 10
26.070698
 20
154.138281
 30
0.0
 11
131.569172
 21
154.138281
 31
0.0
  0
SPLINE
  5
234
100
AcDbEntity
  8
Layer_1
 62
7
100
AcDbSpline
 70
8
 71
3
 72
8
 73
4
 74
0
 40
0
 40
0
 40
0
 40
0
 40
1
 40
1
 40
1
 40
1
 10
26.471723
 20
142.638550
 30
0.0
 10
26.471723
 20
141.753851
 30
0.0
 10
27.188303
 20
141.038649
 30
0.0
 10
28.071621
 20
141.038649
 30
0.0
  0
SPLINE
  5
235
100
AcDbEntity
  8
Layer_1
 62
7
100
AcDbSpline
 70
8
 71
3
 72
8
 73
4
 74
0
 40
0
 40
0
 40
0
 40
0
 40
1
 40
1
 40
1
 40
1
 10
28.071621
 20
141.038649
 30
0.0
 10
28.954944
 20
141.038649
 30
0.0
 10
29.671524
 20
141.755231
 30
0.0
 10
29.671524
 20
142.638550
 30
0.0
  0
SPLINE
  5
236
100
AcDbEntity
  8
Layer_1
 62
7
100
AcDbSpline
 70
8
 71
3
 72
8
 73
4
 74
0
 40
0
 40
0
 40
0
 40
0
 40
1
 40
1
 40
1
 40
1
 10
29.671524
 20
142.638550
 30
0.0
 10
29.671524
 20
143.521874
 30
0.0
 10
28.954944
 20
144.238454
 30
0.0
 10
28.071621
 20
144.238454
 30
0.0
  0
SPLINE
  5
237
100
AcDbEntity
  8
Layer_1
 62
7
100
AcDbSpline
 70
8
 71
3
 72
8
 73
4
 74
0
 40
0
 40
0
 40
0
 40
0
 40
1
 40
1
 40
1
 40
1
 10
28.071621
 20
144.238454
 30
0.0
 10
27.188303
 20
144.238454
 30
0.0
 10
26.471723
 20
143.521874
 30
0.0
 10
26.471723
 20
142.638550
 30
0.0
  0
SPLINE
  5
238
100
AcDbEntity
  8
Layer_1
 62
7
100
AcDbSpline
 70
8
 71
3
 72
8
 73
4
 74
0
 40
0
 40
0
 40
0
 40
0
 40
1
 40
1
 40
1
 40
1
 10
26.471723
 20
90.638276
 30
0.0
 10
26.471723
 20
89.754954
 30
0.0
 10
27.188303
 20
89.038372
 30
0.0
 10
28.071621
 20
89.038372
 30
0.0
  0
SPLINE
  5
239
100
AcDbEntity
  8
Layer_1
 62
7
100
AcDbSpline
 70
8
 71
3
 72
8
 73
4
 74
0
 40
0
 40
0
 40
0
 40
0
 40
1
 40
1
 40
1
 40
1
 10
28.071621
 20
89.038372
 30
0.0
 10
28.954944
 20
89.038372
 30
0.0
 10
29.671524
 20
89.754954
 30
0.0
 10
29.671524
 20
90.638276
 30
0.0
  0
SPLINE
  5
23a
100
AcDbEntity
  8
Layer_1
 62
7
100
AcDbSpline
 70
8
 71
3
 72
8
 73
4
 74
0
 40
0
 40
0
 40
0
 40
0
 40
1
 40
1
 40
1
 40
1
 10
29.671524
 20
90.638276
 30
0.0
 10
29.671524
 20
91.521597
 30
0.0
 10
28.954944
 20
92.238177
 30
0.0
 10
28.071621
 20
92.238177
 30
0.0
  0
SPLINE
  5
23b
100
AcDbEntity
  8
Layer_1
 62
7
100
AcDbSpline
 70
8
 71
3
 72
8
 73
4
 74
0
 40
0
 40
0
 40
0
 40
0
 40
1
 40
1
 40
1
 40
1
 10
28.071621
 20
92.238177
 30
0.0
 10
27.188303
 20
92.238177
 30
0.0
 10
26.471723
 20
91.521597
 30
0.0
 10
26.471723
 20
90.638276
 30
0.0
  0
ENDSEC
  0
SECTION
  2
OBJECTS
  0
DICTIONARY
  5
C
330
0
100
AcDbDictionary
  3
ACAD_GROUP
350
D
  3
ACAD_MLINESTYLE
350
17
  0
DICTIONARY
  5
D
330
C
100
AcDbDictionary
  0
DICTIONARY
  5
1A
330
C
100
AcDbDictionary
  0
DICTIONARY
  5
17
330
C
100
AcDbDictionary
  3
STANDARD
350
18
  0
DICTIONARY
  5
19
330
C
100
AcDbDictionary
  0
ENDSEC
  0
EOF
