<?xml version="1.0" encoding="UTF-8" standalone="no"?>
<!-- 2016-10-25 20:18:32 Generated by QCAD SVG Exporter -->

<svg
   xmlns:dc="http://purl.org/dc/elements/1.1/"
   xmlns:cc="http://creativecommons.org/ns#"
   xmlns:rdf="http://www.w3.org/1999/02/22-rdf-syntax-ns#"
   xmlns:svg="http://www.w3.org/2000/svg"
   xmlns="http://www.w3.org/2000/svg"
   xmlns:sodipodi="http://sodipodi.sourceforge.net/DTD/sodipodi-0.dtd"
   xmlns:inkscape="http://www.inkscape.org/namespaces/inkscape"
   width="297mm"
   height="210mm"
   viewBox="3.5017729e-007 -2 297 210"
   version="1.1"
   style="fill:none;stroke-linecap:round;stroke-linejoin:round"
   id="svg2"
   inkscape:version="0.91 r13725"
   sodipodi:docname="microSD-saver.svg">
  <metadata
     id="metadata16">
    <rdf:RDF>
      <cc:Work
         rdf:about="">
        <dc:format>image/svg+xml</dc:format>
        <dc:type
           rdf:resource="http://purl.org/dc/dcmitype/StillImage" />
        <dc:title></dc:title>
      </cc:Work>
    </rdf:RDF>
  </metadata>
  <defs
     id="defs14" />
  <sodipodi:namedview
     pagecolor="#ffffff"
     bordercolor="#666666"
     borderopacity="1"
     objecttolerance="10"
     gridtolerance="10"
     guidetolerance="10"
     inkscape:pageopacity="0"
     inkscape:pageshadow="2"
     inkscape:window-width="1920"
     inkscape:window-height="1057"
     id="namedview12"
     showgrid="false"
     inkscape:document-units="mm"
     inkscape:zoom="2.7093333"
     inkscape:cx="53.149606"
     inkscape:cy="23.031496"
     inkscape:window-x="-8"
     inkscape:window-y="-8"
     inkscape:window-maximized="1"
     inkscape:current-layer="svg2" />
  <g
     transform="matrix(1,0,0,-1,5.5208335,190.75)"
     id="g4">
    <!-- Polyline -->
    <path
       d="M 27,2 3.0000004,2 C 1.3431461,2 3.5017729e-7,0.65685428 3.5017729e-7,-0.99999997 l 0,-8.50000003 C 3.5017729e-7,-10.328427 0.67157323,-11 1.5000004,-11 l 3.5,0 c 0.8284271,0 1.5,0.671573 1.5,1.5 l 0,7.5 c 0,0.5522848 0.4477152,1.00000003 1,1.00000003 l 14.9999996,0 c 0.552285,0 1,-0.44771523 1,-1.00000003 l 0,-7.5 c 0,-0.828427 0.671573,-1.5 1.5,-1.5 l 3.5,0 c 0.828427,0 1.5,0.671573 1.5,1.5 l 0,8.50000003 C 30,0.65685428 28.656855,2 27,2"
       style="stroke:#000000;stroke-width:0"
       id="path6"
       inkscape:connector-curvature="0" />
    <!-- Circle -->
    <circle
       cx="3.5000002"
       cy="-8"
       r="1.375"
       style="stroke:#000000;stroke-width:0"
       id="circle8" />
    <!-- Circle -->
    <circle
       cx="26.5"
       cy="-8"
       r="1.375"
       style="stroke:#000000;stroke-width:0"
       id="circle10" />
  </g>
</svg>
