<?xml version="1.0" encoding="utf-8"?>
<!-- Generator: Adobe Illustrator 18.1.0, SVG Export Plug-In . SVG Version: 6.00 Build 0)  -->
<!DOCTYPE svg PUBLIC "-//W3C//DTD SVG 1.1//EN" "http://www.w3.org/Graphics/SVG/1.1/DTD/svg11.dtd">
<svg version="1.1" xmlns="http://www.w3.org/2000/svg" xmlns:xlink="http://www.w3.org/1999/xlink" x="0px" y="0px"
	 viewBox="0 0 141.7 141.7" enable-background="new 0 0 141.7 141.7" xml:space="preserve">
<symbol  id="Unicorn_Dot" viewBox="-5.7 -5.7 11.4 11.4">
	<path fill="#00AEEF" stroke="#000000" stroke-width="0.25" stroke-miterlimit="10" d="M5.6,0c0-3.1-2.5-5.6-5.6-5.6S-5.6-3.1-5.6,0
		S-3.1,5.6,0,5.6S5.6,3.1,5.6,0z"/>
</symbol>
<symbol  id="dot" viewBox="-4.8 -4.8 9.5 9.5">
	<path fill="#FFFFFF" stroke="#000000" stroke-miterlimit="10" d="M4.3,0c0-2.3-1.9-4.3-4.3-4.3S-4.3-2.3-4.3,0S-2.3,4.3,0,4.3
		S4.3,2.3,4.3,0z"/>
</symbol>
<symbol  id="row" viewBox="-45.7 315.6 88.7 9.5">
	
		<use xlink:href="#dot"  width="9.5" height="9.5" x="-4.8" y="-4.8" transform="matrix(1 0 0 1 -40.9652 320.3535)" overflow="visible"/>
	
		<use xlink:href="#dot"  width="9.5" height="9.5" x="-4.8" y="-4.8" transform="matrix(1 0 0 1 -29.7162 320.3535)" overflow="visible"/>
	
		<use xlink:href="#dot"  width="9.5" height="9.5" x="-4.8" y="-4.8" transform="matrix(1 0 0 1 -18.4229 320.3535)" overflow="visible"/>
	
		<use xlink:href="#dot"  width="9.5" height="9.5" x="-4.8" y="-4.8" transform="matrix(1 0 0 1 -7.1055 320.3535)" overflow="visible"/>
	
		<use xlink:href="#dot"  width="9.5" height="9.5" x="-4.8" y="-4.8" transform="matrix(1 0 0 1 4.252 320.3535)" overflow="visible"/>
	
		<use xlink:href="#dot"  width="9.5" height="9.5" x="-4.8" y="-4.8" transform="matrix(1 0 0 1 15.5906 320.3535)" overflow="visible"/>
	
		<use xlink:href="#dot"  width="9.5" height="9.5" x="-4.8" y="-4.8" transform="matrix(1 0 0 1 26.9291 320.3535)" overflow="visible"/>
	
		<use xlink:href="#dot"  width="9.5" height="9.5" x="-4.8" y="-4.8" transform="matrix(1 0 0 1 38.2677 320.3535)" overflow="visible"/>
</symbol>
<symbol  id="unicorn_row" viewBox="-70.2 -5.7 140.4 11.4">
	
		<use xlink:href="#Unicorn_Dot"  width="11.4" height="11.4" x="-5.7" y="-5.7" transform="matrix(1 0 0 1 -64.4882 0)" overflow="visible"/>
	
		<use xlink:href="#Unicorn_Dot"  width="11.4" height="11.4" x="-5.7" y="-5.7" transform="matrix(1 0 0 1 -46.063 0)" overflow="visible"/>
	
		<use xlink:href="#Unicorn_Dot"  width="11.4" height="11.4" x="-5.7" y="-5.7" transform="matrix(1 0 0 1 -27.6378 0)" overflow="visible"/>
	
		<use xlink:href="#Unicorn_Dot"  width="11.4" height="11.4" x="-5.7" y="-5.7" transform="matrix(1 0 0 1 -9.2126 0)" overflow="visible"/>
	
		<use xlink:href="#Unicorn_Dot"  width="11.4" height="11.4" x="-5.7" y="-5.7" transform="matrix(1 0 0 1 9.2126 0)" overflow="visible"/>
	
		<use xlink:href="#Unicorn_Dot"  width="11.4" height="11.4" x="-5.7" y="-5.7" transform="matrix(1 0 0 1 27.6378 0)" overflow="visible"/>
	
		<use xlink:href="#Unicorn_Dot"  width="11.4" height="11.4" x="-5.7" y="-5.7" transform="matrix(1 0 0 1 46.063 0)" overflow="visible"/>
	
		<use xlink:href="#Unicorn_Dot"  width="11.4" height="11.4" x="-5.7" y="-5.7" transform="matrix(1 0 0 1 64.4882 0)" overflow="visible"/>
</symbol>
<g id="rawtext">
	<text transform="matrix(1 0 0 1 35.3652 28.5446)"><tspan x="0" y="0" font-family="'Arial-BoldMT'" font-size="11" letter-spacing="2">HATWENTY</tspan><tspan x="0" y="13.2" font-family="'Arial-BoldMT'" font-size="11" letter-spacing="2">FIFVTEEN</tspan><tspan x="0" y="26.4" font-family="'Arial-BoldMT'" font-size="11" letter-spacing="2">LF*PASTO</tspan><tspan x="0" y="39.6" font-family="'Arial-BoldMT'" font-size="11" letter-spacing="2">NINEEIGHT</tspan><tspan x="0" y="52.8" font-family="'Arial-BoldMT'" font-size="11" letter-spacing="2">ONETHREE</tspan><tspan x="0" y="66" font-family="'Arial-BoldMT'" font-size="11" letter-spacing="2">TWELEVEN</tspan><tspan x="0" y="79.2" font-family="'Arial-BoldMT'" font-size="11" letter-spacing="2">FOURFIVE</tspan><tspan x="0" y="92.4" font-family="'Arial-BoldMT'" font-size="11" letter-spacing="2">SIXSEVEN</tspan></text>
</g>
<g id="clock-32mm">
</g>
<g id="Layer_8" display="none">
</g>
<g id="clock-unicorn">
</g>
<g id="_x33_2mm_Scan">
	<g id="pixels" display="none">
	</g>
</g>
<g id="Unicorn_Scan">
</g>
<g id="Unicorn" display="none">
</g>
</svg>
