<?xml version="1.0" encoding="utf-8"?>
<!-- Generator: Adobe Illustrator 18.1.0, SVG Export Plug-In . SVG Version: 6.00 Build 0)  -->
<!DOCTYPE svg PUBLIC "-//W3C//DTD SVG 1.1//EN" "http://www.w3.org/Graphics/SVG/1.1/DTD/svg11.dtd">
<svg version="1.1" xmlns="http://www.w3.org/2000/svg" xmlns:xlink="http://www.w3.org/1999/xlink" x="0px" y="0px"
	 viewBox="0 0 141.7 141.7" enable-background="new 0 0 141.7 141.7" xml:space="preserve">
<symbol  id="Unicorn_Dot" viewBox="-5.7 -5.7 11.4 11.4">
	<path fill="#00AEEF" stroke="#000000" stroke-width="0.25" stroke-miterlimit="10" d="M5.6,0c0-3.1-2.5-5.6-5.6-5.6S-5.6-3.1-5.6,0
		S-3.1,5.6,0,5.6S5.6,3.1,5.6,0z"/>
</symbol>
<symbol  id="dot" viewBox="-4.8 -4.8 9.5 9.5">
	<path fill="#FFFFFF" stroke="#000000" stroke-miterlimit="10" d="M4.3,0c0-2.3-1.9-4.3-4.3-4.3S-4.3-2.3-4.3,0S-2.3,4.3,0,4.3
		S4.3,2.3,4.3,0z"/>
</symbol>
<symbol  id="row" viewBox="-45.7 315.6 88.7 9.5">
	
		<use xlink:href="#dot"  width="9.5" height="9.5" x="-4.8" y="-4.8" transform="matrix(1 0 0 1 -40.9652 320.3535)" overflow="visible"/>
	
		<use xlink:href="#dot"  width="9.5" height="9.5" x="-4.8" y="-4.8" transform="matrix(1 0 0 1 -29.7162 320.3535)" overflow="visible"/>
	
		<use xlink:href="#dot"  width="9.5" height="9.5" x="-4.8" y="-4.8" transform="matrix(1 0 0 1 -18.4229 320.3535)" overflow="visible"/>
	
		<use xlink:href="#dot"  width="9.5" height="9.5" x="-4.8" y="-4.8" transform="matrix(1 0 0 1 -7.1055 320.3535)" overflow="visible"/>
	
		<use xlink:href="#dot"  width="9.5" height="9.5" x="-4.8" y="-4.8" transform="matrix(1 0 0 1 4.252 320.3535)" overflow="visible"/>
	
		<use xlink:href="#dot"  width="9.5" height="9.5" x="-4.8" y="-4.8" transform="matrix(1 0 0 1 15.5906 320.3535)" overflow="visible"/>
	
		<use xlink:href="#dot"  width="9.5" height="9.5" x="-4.8" y="-4.8" transform="matrix(1 0 0 1 26.9291 320.3535)" overflow="visible"/>
	
		<use xlink:href="#dot"  width="9.5" height="9.5" x="-4.8" y="-4.8" transform="matrix(1 0 0 1 38.2677 320.3535)" overflow="visible"/>
</symbol>
<symbol  id="unicorn_row" viewBox="-70.2 -5.7 140.4 11.4">
	
		<use xlink:href="#Unicorn_Dot"  width="11.4" height="11.4" x="-5.7" y="-5.7" transform="matrix(1 0 0 1 -64.4882 0)" overflow="visible"/>
	
		<use xlink:href="#Unicorn_Dot"  width="11.4" height="11.4" x="-5.7" y="-5.7" transform="matrix(1 0 0 1 -46.063 0)" overflow="visible"/>
	
		<use xlink:href="#Unicorn_Dot"  width="11.4" height="11.4" x="-5.7" y="-5.7" transform="matrix(1 0 0 1 -27.6378 0)" overflow="visible"/>
	
		<use xlink:href="#Unicorn_Dot"  width="11.4" height="11.4" x="-5.7" y="-5.7" transform="matrix(1 0 0 1 -9.2126 0)" overflow="visible"/>
	
		<use xlink:href="#Unicorn_Dot"  width="11.4" height="11.4" x="-5.7" y="-5.7" transform="matrix(1 0 0 1 9.2126 0)" overflow="visible"/>
	
		<use xlink:href="#Unicorn_Dot"  width="11.4" height="11.4" x="-5.7" y="-5.7" transform="matrix(1 0 0 1 27.6378 0)" overflow="visible"/>
	
		<use xlink:href="#Unicorn_Dot"  width="11.4" height="11.4" x="-5.7" y="-5.7" transform="matrix(1 0 0 1 46.063 0)" overflow="visible"/>
	
		<use xlink:href="#Unicorn_Dot"  width="11.4" height="11.4" x="-5.7" y="-5.7" transform="matrix(1 0 0 1 64.4882 0)" overflow="visible"/>
</symbol>
<g id="rawtext">
	<line fill="none" x1="-7911.2" y1="32.3" x2="8471.8" y2="32.3"/>
	<line fill="none" x1="-7913.1" y1="138.6" x2="8469.9" y2="138.6"/>
</g>
<g id="clock-32mm">
	<g>
		<rect x="25.5" y="25.5" width="90.7" height="90.7"/>
		<path fill="#FFFFFF" d="M28.9,34.1v-5.9H30v2.3h2.3v-2.3h1.2v5.9h-1.2v-2.6H30v2.6H28.9z"/>
		<path fill="#FFFFFF" d="M45.4,34.1h-1.3l-0.5-1.3h-2.4l-0.5,1.3h-1.3l2.3-5.9h1.3L45.4,34.1z M43.2,31.7l-0.8-2.2l-0.8,2.2H43.2z"
			/>
		<path fill="#FFFFFF" d="M53.3,34.1v-4.9h-1.8v-1h4.7v1h-1.7v4.9H53.3z"/>
		<path fill="#FFFFFF" d="M62.8,34.1l-1.4-5.9h1.2l0.9,4.1l1.1-4.1H66l1,4.1l0.9-4.1h1.2l-1.4,5.9h-1.3l-1.2-4.4l-1.2,4.4H62.8z"/>
		<path fill="#FFFFFF" d="M74.2,34.1v-5.9h4.4v1h-3.2v1.3h3v1h-3v1.6h3.3v1H74.2z"/>
		<path fill="#FFFFFF" d="M85.4,34.1v-5.9h1.2l2.4,3.9v-3.9h1.1v5.9h-1.2l-2.4-3.9v3.9H85.4z"/>
		<path fill="#FFFFFF" d="M98.3,34.1v-4.9h-1.8v-1h4.7v1h-1.7v4.9H98.3z"/>
		<path fill="#FFFFFF" d="M109.8,34.1v-2.5l-2.2-3.4h1.4l1.4,2.3l1.4-2.3h1.4l-2.2,3.4v2.5H109.8z"/>
		<path fill="#FFFFFF" d="M29.5,45.5v-5.9h4v1h-2.9V42h2.5v1h-2.5v2.5H29.5z"/>
		<path fill="#FFFFFF" d="M41.9,45.5v-5.9h1.2v5.9H41.9z"/>
		<path fill="#FFFFFF" d="M51.9,45.5v-5.9h4v1H53V42h2.5v1H53v2.5H51.9z"/>
		<path fill="#FFFFFF" d="M64.2,45.5l-2.1-5.9h1.3l1.5,4.4l1.4-4.4h1.3l-2.1,5.9H64.2z"/>
		<path fill="#FFFFFF" d="M76,45.5v-4.9h-1.8v-1h4.7v1h-1.7v4.9H76z"/>
		<path fill="#FFFFFF" d="M85.9,45.5v-5.9h4.4v1h-3.2v1.3h3v1h-3v1.6h3.3v1H85.9z"/>
		<path fill="#FFFFFF" d="M96.7,45.5v-5.9h4.4v1h-3.2v1.3h3v1h-3v1.6h3.3v1H96.7z"/>
		<path fill="#FFFFFF" d="M108,45.5v-5.9h1.2l2.4,3.9v-3.9h1.1v5.9h-1.2l-2.4-3.9v3.9H108z"/>
		<path fill="#FFFFFF" d="M29.1,56.8V51h1.2v4.9h3v1H29.1z"/>
		<path fill="#FFFFFF" d="M40.9,56.8v-5.9h4v1h-2.9v1.4h2.5v1h-2.5v2.5H40.9z"/>
		<path fill="#FFFFFF" d="M53.1,55.4l-0.8-0.6c0.3-0.3,0.5-0.6,0.8-0.8c0.1-0.1,0.2-0.2,0.2-0.2c-0.1,0-0.3-0.1-0.8-0.2
			c-0.3-0.1-0.5-0.1-0.6-0.2l0.3-0.9c0.5,0.2,0.9,0.4,1.3,0.6c-0.1-0.6-0.1-1.1-0.1-1.4h1c0,0.3,0,0.7-0.1,1.4
			c0.1,0,0.2-0.1,0.5-0.2c0.3-0.1,0.6-0.3,0.9-0.4l0.3,1c-0.4,0.1-0.9,0.2-1.4,0.3l0.6,0.7c0.1,0.1,0.2,0.3,0.3,0.4l-0.8,0.5
			l-0.7-1.2C53.6,54.6,53.4,55,53.1,55.4z"/>
		<path fill="#FFFFFF" d="M63,56.8v-5.9h1.9c0.7,0,1.2,0,1.4,0.1c0.3,0.1,0.6,0.3,0.8,0.6c0.2,0.3,0.3,0.7,0.3,1.2
			c0,0.4-0.1,0.7-0.2,0.9s-0.3,0.4-0.5,0.6c-0.2,0.1-0.4,0.2-0.6,0.3c-0.3,0.1-0.7,0.1-1.2,0.1h-0.8v2.2H63z M64.2,51.9v1.7h0.7
			c0.5,0,0.8,0,0.9-0.1s0.3-0.2,0.4-0.3c0.1-0.1,0.1-0.3,0.1-0.5c0-0.2-0.1-0.4-0.2-0.5s-0.3-0.2-0.5-0.3c-0.1,0-0.4,0-0.9,0H64.2z"
			/>
		<path fill="#FFFFFF" d="M79.6,56.8h-1.3l-0.5-1.3h-2.4l-0.5,1.3h-1.3l2.3-5.9h1.3L79.6,56.8z M77.4,54.5l-0.8-2.2l-0.8,2.2H77.4z"
			/>
		<path fill="#FFFFFF" d="M85.8,54.9l1.2-0.1c0.1,0.4,0.2,0.7,0.4,0.9c0.2,0.2,0.5,0.3,0.9,0.3c0.4,0,0.7-0.1,0.9-0.2
			c0.2-0.2,0.3-0.4,0.3-0.6c0-0.1,0-0.3-0.1-0.4c-0.1-0.1-0.2-0.2-0.4-0.3c-0.1,0-0.5-0.1-1-0.3c-0.6-0.2-1.1-0.4-1.3-0.6
			c-0.4-0.3-0.5-0.7-0.5-1.2c0-0.3,0.1-0.6,0.3-0.8c0.2-0.3,0.4-0.5,0.7-0.6c0.3-0.1,0.7-0.2,1.2-0.2c0.7,0,1.3,0.2,1.7,0.5
			c0.4,0.3,0.6,0.8,0.6,1.3l-1.2,0.1c-0.1-0.3-0.2-0.5-0.3-0.7c-0.2-0.1-0.4-0.2-0.8-0.2c-0.3,0-0.6,0.1-0.8,0.2
			c-0.1,0.1-0.2,0.2-0.2,0.4c0,0.1,0.1,0.3,0.2,0.4c0.2,0.1,0.5,0.3,1.1,0.4s1,0.3,1.3,0.4c0.3,0.1,0.5,0.3,0.7,0.6
			c0.2,0.3,0.2,0.6,0.2,0.9c0,0.3-0.1,0.7-0.3,1s-0.5,0.5-0.8,0.7c-0.3,0.1-0.8,0.2-1.3,0.2c-0.7,0-1.3-0.2-1.7-0.5
			C86.1,56,85.9,55.5,85.8,54.9z"/>
		<path fill="#FFFFFF" d="M98.3,56.8v-4.9h-1.8v-1h4.7v1h-1.7v4.9H98.3z"/>
		<path fill="#FFFFFF" d="M107.5,53.9c0-0.6,0.1-1.1,0.3-1.5c0.1-0.3,0.3-0.6,0.6-0.8c0.2-0.2,0.5-0.4,0.8-0.5
			c0.4-0.2,0.8-0.2,1.3-0.2c0.9,0,1.6,0.3,2.1,0.8c0.5,0.5,0.8,1.3,0.8,2.3c0,1-0.3,1.7-0.8,2.2c-0.5,0.5-1.2,0.8-2.1,0.8
			c-0.9,0-1.6-0.3-2.1-0.8C107.8,55.6,107.5,54.8,107.5,53.9z M108.7,53.8c0,0.7,0.2,1.2,0.5,1.5c0.3,0.3,0.7,0.5,1.2,0.5
			s0.9-0.2,1.2-0.5c0.3-0.3,0.5-0.9,0.5-1.5c0-0.7-0.1-1.2-0.4-1.5c-0.3-0.3-0.7-0.5-1.2-0.5s-0.9,0.2-1.2,0.5
			C108.9,52.7,108.7,53.2,108.7,53.8z"/>
		<path fill="#FFFFFF" d="M28.8,68.5v-5.9H30l2.4,3.9v-3.9h1.1v5.9h-1.2l-2.4-3.9v3.9H28.8z"/>
		<path fill="#FFFFFF" d="M41.9,68.5v-5.9h1.2v5.9H41.9z"/>
		<path fill="#FFFFFF" d="M51.5,68.5v-5.9h1.2l2.4,3.9v-3.9h1.1v5.9H55l-2.4-3.9v3.9H51.5z"/>
		<path fill="#FFFFFF" d="M63.5,68.5v-5.9h4.4v1h-3.2v1.3h3v1h-3v1.6H68v1H63.5z"/>
		<path fill="#FFFFFF" d="M76,68.5v-5.9h1.2v5.9H76z"/>
		<path fill="#FFFFFF" d="M87.9,66.3v-1h2.6v2.4c-0.2,0.2-0.6,0.5-1.1,0.6c-0.5,0.2-1,0.3-1.4,0.3c-0.6,0-1.2-0.1-1.6-0.4
			c-0.5-0.3-0.8-0.6-1-1.1c-0.2-0.5-0.3-1-0.3-1.6c0-0.6,0.1-1.2,0.4-1.6s0.6-0.8,1.1-1.1c0.4-0.2,0.8-0.3,1.4-0.3
			c0.7,0,1.3,0.2,1.7,0.5c0.4,0.3,0.7,0.7,0.8,1.3l-1.2,0.2c-0.1-0.3-0.2-0.5-0.5-0.7c-0.2-0.2-0.5-0.3-0.9-0.3
			c-0.5,0-0.9,0.2-1.2,0.5c-0.3,0.3-0.5,0.8-0.5,1.5c0,0.7,0.2,1.2,0.5,1.6c0.3,0.4,0.7,0.5,1.2,0.5c0.2,0,0.5,0,0.8-0.1
			c0.3-0.1,0.5-0.2,0.6-0.4v-0.7H87.9z"/>
		<path fill="#FFFFFF" d="M96.7,68.5v-5.9h1.2v2.3h2.3v-2.3h1.2v5.9h-1.2v-2.6h-2.3v2.6H96.7z"/>
		<path fill="#FFFFFF" d="M109.8,68.5v-4.9H108v-1h4.7v1H111v4.9H109.8z"/>
		<path fill="#FFFFFF" d="M28.4,76.6c0-0.6,0.1-1.1,0.3-1.5c0.1-0.3,0.3-0.6,0.6-0.8c0.2-0.2,0.5-0.4,0.8-0.5
			c0.4-0.2,0.8-0.2,1.3-0.2c0.9,0,1.6,0.3,2.1,0.8c0.5,0.5,0.8,1.3,0.8,2.3c0,1-0.3,1.7-0.8,2.2c-0.5,0.5-1.2,0.8-2.1,0.8
			c-0.9,0-1.6-0.3-2.1-0.8C28.6,78.2,28.4,77.5,28.4,76.6z M29.6,76.5c0,0.7,0.2,1.2,0.5,1.5c0.3,0.3,0.7,0.5,1.2,0.5
			s0.9-0.2,1.2-0.5c0.3-0.3,0.5-0.9,0.5-1.5c0-0.7-0.1-1.2-0.4-1.5c-0.3-0.3-0.7-0.5-1.2-0.5S30.3,74.7,30,75
			C29.7,75.3,29.6,75.8,29.6,76.5z"/>
		<path fill="#FFFFFF" d="M40.1,79.5v-5.9h1.2l2.4,3.9v-3.9h1.1v5.9h-1.2l-2.4-3.9v3.9H40.1z"/>
		<path fill="#FFFFFF" d="M51.6,79.5v-5.9H56v1h-3.2v1.3h3v1h-3v1.6h3.3v1H51.6z"/>
		<path fill="#FFFFFF" d="M64.6,79.5v-4.9h-1.8v-1h4.7v1h-1.7v4.9H64.6z"/>
		<path fill="#FFFFFF" d="M74.2,79.5v-5.9h1.2v2.3h2.3v-2.3h1.2v5.9h-1.2v-2.6h-2.3v2.6H74.2z"/>
		<path fill="#FFFFFF" d="M85.5,79.5v-5.9h2.5c0.6,0,1.1,0.1,1.4,0.2c0.3,0.1,0.5,0.3,0.7,0.6s0.3,0.6,0.3,0.9
			c0,0.4-0.1,0.8-0.4,1.1c-0.3,0.3-0.7,0.5-1.2,0.5c0.3,0.2,0.5,0.3,0.6,0.5c0.2,0.2,0.4,0.5,0.7,1l0.7,1.2h-1.4l-0.9-1.3
			c-0.3-0.5-0.5-0.7-0.6-0.9c-0.1-0.1-0.2-0.2-0.4-0.2C87.4,77,87.2,77,87,77h-0.2v2.5H85.5z M86.7,76.1h0.9c0.6,0,0.9,0,1.1-0.1
			s0.3-0.1,0.3-0.2s0.1-0.3,0.1-0.4c0-0.2-0.1-0.4-0.2-0.5c-0.1-0.1-0.3-0.2-0.4-0.2c-0.1,0-0.4,0-0.9,0h-0.9V76.1z"/>
		<path fill="#FFFFFF" d="M97.1,79.5v-5.9h4.4v1h-3.2v1.3h3v1h-3v1.6h3.3v1H97.1z"/>
		<path fill="#FFFFFF" d="M108.3,79.5v-5.9h4.4v1h-3.2v1.3h3v1h-3v1.6h3.3v1H108.3z"/>
		<path fill="#FFFFFF" d="M30.6,90.8v-4.9h-1.8v-1h4.7v1h-1.7v4.9H30.6z"/>
		<path fill="#FFFFFF" d="M40,90.8l-1.4-5.9h1.2l0.9,4.1l1.1-4.1h1.4l1,4.1l0.9-4.1h1.2l-1.4,5.9h-1.3l-1.2-4.4l-1.2,4.4H40z"/>
		<path fill="#FFFFFF" d="M51.6,90.8v-5.9H56v1h-3.2v1.3h3v1h-3v1.6h3.3v1H51.6z"/>
		<path fill="#FFFFFF" d="M63.6,90.8V85h1.2v4.9h3v1H63.6z"/>
		<path fill="#FFFFFF" d="M74.6,90.8v-5.9h4.4v1h-3.2v1.3h3v1h-3v1.6h3.3v1H74.6z"/>
		<path fill="#FFFFFF" d="M87.2,90.8l-2.1-5.9h1.3l1.5,4.4l1.4-4.4h1.3l-2.1,5.9H87.2z"/>
		<path fill="#FFFFFF" d="M96.8,90.8v-5.9h4.4v1H98v1.3h3v1h-3v1.6h3.3v1H96.8z"/>
		<path fill="#FFFFFF" d="M108.3,90.8v-5.9h1.2l2.4,3.9v-3.9h1.1v5.9h-1.2l-2.4-3.9v3.9H108.3z"/>
		<path fill="#FFFFFF" d="M29.2,102.2v-5.9h4v1h-2.9v1.4h2.5v1h-2.5v2.5H29.2z"/>
		<path fill="#FFFFFF" d="M39.6,99.2c0-0.6,0.1-1.1,0.3-1.5c0.1-0.3,0.3-0.6,0.6-0.8c0.2-0.2,0.5-0.4,0.8-0.5
			c0.4-0.2,0.8-0.2,1.3-0.2c0.9,0,1.6,0.3,2.1,0.8c0.5,0.5,0.8,1.3,0.8,2.3c0,1-0.3,1.7-0.8,2.2c-0.5,0.5-1.2,0.8-2.1,0.8
			c-0.9,0-1.6-0.3-2.1-0.8C39.8,100.9,39.6,100.2,39.6,99.2z M40.8,99.2c0,0.7,0.2,1.2,0.5,1.5c0.3,0.3,0.7,0.5,1.2,0.5
			s0.9-0.2,1.2-0.5c0.3-0.3,0.5-0.9,0.5-1.5c0-0.7-0.1-1.2-0.4-1.5c-0.3-0.3-0.7-0.5-1.2-0.5s-0.9,0.2-1.2,0.5
			C41,98,40.8,98.5,40.8,99.2z"/>
		<path fill="#FFFFFF" d="M51.5,96.2h1.2v3.2c0,0.5,0,0.8,0,1c0.1,0.2,0.2,0.4,0.4,0.6c0.2,0.1,0.5,0.2,0.8,0.2
			c0.3,0,0.6-0.1,0.8-0.2c0.2-0.1,0.3-0.3,0.3-0.5s0.1-0.5,0.1-1v-3.3h1.2v3.1c0,0.7,0,1.2-0.1,1.5s-0.2,0.5-0.4,0.7
			c-0.2,0.2-0.4,0.4-0.7,0.5c-0.3,0.1-0.7,0.2-1.1,0.2c-0.6,0-1-0.1-1.3-0.2c-0.3-0.1-0.5-0.3-0.7-0.5c-0.2-0.2-0.3-0.4-0.3-0.7
			c-0.1-0.3-0.1-0.8-0.1-1.5V96.2z"/>
		<path fill="#FFFFFF" d="M62.7,102.2v-5.9h2.5c0.6,0,1.1,0.1,1.4,0.2c0.3,0.1,0.5,0.3,0.7,0.6s0.3,0.6,0.3,0.9
			c0,0.4-0.1,0.8-0.4,1.1c-0.3,0.3-0.7,0.5-1.2,0.5c0.3,0.2,0.5,0.3,0.6,0.5c0.2,0.2,0.4,0.5,0.7,1l0.7,1.2h-1.4l-0.9-1.3
			c-0.3-0.5-0.5-0.7-0.6-0.9c-0.1-0.1-0.2-0.2-0.4-0.2c-0.1,0-0.3-0.1-0.6-0.1h-0.2v2.5H62.7z M63.9,98.7h0.9c0.6,0,0.9,0,1.1-0.1
			s0.3-0.1,0.3-0.2s0.1-0.3,0.1-0.4c0-0.2-0.1-0.4-0.2-0.5c-0.1-0.1-0.3-0.2-0.4-0.2c-0.1,0-0.4,0-0.9,0h-0.9V98.7z"/>
		<path fill="#FFFFFF" d="M74.4,102.2v-5.9h4v1h-2.9v1.4h2.5v1h-2.5v2.5H74.4z"/>
		<path fill="#FFFFFF" d="M87.3,102.2v-5.9h1.2v5.9H87.3z"/>
		<path fill="#FFFFFF" d="M98.4,102.2l-2.1-5.9h1.3l1.5,4.4l1.4-4.4h1.3l-2.1,5.9H98.4z"/>
		<path fill="#FFFFFF" d="M108.4,102.2v-5.9h4.4v1h-3.2v1.3h3v1h-3v1.6h3.3v1H108.4z"/>
		<path fill="#FFFFFF" d="M28.2,111.4l1.2-0.1c0.1,0.4,0.2,0.7,0.4,0.9c0.2,0.2,0.5,0.3,0.9,0.3c0.4,0,0.7-0.1,0.9-0.2
			c0.2-0.2,0.3-0.4,0.3-0.6c0-0.1,0-0.3-0.1-0.4c-0.1-0.1-0.2-0.2-0.4-0.3c-0.1,0-0.5-0.1-1-0.3c-0.6-0.2-1.1-0.4-1.3-0.6
			c-0.4-0.3-0.5-0.7-0.5-1.2c0-0.3,0.1-0.6,0.3-0.8c0.2-0.3,0.4-0.5,0.7-0.6c0.3-0.1,0.7-0.2,1.2-0.2c0.7,0,1.3,0.2,1.7,0.5
			c0.4,0.3,0.6,0.8,0.6,1.3l-1.2,0.1c-0.1-0.3-0.2-0.5-0.3-0.7c-0.2-0.1-0.4-0.2-0.8-0.2c-0.3,0-0.6,0.1-0.8,0.2
			c-0.1,0.1-0.2,0.2-0.2,0.4c0,0.1,0.1,0.3,0.2,0.4c0.2,0.1,0.5,0.3,1.1,0.4s1,0.3,1.3,0.4c0.3,0.1,0.5,0.3,0.7,0.6
			c0.2,0.3,0.2,0.6,0.2,0.9c0,0.3-0.1,0.7-0.3,1s-0.5,0.5-0.8,0.7c-0.3,0.1-0.8,0.2-1.3,0.2c-0.7,0-1.3-0.2-1.7-0.5
			C28.5,112.6,28.3,112.1,28.2,111.4z"/>
		<path fill="#FFFFFF" d="M42.1,113.5v-5.9h1.2v5.9H42.1z"/>
		<path fill="#FFFFFF" d="M51.1,113.5l2-3.1l-1.8-2.8h1.4l1.2,1.9l1.2-1.9h1.4l-1.8,2.9l2,3h-1.4l-1.3-2l-1.3,2H51.1z"/>
		<path fill="#FFFFFF" d="M62.7,111.6l1.2-0.1c0.1,0.4,0.2,0.7,0.4,0.9c0.2,0.2,0.5,0.3,0.9,0.3c0.4,0,0.7-0.1,0.9-0.2
			c0.2-0.2,0.3-0.4,0.3-0.6c0-0.1,0-0.3-0.1-0.4c-0.1-0.1-0.2-0.2-0.4-0.3c-0.1,0-0.5-0.1-1-0.3c-0.6-0.2-1.1-0.4-1.3-0.6
			c-0.4-0.3-0.5-0.7-0.5-1.2c0-0.3,0.1-0.6,0.3-0.8c0.2-0.3,0.4-0.5,0.7-0.6c0.3-0.1,0.7-0.2,1.2-0.2c0.7,0,1.3,0.2,1.7,0.5
			c0.4,0.3,0.6,0.8,0.6,1.3l-1.2,0.1c-0.1-0.3-0.2-0.5-0.3-0.7c-0.2-0.1-0.4-0.2-0.8-0.2c-0.3,0-0.6,0.1-0.8,0.2
			c-0.1,0.1-0.2,0.2-0.2,0.4c0,0.1,0.1,0.3,0.2,0.4c0.2,0.1,0.5,0.3,1.1,0.4s1,0.3,1.3,0.4c0.3,0.1,0.5,0.3,0.7,0.6
			c0.2,0.3,0.2,0.6,0.2,0.9c0,0.3-0.1,0.7-0.3,1s-0.5,0.5-0.8,0.7c-0.3,0.1-0.8,0.2-1.3,0.2c-0.7,0-1.3-0.2-1.7-0.5
			C63,112.7,62.7,112.2,62.7,111.6z"/>
		<path fill="#FFFFFF" d="M74.2,113.5v-5.9h4.4v1h-3.2v1.3h3v1h-3v1.6h3.3v1H74.2z"/>
		<path fill="#FFFFFF" d="M87.2,113.4l-2.1-5.9h1.3l1.5,4.4l1.4-4.4h1.3l-2.1,5.9H87.2z"/>
		<path fill="#FFFFFF" d="M97.1,113.5v-5.9h4.4v1h-3.2v1.3h3v1h-3v1.6h3.3v1H97.1z"/>
		<path fill="#FFFFFF" d="M108.3,113.5v-5.9h1.2l2.4,3.9v-3.9h1.1v5.9h-1.2l-2.4-3.9v3.9H108.3z"/>
	</g>
</g>
<g id="Layer_8" display="none">
</g>
<g id="clock-unicorn">
</g>
<g id="_x33_2mm_Scan">
	<g id="pixels" display="none">
	</g>
</g>
<g id="Unicorn_Scan">
</g>
<g id="Unicorn" display="none">
</g>
</svg>
