<?xml version="1.0" encoding="iso-8859-1"?>
<!-- Generator: Adobe Illustrator 19.0.0, SVG Export Plug-In . SVG Version: 6.00 Build 0)  -->
<svg version="1.1" id="Layer_1" xmlns="http://www.w3.org/2000/svg" xmlns:xlink="http://www.w3.org/1999/xlink" x="0px" y="0px"
	 viewBox="0 0 512.002 512.002" style="enable-background:new 0 0 512.002 512.002;" xml:space="preserve">
<path style="fill:#507C5C;" d="M14.85,469.505c-2.096,0-4.203-0.443-6.183-1.35C3.386,465.737,0,460.461,0,454.652V265.33
	c0-4.321,1.882-8.426,5.152-11.248L246.3,46.102c5.574-4.806,13.828-4.806,19.402,0l241.147,207.98
	c3.271,2.822,5.152,6.927,5.152,11.248v189.322c0,8.203-6.649,14.853-14.853,14.853c-8.203,0-14.853-6.649-14.853-14.853V272.134
	L256,76.963L29.705,272.134v150.095l165.6-142.825c6.213-5.356,15.592-4.664,20.948,1.548c5.357,6.211,4.665,15.591-1.548,20.948
	l-190.153,164C21.802,468.271,18.346,469.505,14.85,469.505z"/>
<polygon style="fill:#CFF09E;" points="256,57.35 497.147,265.33 497.147,454.652 256,246.672 255.942,246.721 146.586,152.406 "/>
<path style="fill:#507C5C;" d="M497.15,469.505c-3.496,0-6.952-1.233-9.703-3.605L247.424,258.888
	c-0.405-0.284-0.801-0.59-1.182-0.919l-109.355-94.315c-3.265-2.816-5.143-6.909-5.152-11.221
	c-0.009-4.312,1.857-8.412,5.111-11.239L246.26,46.138c5.571-4.842,13.853-4.855,19.442-0.036l241.147,207.98
	c3.271,2.822,5.152,6.927,5.152,11.248v189.322c0,5.809-3.386,11.084-8.666,13.502C501.354,469.062,499.245,469.505,497.15,469.505z
	 M264.518,234.505c0.405,0.284,0.801,0.59,1.182,0.919l216.595,186.805V272.134L256.036,76.994l-86.755,75.372L264.518,234.505z"/>
<g>
</g>
<g>
</g>
<g>
</g>
<g>
</g>
<g>
</g>
<g>
</g>
<g>
</g>
<g>
</g>
<g>
</g>
<g>
</g>
<g>
</g>
<g>
</g>
<g>
</g>
<g>
</g>
<g>
</g>
</svg>
