<?xml version="1.0" encoding="iso-8859-1"?>
<!-- Generator: Adobe Illustrator 19.0.0, SVG Export Plug-In . SVG Version: 6.00 Build 0)  -->
<svg version="1.1" id="Layer_1" xmlns="http://www.w3.org/2000/svg" xmlns:xlink="http://www.w3.org/1999/xlink" x="0px" y="0px"
	 viewBox="0 0 512 512" style="enable-background:new 0 0 512 512;" xml:space="preserve">
<path style="fill:#507C5C;" d="M454.651,512H265.328c-4.319,0-8.426-1.882-11.248-5.152L46.1,265.7
	c-4.806-5.574-4.806-13.828,0-19.402L254.081,5.152C256.903,1.882,261.009,0,265.328,0h189.322c5.809,0,11.084,3.386,13.504,8.666
	c2.419,5.28,1.537,11.487-2.258,15.886l-164,190.154c-5.356,6.21-14.731,6.906-20.948,1.548c-6.211-5.357-6.903-14.735-1.546-20.948
	L422.228,29.705H272.132L76.961,256l195.171,226.295h182.518c8.202,0,14.853,6.649,14.853,14.853
	C469.503,505.351,462.852,512,454.651,512z"/>
<polygon style="fill:#CFF09E;" points="57.348,256 265.328,497.147 454.651,497.147 246.669,256 246.72,255.942 152.405,146.586 "/>
<path style="fill:#507C5C;" d="M454.651,512H265.328c-4.319,0-8.426-1.882-11.248-5.152L46.1,265.7
	c-4.82-5.589-4.805-13.869,0.036-19.442l95.056-109.414c2.821-3.247,6.911-5.111,11.212-5.111c0.009,0,0.018,0,0.027,0
	c4.31,0.007,8.405,1.888,11.221,5.152l94.315,109.355c0.333,0.385,0.64,0.781,0.925,1.19l207.004,240.016
	c3.795,4.398,4.674,10.605,2.258,15.886C465.735,508.614,460.46,512,454.651,512z M272.132,482.295h150.095L235.423,265.7
	c-0.331-0.385-0.64-0.781-0.927-1.19l-82.133-95.23l-75.372,86.755L272.132,482.295z"/>
<g>
</g>
<g>
</g>
<g>
</g>
<g>
</g>
<g>
</g>
<g>
</g>
<g>
</g>
<g>
</g>
<g>
</g>
<g>
</g>
<g>
</g>
<g>
</g>
<g>
</g>
<g>
</g>
<g>
</g>
</svg>
