<?xml version="1.0" encoding="iso-8859-1"?>
<!-- Generator: Adobe Illustrator 19.0.0, SVG Export Plug-In . SVG Version: 6.00 Build 0)  -->
<svg version="1.1" id="Layer_1" xmlns="http://www.w3.org/2000/svg" xmlns:xlink="http://www.w3.org/1999/xlink" x="0px" y="0px"
	 viewBox="0 0 512 512" style="enable-background:new 0 0 512 512;" xml:space="preserve">
<path style="fill:#507C5C;" d="M256,469.504c-3.458,0-6.914-1.202-9.7-3.605L5.152,257.918C1.882,255.097,0,250.99,0,246.671V57.349
	c0-5.809,3.386-11.084,8.666-13.502c5.28-2.419,11.487-1.537,15.886,2.256l190.153,164c6.211,5.357,6.903,14.737,1.548,20.948
	c-5.359,6.211-14.737,6.903-20.948,1.548L29.705,89.772v150.095L256,435.039l226.295-195.171V57.349
	c0-8.203,6.649-14.853,14.853-14.853c8.203,0,14.853,6.649,14.853,14.853v189.322c0,4.321-1.882,8.426-5.152,11.248L265.7,465.899
	C262.914,468.303,259.456,469.504,256,469.504z"/>
<polygon style="fill:#CFF09E;" points="256,454.652 497.147,246.671 497.147,57.349 256,265.329 255.942,265.28 146.586,359.595 "/>
<path style="fill:#507C5C;" d="M256,469.504c-3.474,0-6.948-1.213-9.742-3.64l-109.414-95.056c-3.254-2.826-5.12-6.929-5.111-11.239
	c0.009-4.31,1.888-8.405,5.152-11.221l109.355-94.315c0.385-0.331,0.781-0.64,1.19-0.927L487.446,46.101
	c4.398-3.793,10.605-4.674,15.886-2.256c5.282,2.418,8.666,7.695,8.666,13.502v189.324c0,4.321-1.882,8.426-5.152,11.248
	l-241.147,207.98C262.914,468.303,259.456,469.504,256,469.504z M169.28,359.635l86.755,75.372l226.259-195.14V89.772L265.7,276.577
	c-0.385,0.331-0.781,0.64-1.19,0.927L169.28,359.635z"/>
<g>
</g>
<g>
</g>
<g>
</g>
<g>
</g>
<g>
</g>
<g>
</g>
<g>
</g>
<g>
</g>
<g>
</g>
<g>
</g>
<g>
</g>
<g>
</g>
<g>
</g>
<g>
</g>
<g>
</g>
</svg>
