<?xml version="1.0" encoding="iso-8859-1"?>
<!-- Generator: Adobe Illustrator 19.0.0, SVG Export Plug-In . SVG Version: 6.00 Build 0)  -->
<svg version="1.1" id="Layer_1" xmlns="http://www.w3.org/2000/svg" xmlns:xlink="http://www.w3.org/1999/xlink" x="0px" y="0px"
	 viewBox="0 0 512 512" style="enable-background:new 0 0 512 512;" xml:space="preserve">
<path style="fill:#507C5C;" d="M246.67,512H57.348c-8.202,0-14.853-6.649-14.853-14.853c0-8.203,6.651-14.853,14.853-14.853h182.519
	L435.038,256L239.866,29.705H89.771l142.824,165.6c5.357,6.213,4.665,15.591-1.546,20.948c-6.211,5.359-15.592,4.664-20.948-1.548
	L46.101,24.553c-3.795-4.399-4.676-10.606-2.258-15.886C46.263,3.386,51.539,0,57.348,0H246.67c4.319,0,8.426,1.882,11.246,5.152
	L465.897,246.3c4.808,5.574,4.808,13.828,0,19.402l-207.98,241.147C255.096,510.118,250.989,512,246.67,512z"/>
<polygon style="fill:#CFF09E;" points="454.651,256 246.67,497.147 57.348,497.147 265.328,256 265.279,255.942 359.594,146.586 "/>
<path style="fill:#507C5C;" d="M246.67,512H57.348c-5.809,0-11.084-3.386-13.504-8.666c-2.418-5.282-1.537-11.487,2.258-15.886
	L253.116,247.42c0.282-0.404,0.588-0.798,0.916-1.178l94.315-109.355c2.816-3.265,6.909-5.143,11.22-5.152c0.01,0,0.019,0,0.028,0
	c4.301,0,8.39,1.864,11.212,5.111l95.056,109.414c4.84,5.571,4.857,13.853,0.034,19.442l-207.98,241.147
	C255.096,510.118,250.989,512,246.67,512z M89.771,482.295h150.095l195.14-226.259l-75.371-86.755l-82.143,95.242
	c-0.282,0.404-0.588,0.798-0.916,1.178L89.771,482.295z"/>
<g>
</g>
<g>
</g>
<g>
</g>
<g>
</g>
<g>
</g>
<g>
</g>
<g>
</g>
<g>
</g>
<g>
</g>
<g>
</g>
<g>
</g>
<g>
</g>
<g>
</g>
<g>
</g>
<g>
</g>
</svg>
