<?xml version="1.0" encoding="iso-8859-1"?>
<!-- Generator: Adobe Illustrator 19.0.0, SVG Export Plug-In . SVG Version: 6.00 Build 0)  -->
<svg version="1.1" id="Layer_1" xmlns="http://www.w3.org/2000/svg" xmlns:xlink="http://www.w3.org/1999/xlink" x="0px" y="0px"
	 viewBox="0 0 511.999 511.999" style="enable-background:new 0 0 511.999 511.999;" xml:space="preserve">
<path style="fill:#507C5C;" d="M476.819,438.751h-57.144c-7.642,0-13.836-6.195-13.836-13.836s6.195-13.836,13.836-13.836h57.144
	c4.168,0,6.064-2.888,6.686-4.129c0.621-1.241,1.797-4.49-0.699-7.827L261.987,103.918c-1.951-2.608-4.588-2.998-5.987-2.998
	c-1.399,0-4.036,0.39-5.988,2.998L29.195,399.124c-2.496,3.337-1.32,6.585-0.699,7.827c0.621,1.241,2.518,4.129,6.686,4.129h277.623
	c7.642,0,13.836,6.195,13.836,13.836s-6.195,13.836-13.836,13.836H35.182c-13.391,0-25.433-7.437-31.429-19.41
	c-5.997-11.973-4.738-26.071,3.282-36.794L227.852,87.343c6.701-8.959,16.961-14.097,28.147-14.097
	c11.187,0,21.446,5.137,28.146,14.097l220.819,295.205c8.02,10.723,9.279,24.821,3.282,36.794S490.208,438.751,476.819,438.751z"/>
<polygon style="fill:#CFF09E;" points="391.766,361.009 120.234,361.009 256,179.506 "/>
<path style="fill:#507C5C;" d="M391.794,374.845c-0.008,0-0.017,0-0.028,0H120.234c-5.238,0-10.027-2.958-12.371-7.64
	c-2.345-4.684-1.844-10.29,1.292-14.484l135.767-181.503c2.612-3.492,6.719-5.548,11.08-5.548c4.361,0,8.468,2.056,11.08,5.548
	l135.305,180.884c2.026,2.408,3.246,5.514,3.246,8.906C405.63,368.651,399.436,374.845,391.794,374.845z M147.863,347.172h216.275
	L256,202.606L147.863,347.172z"/>
<g>
</g>
<g>
</g>
<g>
</g>
<g>
</g>
<g>
</g>
<g>
</g>
<g>
</g>
<g>
</g>
<g>
</g>
<g>
</g>
<g>
</g>
<g>
</g>
<g>
</g>
<g>
</g>
<g>
</g>
</svg>
