<?xml version="1.0" encoding="UTF-8" standalone="no"?>
<svg
   xmlns:dc="http://purl.org/dc/elements/1.1/"
   xmlns:cc="http://creativecommons.org/ns#"
   xmlns:rdf="http://www.w3.org/1999/02/22-rdf-syntax-ns#"
   xmlns:svg="http://www.w3.org/2000/svg"
   xmlns="http://www.w3.org/2000/svg"
   xmlns:sodipodi="http://sodipodi.sourceforge.net/DTD/sodipodi-0.dtd"
   xmlns:inkscape="http://www.inkscape.org/namespaces/inkscape"
   version="1.1"
   x="0px"
   y="0px"
   viewBox="0 0 100 100"
   xml:space="preserve"
   id="svg2"
   inkscape:version="0.91 r13725"
   sodipodi:docname="noun_778857_cc.svg"
   width="100"
   height="100"><metadata
     id="metadata22"><rdf:RDF><cc:Work
         rdf:about=""><dc:format>image/svg+xml</dc:format><dc:type
           rdf:resource="http://purl.org/dc/dcmitype/StillImage" /><dc:title></dc:title></cc:Work></rdf:RDF></metadata><defs
     id="defs20" /><sodipodi:namedview
     pagecolor="#ffffff"
     bordercolor="#666666"
     borderopacity="1"
     objecttolerance="10"
     gridtolerance="10"
     guidetolerance="10"
     inkscape:pageopacity="0"
     inkscape:pageshadow="2"
     inkscape:window-width="1313"
     inkscape:window-height="744"
     id="namedview18"
     showgrid="false"
     inkscape:zoom="1.888"
     inkscape:cx="50"
     inkscape:cy="62.5"
     inkscape:window-x="53"
     inkscape:window-y="24"
     inkscape:window-maximized="1"
     inkscape:current-layer="svg2" /><g
     id="g4"
     transform="matrix(1.0882768,0,0,1.0923444,-3.6193502,-3.6592123)"><g
       id="g6"><path
         d="m 86.2,90.1 -72.4,0 c -3.2,0 -6,-1.6 -7.6,-4.4 C 4.6,83 4.6,79.7 6.2,77 L 42.4,14.2 C 44,11.5 46.8,9.8 50,9.8 l 0,0 c 3.2,0 6,1.6 7.6,4.4 L 93.8,77 c 1.6,2.7 1.6,6 0,8.7 -1.6,2.8 -4.4,4.4 -7.6,4.4 z M 11.9,80.3 c -0.6,1 -0.2,1.9 0,2.2 0.2,0.3 0.8,1.1 1.9,1.1 l 72.5,0 c 1.1,0 1.7,-0.8 1.9,-1.1 0.2,-0.3 0.6,-1.2 0,-2.2 L 51.9,17.5 c -0.6,-1 -1.5,-1.1 -1.9,-1.1 -0.4,0 -1.3,0.1 -1.9,1.1 L 11.9,80.3 Z"
         id="path8"
         inkscape:connector-curvature="0" /><path
         d="m 50,66.3 c -1.8,0 -3,-1.5 -3,-3.3 l 0,-27.5 c 0,-1.8 1.2,-3.3 3,-3.3 1.8,0 3,1.5 3,3.3 L 53,63 c 0,1.8 -1.2,3.3 -3,3.3 z"
         id="path10"
         inkscape:connector-curvature="0" /><circle
         cx="50"
         cy="74.800003"
         r="3.9000001"
         id="circle12" /></g></g></svg>