<?xml version="1.0" encoding="UTF-8" standalone="no"?>
<svg
   xmlns:dc="http://purl.org/dc/elements/1.1/"
   xmlns:cc="http://creativecommons.org/ns#"
   xmlns:rdf="http://www.w3.org/1999/02/22-rdf-syntax-ns#"
   xmlns:svg="http://www.w3.org/2000/svg"
   xmlns="http://www.w3.org/2000/svg"
   xmlns:sodipodi="http://sodipodi.sourceforge.net/DTD/sodipodi-0.dtd"
   xmlns:inkscape="http://www.inkscape.org/namespaces/inkscape"
   version="1.0"
   x="0px"
   y="0px"
   viewBox="0 0 99.999999 100"
   enable-background="new 0 0 76.207 100"
   xml:space="preserve"
   id="svg2"
   inkscape:version="0.91 r13725"
   sodipodi:docname="noun_128.svg"
   width="100"
   height="100"><metadata
     id="metadata10"><rdf:RDF><cc:Work
         rdf:about=""><dc:format>image/svg+xml</dc:format><dc:type
           rdf:resource="http://purl.org/dc/dcmitype/StillImage" /><dc:title></dc:title></cc:Work></rdf:RDF></metadata><defs
     id="defs8" /><sodipodi:namedview
     pagecolor="#ffffff"
     bordercolor="#666666"
     borderopacity="1"
     objecttolerance="10"
     gridtolerance="10"
     guidetolerance="10"
     inkscape:pageopacity="0"
     inkscape:pageshadow="2"
     inkscape:window-width="1313"
     inkscape:window-height="744"
     id="namedview6"
     showgrid="false"
     inkscape:zoom="4.72"
     inkscape:cx="40.464485"
     inkscape:cy="47.641335"
     inkscape:window-x="53"
     inkscape:window-y="24"
     inkscape:window-maximized="1"
     inkscape:current-layer="svg2" /><path
     d="m 59.686327,99.576271 c -27.186761,0 -49.304971,-22.049831 -49.304971,-49.152542 0,-27.102712 22.11821,-49.1525426 49.304971,-49.1525426 4.734263,0 9.441902,0.6792882 13.990778,2.0191865 L 85.529034,6.7821695 73.677105,10.273966 c -17.710345,5.217051 -30.079976,21.72739 -30.079976,40.149763 0,18.421389 12.369631,34.930745 30.07899,40.147796 l 11.847985,3.488848 -11.846999,3.494745 C 69.127242,98.896 64.42059,99.576271 59.686327,99.576271 l 0,0 z m 0,-91.0236269 c -23.159531,0 -41.999947,18.7841349 -41.999947,41.8710849 0,23.086949 18.840416,41.871084 41.999947,41.871084 0.0424,0 0.0848,0 0.128193,0 C 45.527911,83.488644 36.29309,67.66939 36.29309,50.423729 c 0,-17.244678 9.234821,-33.06295 23.519457,-41.8710849 -0.04339,0 -0.0848,0 -0.12622,0 l 0,0 z"
     id="path4"
     inkscape:connector-curvature="0" /><path
     style="fill:#000000;fill-opacity:1"
     d="M 55.549231,91.991214 C 39.620718,90.363473 25.915354,79.74181 20.32081,64.689174 15.88981,52.767159 17.483984,38.580695 24.458955,27.86406 26.79652,24.272528 30.636609,20.082971 33.939061,17.521215 40.623557,12.335963 48.841725,9.2129648 56.820417,8.8260369 l 2.436441,-0.1181555 -1.551093,1.0825772 c -7.135576,4.9802354 -12.65911,11.4196994 -16.46867,19.1995624 -3.35967,6.8611 -4.967525,13.759087 -4.967525,21.311575 0,3.970262 0.252477,6.543186 0.985637,10.044358 2.607304,12.451063 10.016772,23.525824 20.609291,30.804233 l 1.573741,1.08136 -1.04408,-0.02815 c -0.574244,-0.01548 -1.854462,-0.110964 -2.844928,-0.21218 z"
     id="path3338"
     inkscape:connector-curvature="0" /><path
     style="fill:#000000;fill-opacity:1"
     d="M 54.06618,91.707873 C 51.236059,91.290812 49.916451,90.981754 47.074655,90.070437 30.783718,84.846195 19.018226,69.955685 18.091092,53.388581 17.474433,42.369394 20.608104,32.417098 27.229068,24.367078 31.937301,18.642629 37.437033,14.546419 44.002621,11.874107 48.19104,10.169344 52.249307,9.2699008 57.521801,8.8778185 l 1.442909,-0.1073001 -1.626555,1.167 c -2.50721,1.7988406 -3.832471,2.9135836 -6.10985,5.1393016 -4.176227,4.081492 -7.441055,8.560411 -9.920797,13.610039 -3.610516,7.352289 -5.037938,13.573902 -5.037938,21.958546 0,7.874335 1.490908,14.275235 4.973597,21.353091 3.492269,7.097326 8.606409,13.309979 14.658096,17.806648 1.379476,1.025011 2.598709,1.942604 2.709409,2.039098 0.29222,0.254718 -2.448776,0.172468 -4.544492,-0.136369 z"
     id="path3340"
     inkscape:connector-curvature="0" /><path
     style="fill:#000000;fill-opacity:1"
     d="M 53.656917,99.103536 C 42.364417,97.653731 32.229263,92.566019 24.298866,84.366189 7.439397,66.93392 5.8449417,40.232596 20.505535,20.841689 31.736653,5.9867953 50.94579,-1.3362401 69.108553,2.312924 c 3.286269,0.6602593 15.988015,4.3624677 15.625532,4.5544111 -0.145949,0.077284 -2.934854,0.9232761 -6.197566,1.8799831 -8.470477,2.4837508 -11.009445,3.4935428 -14.987377,5.9607338 -3.881172,2.407179 -7.975786,6.031544 -10.749564,9.51502 -7.786832,9.779174 -10.915915,22.501129 -8.467877,34.427966 2.379208,11.591492 9.795547,21.960062 20.005284,27.968812 3.863242,2.273637 6.277422,3.185381 15.744803,5.946201 2.714305,0.79153 4.811763,1.504725 4.661017,1.584877 -0.524269,0.278763 -12.91068,3.826441 -14.797341,4.23821 -4.650424,1.01497 -11.580106,1.318898 -16.288547,0.714398 z m 6.122276,-6.819023 c -0.004,-0.08739 -0.89618,-0.753761 -1.982555,-1.480814 C 52.791415,87.453966 47.897396,82.431653 44.323441,76.97731 42.640424,74.408795 40.10915,69.251 39.124642,66.384089 38.038703,63.22181 37.199932,59.637174 36.787237,56.394773 36.337797,52.863687 36.452574,45.73656 37.0085,42.655276 38.384852,35.026695 41.185788,28.246263 45.454117,22.21036 48.735502,17.570105 53.955994,12.489016 58.405896,9.6044281 L 59.87664,8.6510383 58.189631,8.5867298 C 55.223053,8.4736449 50.341093,9.3094839 46.439061,10.598542 34.186809,14.646141 24.246975,24.392846 20.005116,36.518877 c -1.791948,5.122572 -2.508493,9.881151 -2.311772,15.3525 0.183363,5.099848 1.004807,9.233246 2.693106,13.551363 5.382343,13.766264 17.319919,23.621991 31.836815,26.284648 3.101015,0.56878 7.571286,0.910222 7.555928,0.577125 z"
     id="path3342"
     inkscape:connector-curvature="0" /><path
     style="fill:#000000;fill-opacity:1"
     d="M 53.642451,99.101947 C 42.406555,97.660763 32.285953,92.597507 24.395091,84.469729 17.034515,76.888159 12.526331,67.739562 10.941522,57.167987 10.487665,54.140509 10.419659,47.334621 10.81556,44.562055 12.160848,35.140761 15.636213,26.906996 21.229925,19.888547 32.539875,5.6979137 51.321511,-1.2222859 69.019602,2.2801702 72.252773,2.9200155 85.113998,6.6659091 84.74447,6.8601135 84.592809,6.9398186 81.656222,7.8377527 78.218722,8.8555226 70.062754,11.27033 67.791191,12.163412 64.025534,14.435684 60.111218,16.797659 55.775856,20.544383 53.076373,23.89821 42.651778,36.849693 40.613424,53.767951 47.70775,68.457598 c 2.102049,4.352544 4.296055,7.484873 7.729195,11.034781 3.582227,3.70407 6.945797,6.203373 11.235167,8.348303 3.135901,1.568132 5.282272,2.333479 12.352964,4.404797 3.298369,0.966237 5.872522,1.823248 5.720339,1.90447 -0.549979,0.293536 -12.194923,3.646602 -14.372748,4.138515 -4.900908,1.106985 -11.819324,1.443384 -16.730216,0.813483 z m 6.142214,-6.817434 c -0.0011,-0.08739 -0.586584,-0.535676 -1.301256,-0.996184 C 46.942913,83.852085 38.6164,70.518123 36.806051,56.574509 36.386642,53.34414 36.387,47.428066 36.806898,44.202144 c 1.071316,-8.232407 4.391892,-16.334085 9.490748,-23.155922 2.830136,-3.78661 7.830121,-8.574459 11.530634,-11.041511 0.902243,-0.6015068 1.735781,-1.188093 1.852307,-1.3035252 0.403557,-0.399771 -5.364085,0.018779 -8.15678,0.591926 C 29.843964,13.742487 15.384392,33.577576 17.935379,55.368439 c 0.981484,8.383964 4.584487,16.385879 10.295238,22.864712 5.908858,6.703584 14.528286,11.618745 23.399122,13.343165 3.336789,0.648644 8.159117,1.067428 8.154926,0.708197 z"
     id="path3344"
     inkscape:connector-curvature="0" /><path
     style="fill:#000000;fill-opacity:1"
     d="M 54.172112,99.188191 C 47.038758,98.382968 38.984182,95.50178 33.091604,91.647515 14.078443,79.211242 5.9880964,56.425225 13.004697,35.073843 18.243142,19.133355 31.436977,6.9468709 47.922112,2.8223764 52.243045,1.7413017 54.749833,1.4583147 59.892451,1.4710647 c 6.683172,0.01657 8.290564,0.3098569 19.206541,3.5044586 3.379029,0.9888853 5.808892,1.801158 5.64947,1.888547 -0.153856,0.084338 -2.60275,0.8382203 -5.441983,1.6752938 C 70.598373,11.10672 67.78878,12.183252 64.305805,14.287069 55.018627,19.896789 48.316758,28.48086 45.255413,38.687712 c -5.278724,17.599824 1.95007,36.796384 17.709072,47.027663 4.084981,2.652108 6.822911,3.768729 15.737106,6.418121 3.477809,1.033642 6.187523,1.942578 6.038136,2.025411 -0.149053,0.08265 -3.083505,0.972864 -6.521005,1.978258 -6.564841,1.920077 -9.977906,2.703598 -13.392074,3.074356 -2.416197,0.262388 -8.236309,0.249642 -10.654536,-0.02333 z M 59.36279,92.001975 C 59.071477,91.767568 57.641392,90.702195 56.184824,89.634477 50.041511,85.131199 44.982369,79.005026 41.445646,71.786632 38.088994,64.935761 36.731201,59.391568 36.541494,51.761829 36.411939,46.551263 36.722928,43.298596 37.752106,39.099994 39.43186,32.247322 42.855589,25.261225 47.17146,19.879852 49.979646,16.378385 54.852892,11.90777 58.393536,9.5849552 l 1.423559,-0.9339169 -1.127576,-0.06935 C 55.796638,8.4037654 50.538801,9.302225 46.390492,10.683347 c -6.167517,2.053388 -11.214299,5.132414 -15.917189,9.711029 -3.886433,3.783732 -6.366351,7.174143 -8.611811,11.773611 -7.78086,15.937854 -4.589399,35.094651 7.943543,47.681244 7.749499,7.782672 17.984253,12.190901 29.134026,12.548371 l 0.95339,0.03057 -0.529661,-0.426193 z"
     id="path3346"
     inkscape:connector-curvature="0" /><path
     style="fill:#000000;fill-opacity:1"
     id="path3348"
     d="m 20.228324,41.221014 c -0.303612,0.942505 -0.4775,1.925486 -0.650172,2.899074 -0.221549,1.174822 -0.429872,2.352061 -0.545461,3.542494 -0.06283,0.649454 -0.0646,1.30245 -0.06229,1.95426 0.0037,0.323536 0.01441,0.646972 0.01671,0.970516 0.0026,0.137953 0.001,0.07252 0.0044,0.196291 0,0 -2.814517,1.435473 -2.814517,1.435473 l 0,0 c 0.0023,-0.126054 0.0014,-0.05957 0.0027,-0.199442 -0.0011,-0.328525 0.0037,-0.657072 0.0074,-0.985569 0.0059,-0.66652 0.0217,-1.3333 0.07637,-1.997884 0.143786,-1.208735 0.377135,-2.402371 0.613803,-3.59591 0.151731,-0.96296 0.272194,-1.935449 0.504993,-2.882643 0,0 2.846154,-1.33666 2.846154,-1.33666 z"
     inkscape:connector-curvature="0" /><path
     style="fill:#000000;fill-opacity:1"
     id="path3350"
     d="m 18.986353,54.098918 c -0.0217,0.615971 -0.01447,1.232655 -0.018,1.848979 -0.02042,0.603231 -1.33e-4,1.190561 0.143458,1.77728 0.09478,0.407541 0.273472,0.789304 0.397732,1.186399 -0.948488,0.456533 -1.85878,1.002851 -2.845465,1.369599 -0.01767,0.0066 -0.584077,-1.465061 -0.636446,-1.592285 -0.313992,-0.661241 -0.379672,-1.38177 -0.423788,-2.101333 -0.01299,-0.656408 -0.125803,-1.304353 -0.197737,-1.955555 -0.04366,-0.426827 -0.05887,-0.855973 -0.06768,-1.284739 -0.02501,-1.686631 -0.09932,-0.776797 2.823479,-1.948055 0.27858,2.973641 0.463674,5.954787 0.687352,8.932876 0.11619,1.613904 0.226348,3.23303 0.565113,4.818187 0.0578,0.420747 0.271753,0.765734 0.470392,1.126424 -0.07371,-0.116244 0.09622,0.196133 0.0914,0.140477 -0.08306,-0.95902 -1.730061,0.852146 -2.632313,1.187645 -0.1458,0.05421 0.0738,-0.302459 0.100621,-0.455683 0.03357,-0.191768 0.05361,-0.385661 0.08042,-0.578491 0.187086,-1.337382 0.286983,-2.68511 0.343215,-4.033762 0.01913,-0.586825 0.02523,-1.173879 0.01359,-1.760894 -0.05063,-1.309189 1.055561,-1.139551 2.85563,-1.854419 0.03222,-0.0128 0.174179,0.348214 0.287621,0.62437 0.433689,0.962521 0.654929,1.99538 0.947281,3.003966 0.172515,0.545833 0.299331,1.141841 0.652247,1.608137 0.181225,0.239447 0.390726,0.423034 0.606518,0.629685 0.651047,0.561983 1.408994,0.984299 2.128692,1.452005 0.379244,0.175723 0.669822,0.474253 1.00736,0.708225 0.346742,0.275066 0.470244,0.68133 0.608001,1.084985 0.297014,0.823667 0.456228,1.679159 0.567007,2.544486 0.07,0.6137 0.113328,1.230533 0.128451,1.848002 0.182705,1.376093 -1.636746,2.492413 -3.012256,2.185245 C 24.089322,74.397675 23.814812,73.876653 23.538617,73.372161 23.224608,72.73352 22.964775,72.069235 22.697963,71.409765 22.521968,70.917019 22.27395,70.469742 21.98931,70.033787 21.852511,69.795151 21.645567,69.610135 21.490848,69.385858 21.289101,69.108387 21.122024,68.808602 20.929244,68.525124 20.8075,68.291183 20.654035,68.083277 20.4524,67.913337 20.312512,67.790461 20.17171,67.669992 20.036188,67.542429 19.870042,67.399781 19.744407,67.240164 19.646695,67.045 c -0.100457,-0.262935 -0.07491,-0.547142 -0.06842,-0.822672 0.03857,-1.102849 0.02679,-2.20649 0.04733,-3.309683 0.04887,-1.19189 0.100194,-2.393906 0.336217,-3.566058 0.513686,-1.438001 0.918448,-2.902877 1.280165,-4.38604 0.475113,-2.090926 0.714317,-4.224615 0.849684,-6.361612 0.109017,-1.031332 -0.113247,-1.283467 -0.598435,-2.110324 -0.503479,-1.018377 -0.965725,-2.057391 -1.49154,-3.064603 -0.158732,-0.36576 -0.364482,-0.708275 -0.527546,-1.071475 -0.06552,-0.211071 -0.107361,-0.422249 -0.188766,-0.628357 -0.04802,-0.172518 -0.0562,-0.298206 -0.235556,-0.336447 -0.143838,-0.01251 -0.291765,-0.0022 -0.43698,0.0021 -0.169664,0.0014 -0.339347,0.0054 -0.509019,0.0046 -0.248107,-0.01364 -0.458105,-0.276598 -0.611736,-0.455328 -0.129452,-0.126851 -0.254527,-0.188795 -0.433488,-0.187075 -0.02692,-6.11e-4 -0.05715,-0.01477 -0.08076,-0.0018 -0.04407,0.02415 -0.119766,0.155055 -0.07611,0.130155 0.874309,-0.51253 1.748618,-1.02506 2.622927,-1.537589 -0.05973,0.05935 -0.03486,0.02877 -0.0768,0.08994 -0.0084,0.01624 -0.0169,0.03249 -0.02535,0.04873 -0.0036,0.01993 -0.0082,0.0397 -0.01082,0.05978 -0.02251,0.172893 0.02743,-0.0483 -0.04609,-0.01346 -0.937433,0.44418 -1.847628,0.943704 -2.771442,1.415556 0.01197,-0.241867 0.01202,-0.484323 0.0097,-0.726446 -0.0297,-0.286519 0.04485,-0.528064 0.184863,-0.774608 0.120011,-0.175117 0.190192,-0.37349 0.30578,-0.551473 0.180548,-0.24491 0.410238,-0.446056 0.597261,-0.685364 0.214415,-0.311409 0.496028,-0.565 0.74994,-0.841954 0.184527,-0.200306 0.379068,-0.393085 0.581525,-0.575702 0.974026,-0.84396 2.878342,-2.746254 3.285807,-1.100886 0.07766,0.53293 0.081,1.060065 -0.03853,1.584657 -0.207293,0.623869 -0.499622,1.215013 -0.805014,1.795692 -0.20825,0.401498 -0.390071,0.816176 -0.652718,1.186084 -0.125644,0.216805 -0.351714,0.349101 -0.473117,0.566779 -1.760843,2.958408 -2.93224,2.267263 -2.882484,0.890598 0.01141,-0.315604 0.02858,-0.35785 0.07963,-0.675912 0.07288,-0.470034 0.266246,-0.905566 0.429089,-1.348498 0.08926,-0.296668 0.12016,-0.476158 0.294361,-0.747157 0.403816,-0.562957 0.855068,-1.091062 1.293713,-1.62726 0.213122,-0.284222 0.483689,-0.521865 0.696051,-0.805794 0.172789,-0.262438 0.163565,-0.599105 0.177546,-0.902605 0.004,-0.320835 0.0018,-0.641793 -0.0081,-0.962505 -0.0059,-0.207283 -0.0049,-0.414246 9.38e-4,-0.621512 -0.02776,-0.492 0.166429,-0.93836 0.35712,-1.379272 0.02486,-0.06033 0.05005,-0.120521 0.07459,-0.18098 0.02498,-0.06154 0.09865,-0.313808 0.114052,-0.320858 2.913642,-1.333435 3.229134,-2.20894 2.823881,-1.15965 -0.454068,1.271074 1.113747,-0.0701 -2.912496,1.628719 -0.01383,0.0058 -0.01854,-0.132816 -0.02741,-0.313601 -0.02267,-0.352252 0.05261,-0.698142 0.141075,-1.036533 0.06834,-0.1836 0.172851,-0.351658 0.22781,-0.53979 0.03312,-0.222004 0.117958,-0.402974 0.270128,-0.568799 0.263718,-0.25425 0.547405,-0.487057 0.82885,-0.721282 0.214112,-0.211251 0.464756,-0.378255 0.692968,-0.572737 0.167588,-0.16085 0.366629,-0.296656 0.49519,-0.492607 0.110819,-0.198394 0.0953,-0.446398 0.145881,-0.666565 0.09504,-0.418041 0.0991,-0.845922 0.21606,-1.258583 0.178648,-0.549957 0.452286,-1.063383 0.712477,-1.578087 0.19103,-0.40052 0.427349,-0.768442 0.702278,-1.114732 0.183005,-0.20799 0.330465,-0.439998 0.520054,-0.641575 0.165145,-0.23533 0.358512,-0.442675 0.574157,-0.632093 1.040395,-0.937926 1.440165,-0.827198 3.360784,-1.637862 -0.07905,0.320986 -0.29587,0.590384 -0.487544,0.853551 -0.213066,0.312748 -0.467635,0.607355 -0.614869,0.958402 -0.08604,0.262675 -0.109661,0.538892 -0.116896,0.813534 -0.04755,0.09723 0.08958,0.771326 -0.04112,0.356129 0.307971,-1.060533 0.06262,-0.118797 -2.549859,1.344444 -0.05792,0.03244 0.114961,-0.06669 0.169598,-0.104399 0.206593,-0.14257 0.39307,-0.315585 0.58427,-0.477467 0.339013,-0.286954 0.64195,-0.618434 0.936269,-0.950956 0.398021,-0.508349 0.811587,-1.002661 1.186256,-1.529088 0.459974,-0.673864 0.8896,-1.366883 1.374675,-2.023349 0.279937,-0.409638 0.631594,-0.752634 1.011882,-1.067184 0.621281,-0.534845 1.3284,-0.959012 2.020974,-1.393541 1.628441,-1.115699 3.360337,-2.034356 5.163926,-2.811056 0.673604,-0.243333 1.341317,-0.492449 2.001022,-0.770858 0.453614,-0.150481 0.860048,-0.414019 1.303849,-0.581977 0.43294,-0.110065 0.876122,-0.156606 1.321272,-0.173553 0.317131,-0.01293 0.634634,-0.0081 0.951946,-0.0088 1.413459,0.0098 0.944425,-0.366001 -2.286203,1.853414 -0.963411,-0.05837 -1.92091,0.09609 -2.874525,0.211449 -0.741663,0.09719 -1.467277,0.291115 -2.208275,0.38952 -0.313803,0.03142 -0.62929,0.03959 -0.944439,0.04157 -0.03344,-0.02526 -0.08116,-0.03851 -0.10031,-0.07579 -0.659199,-1.283152 1.766305,-1.408211 2.832738,-1.9958 0.128506,-0.07081 0.270523,-0.113829 0.403834,-0.175109 0.265287,-0.121945 0.834591,-0.404468 1.086202,-0.528308 1.208689,-0.569317 2.439981,-1.093632 3.688536,-1.569511 0.215897,0.03236 0.407348,-0.21611 0.62476,-0.196414 0.258514,0.02342 0.306838,0.326582 0.258818,0.524858 -0.04774,0.197107 -0.461135,0.540424 -0.57508,0.647243 -2.051762,1.479566 -4.30294,2.68345 -6.489957,3.942619 -0.829191,0.400991 -1.611447,0.915913 -2.478224,1.236066 -0.529469,0.215973 -0.651152,-0.05194 -0.649588,-0.561849 0.06672,-0.130502 0.116755,-0.270984 0.200164,-0.391505 0.717872,-1.037284 2.260132,-1.939204 3.306518,-2.603701 2.141519,-1.212142 4.141655,-2.840717 6.537309,-3.487215 0.768177,-0.179685 1.541636,-0.316866 2.325557,-0.403203 0.388247,-0.03023 0.77746,-0.03611 1.166642,-0.03829 0.166269,0.0011 0.09265,0.02239 0.223859,-0.0523 -0.874246,0.489141 -1.738645,0.996316 -2.62274,1.467424 -0.0538,0.02867 0.0858,-0.08704 0.122956,-0.135361 0.539568,-0.701601 -0.08771,0.03212 0.578458,-0.718668 0.639303,-0.643932 1.39559,-1.1526809 2.177518,-1.6060095 3.077198,-1.7840276 2.096043,-1.2729212 3.619748,-2.0510009 0.55677,-0.1910494 1.065318,-0.5492117 1.647851,-0.6566035 0.479784,-0.059131 0.965442,-0.054581 1.448221,-0.056129 0.554233,0.00601 1.108485,0.00668 1.662745,0.00631 0.649695,0.00809 1.299438,0.00453 1.949164,0.00631 0.552694,-0.00112 1.105399,-0.00302 1.658068,-0.00777 0.329741,0.02165 0.53832,-0.1085623 0.784482,0.1344429 0.184942,0.472209 0.135228,1.0118063 0.04786,1.5002958 -0.0957,0.1878297 -0.17786,0.3831955 -0.287095,0.5634893 -0.679746,1.1219271 -1.624103,2.1910579 -2.473497,3.1927939 -1.360369,1.662777 -2.724592,2.137814 -4.741942,3.276315 -1.267658,0.472164 -3.663215,1.940211 1.074751,-0.780831 -0.04707,0.02831 -0.09365,0.05743 -0.141195,0.08494 -0.93986,0.543649 -1.836199,1.171261 -2.820995,1.628502 -0.131776,0.06118 -0.287231,-0.344458 -0.216721,-0.618115 0.07981,-0.309765 0.50391,-0.84 0.660024,-1.057901 1.111225,-1.340591 2.268513,-2.643948 3.420833,-3.94975 0.412481,-0.4756712 0.810583,-0.965504 1.236287,-1.4295863 1.428933,-2.0187353 3.829256,-2.2136991 2.752645,-0.4303417 -0.681132,0.8589185 -1.533051,1.5544337 -2.347259,2.280182 -1.015523,0.89906 -1.351577,0.879531 -3.282767,1.474841 -0.120387,0.03711 0.160512,-0.194483 0.2474,-0.285701 0.0909,-0.09543 0.709314,-0.690943 0.78975,-0.768662 1.169969,-1.1640151 2.393086,-1.7532343 3.936746,-2.6057589 0.05053,-0.027907 0.12936,-0.042815 0.1731,-0.00514 0.08455,0.072822 0.107626,0.1955136 0.16144,0.2932703 -0.0281,0.074133 -0.0369,0.1588466 -0.0843,0.2223986 -0.09998,0.1340628 -0.601443,0.4699189 -0.766261,0.5657816 -0.944387,0.5492814 -1.894028,1.0894804 -2.841042,1.6342204 -0.31264,0.175253 -0.446461,-0.09817 -0.558533,-0.348201 -0.28135,-0.277523 -0.670752,-0.431985 -1.039549,-0.562098 -0.968087,-0.240227 -1.976514,-0.251801 -2.968687,-0.273736 -0.599401,-0.0058 -1.205972,-0.043778 -1.794662,0.0983 -0.314821,0.07598 -0.603954,0.191804 -0.907514,0.302611 -0.616417,0.292561 -1.255569,0.540861 -1.868957,0.838441 0.909424,-0.676865 1.784462,-1.4025649 2.728271,-2.0305952 0.169899,-0.1130544 0.391919,-0.1140717 0.586623,-0.1752044 0.274458,-0.086173 0.546598,-0.1795906 0.820765,-0.2666827 1.006712,-0.3197928 2.01259,-0.6385443 3.015345,-0.970801 1.539101,-0.459303 3.050405,-1.0035076 4.578798,-1.4954324 0.18493,0.010604 0.67896,-0.2606231 0.866946,-0.2301349 0.344675,0.0559 0.366458,0.5537595 0.407085,0.7991468 0.0014,0.1673291 0.03326,0.3371851 0.0043,0.5019874 -0.260126,1.4780311 -1.876726,3.2265294 -2.849685,4.3367334 -1.306255,1.329658 -2.508686,2.750981 -3.701131,4.18156 -0.39158,0.463647 -0.758601,0.947392 -1.101526,1.447968 -0.06777,0.09893 -0.131886,0.200322 -0.198768,0.299856 -0.04087,0.06082 -0.05889,0.148509 -0.124477,0.181201 -0.934332,0.465747 -1.899297,0.867329 -2.848945,1.300993 0.07481,-0.622091 0.399027,-1.180635 0.642392,-1.75068 0.501467,-1.308029 -0.746262,-0.0694 2.972084,-1.538824 0.0084,-0.0033 -0.04562,0.0694 -0.169479,0.239275 -0.282028,0.338741 -0.566949,0.676634 -0.894477,0.972404 -0.32891,0.317212 -0.630631,0.660556 -0.969302,0.967597 -0.351819,0.307239 -0.690554,0.62863 -1.038625,0.940114 -0.359802,0.309776 -0.691515,0.649863 -1.059311,0.950258 -0.636489,0.518905 -1.119999,1.192005 -1.591956,1.856467 -0.531729,0.840171 -1.10931,1.647592 -1.709876,2.439307 -0.140007,0.0834 -0.567201,0.861059 -0.692387,0.916261 -2.990781,1.318801 -3.059526,2.19428 -2.817316,0.869278 0.246763,-0.703043 0.643707,-1.334236 1.061063,-1.946114 0.48264,-0.663614 1.031302,-1.278278 1.595223,-1.873494 0.477817,-0.505813 1.023081,-0.941493 1.559431,-1.382742 0.562948,-0.500406 1.137552,-0.989658 1.686319,-1.505861 0.461111,-0.448179 0.893132,-0.923955 1.336176,-1.389397 0.239546,-0.204622 0.411594,-0.478205 0.65308,-0.678796 0.274432,-0.264524 0.457251,-0.604839 0.678034,-0.911867 0.300952,-0.393131 0.589533,-0.793645 0.861244,-1.207541 0.663498,-1.040266 2.986569,-3.194365 3.25447,-1.409093 -0.0077,0.09746 0.0062,0.199133 -0.02316,0.292376 -0.277562,0.880744 -1.518815,2.105285 -2.142488,2.790267 -0.832475,0.966533 -1.740142,1.86335 -2.6449,2.761161 -0.863762,0.885214 -1.601221,1.877517 -2.305052,2.891032 -0.587981,0.877781 -1.208401,1.73352 -1.765602,2.631576 -0.46666,0.751076 -0.9691,1.478738 -1.461826,2.212651 -0.5574,0.815985 -1.002201,1.698574 -1.426718,2.58857 -0.179679,0.450864 -0.456644,0.857034 -0.621824,1.313386 -0.137779,0.462166 -0.102523,0.954771 -0.134315,1.431552 -0.09931,0.763837 -0.396502,1.479651 -0.662369,2.196419 -0.331306,0.994384 -0.617788,2.00196 -0.908468,3.008621 -0.219972,0.930309 -0.589243,1.813115 -0.858516,2.727989 -0.203118,0.704202 -0.397893,1.410786 -0.601315,2.114895 -0.31156,0.946496 -0.581748,1.904488 -0.806886,2.87507 -0.238408,1.026959 -0.326935,2.076724 -0.370566,3.127253 -0.02863,0.91648 -0.02376,1.833415 -0.01853,2.750166 -0.0016,0.733278 0.01297,1.466458 0.01487,2.199704 0.0033,0.728902 0.08876,1.454658 0.143333,2.181002 0.0178,0.928179 0.143316,1.84303 0.293575,2.757601 0.235267,1.296039 0.421221,2.598788 0.547496,3.909754 0.04923,0.541928 0.08487,1.084934 0.09441,1.629049 -0.0171,0.5655 -0.04494,1.12793 0.07227,1.683508 0.411606,0.985144 1.180007,1.788145 1.820679,2.631116 0.70455,0.866109 1.347887,1.779884 2.054865,2.64384 0.431043,0.526751 0.23817,0.356248 0.660635,0.653029 0.503389,-1.117389 -0.104085,0.331182 -2.53134,1.192686 -0.139929,0.04967 0.0051,-0.297383 -0.0067,-0.445394 -0.01526,-0.191191 -0.04288,-0.381376 -0.07437,-0.570573 -0.09218,-0.553897 -0.180742,-0.89004 -0.309332,-1.437609 -0.287282,-1.101087 -0.623989,-2.18835 -0.95116,-3.278039 -0.170423,-0.584503 -0.422704,-1.142645 -0.702539,-1.682002 -0.172519,-0.244074 -0.334077,-0.554466 -0.580224,-0.735046 -0.213443,-0.06465 -0.441899,-0.05256 -0.663178,-0.05203 -1.947925,0.270145 2.829918,-2.477718 2.156035,-1.325037 -0.0055,0.06947 -0.02623,0.139401 -0.01646,0.208395 0.0686,0.484666 0.223724,0.858581 0.405148,1.320627 0.381437,0.971431 0.83686,1.90548 1.292702,2.843352 0.836378,1.672989 1.663576,3.352428 2.540899,5.004662 0.658118,1.278666 1.381735,2.523875 2.105122,3.766804 0.805087,1.593754 1.748529,3.099624 2.739352,4.581867 0.533708,0.896019 1.292445,1.639086 1.828527,2.530635 0.243748,0.546819 0.583719,1.018553 0.96417,1.477863 0.550781,0.600942 1.053642,1.243806 1.591512,1.855554 0.409274,0.523891 0.848655,1.021793 1.299344,1.51003 0.602813,0.612665 1.211768,1.220091 1.849971,1.796212 0.513208,0.374825 1.01446,0.777431 1.598952,1.035874 0.338989,0.184837 0.654524,0.403413 0.967462,0.62662 0.347876,0.138165 0.727803,0.149219 1.097124,0.163724 0.438684,0.01201 0.877567,0.0096 1.316306,0.0027 0.160042,-0.002 0.320084,-0.0016 0.480122,-0.004 0.04013,-5.83e-4 0.154342,-0.02352 0.120388,-0.0021 -2.706549,1.705854 -1.824665,2.199841 -2.87699,1.525776 -0.920143,-0.487441 -1.759861,-1.099485 -2.59809,-1.713198 -0.949685,-0.705929 -1.867157,-1.452096 -2.781037,-2.20322 -0.571236,-0.475164 -1.118764,-0.976786 -1.678705,-1.464316 -0.390489,-0.344657 -0.744323,-0.729858 -1.104616,-1.105607 -0.241699,-0.276797 -0.538497,-0.499571 -0.828487,-0.723283 0.07431,-0.04436 -0.23531,-0.04434 -0.17933,-0.07766 0.91545,-0.54475 1.801534,-1.156683 2.782683,-1.571592 0.122967,-0.052 0.195366,0.182107 0.29623,0.269581 0.469514,0.407188 0.554122,0.459603 1.080831,0.867361 1.058644,0.817277 2.091814,1.67853 2.972612,2.688512 0.384992,0.434655 0.644032,0.95299 0.890238,1.473151 0.207578,0.354789 0.298812,0.745164 0.356282,1.147078 0.04022,0.328858 0.07368,0.631618 -0.08493,0.931412 -2.927467,1.799366 -2.327739,1.719377 -4.778287,1.785674 -0.607907,0.01696 -1.215962,0.0194 -1.824048,0.02032 -0.526656,0.05967 -0.913789,-0.125415 -1.338339,-0.412769 -0.625207,-0.457114 -1.227984,-0.945082 -1.820851,-1.443272 -0.775762,-0.767291 -1.541079,-1.546614 -2.362819,-2.264922 -0.836425,-0.794008 -1.776468,-1.459253 -2.728943,-2.103703 -0.855363,-0.583766 -1.776918,-1.04251 -2.71872,-1.46661 -0.650244,-0.30336 -1.310233,-0.583905 -1.96997,-0.865905 -1.298795,-0.534455 1.421016,-1.387072 2.408168,-1.996891 0.02158,-0.01333 0.92153,0.267438 0.94586,0.275558 1.1618,0.414739 2.290946,0.910731 3.446753,1.340756 0.901438,0.335735 1.799752,0.680517 2.70155,1.015579 0.794174,0.220971 1.51142,0.589339 2.189704,1.050277 0.71686,0.484882 1.357115,1.063284 1.997731,1.641436 0.478835,0.426934 0.823061,0.959307 1.161709,1.496374 0.214828,0.389244 0.547446,0.667466 0.87787,0.952249 0.152216,0.194504 0.393624,0.236928 0.585144,0.365298 0.22383,0.120038 0.302947,0.311201 0.355288,0.54758 -0.945449,0.541002 -1.872192,1.116094 -2.836349,1.623006 -0.04618,0.02428 -0.596975,-0.02587 -0.624133,-0.03086 -0.542554,-0.09978 -1.069175,-0.311539 -1.582432,-0.505465 -0.98729,-0.332429 -1.918193,-0.809639 -2.810961,-1.34204 C 46.185068,91.398309 45.485119,90.941145 44.779375,90.490371 44.25409,90.125691 43.730884,89.75719 43.180807,89.430495 42.103025,88.757578 40.928,88.264578 39.822689,87.642215 38.81194,87.05989 37.884934,86.354384 36.956321,85.652564 c -0.66402,-0.543261 -1.339115,-1.066657 -2.051832,-1.544612 -0.673536,-0.473023 -1.338663,-0.96063 -2.03699,-1.396779 -0.53219,-0.368282 -1.009655,-0.808 -1.50842,-1.219714 -0.590598,-0.462576 -1.050901,-1.058673 -1.522256,-1.635968 -0.483539,-0.617004 -0.969281,-1.226778 -1.492192,-1.8107 -0.378508,-0.430213 -0.77162,-0.847014 -1.170841,-1.257926 -0.423825,-0.419397 -0.822574,-0.863031 -1.239784,-1.288333 -0.305638,-0.287456 -0.631887,-0.586663 -1.011463,-0.77444 -0.149292,-0.07841 -0.306931,-0.08873 -0.471538,-0.07945 -1.053942,0.135887 -0.380846,0.05375 2.653834,-1.515341 0.04686,-0.02423 -0.03557,0.09991 -0.04426,0.151937 -0.04417,0.264546 -0.03227,0.549373 -0.0404,0.81612 -0.06709,0.769633 0.06689,1.510092 0.29178,2.241882 0.142248,0.619819 0.515286,1.043974 1.044223,1.370219 0.672062,0.442229 1.450433,0.655641 2.189993,0.954798 1.008829,0.42059 2.031984,0.805368 3.041428,1.224365 1.120467,0.400138 2.155606,0.985072 3.180549,1.580225 0.872937,0.60687 1.802909,1.12633 2.64472,1.776798 0.661851,0.559498 1.333887,1.104846 1.954294,1.710676 0.312011,0.319107 0.684205,0.545809 1.056744,0.780824 1.522869,0.956891 -1.449148,1.680969 -2.360574,2.23225 -0.662283,-0.110935 -1.304522,-0.320667 -1.939979,-0.53389 -0.598742,-0.215628 -1.157329,-0.479183 -1.665522,-0.863745 -0.605802,-0.514078 -1.186914,-1.055048 -1.787666,-1.574838 -0.584568,-0.468595 -1.140486,-0.973162 -1.724246,-1.442889 -0.471374,-0.407738 -1.000458,-0.743079 -1.471256,-1.150328 -1.307023,-1.281267 -0.555741,-0.676102 2.107244,-2.391355 1.697407,1.31541 3.41479,2.604992 5.137721,3.886753 1.374035,0.924798 2.682225,1.971989 4.16087,2.73223 0.653125,0.335804 1.823323,0.82693 2.489148,1.114307 2.136275,0.937193 4.358865,1.668869 6.499494,2.5944 0.479643,0.20738 0.947829,0.440313 1.421744,0.66047 1.848499,0.875383 3.643184,1.853288 5.445099,2.818448 0.221415,0.10527 0.417369,0.255278 0.632901,0.370696 1.182799,0.633389 1.479292,-0.37533 -2.303793,1.571372 C 56.34077,94.810454 55.3948,94.054441 54.631956,93.138852 53.863084,92.216028 53.15897,91.241099 52.416413,90.296969 50.383878,87.712686 48.336566,85.140059 46.299306,82.559498 41.309941,76.380772 36.874653,69.785271 32.362009,63.257963 c -0.777987,-1.136965 -1.548584,-2.278946 -2.330177,-3.413439 0,0 2.656046,-1.541255 2.656046,-1.541255 l 0,0 c 0.642765,1.2122 1.324178,2.403149 2.009209,3.591863 0.858493,1.444648 1.838117,3.10808 2.716645,4.511942 3.269802,5.225049 6.786752,10.2975 10.685397,15.076103 2.478849,3.027434 3.784803,4.709411 6.38932,7.563972 0.819417,0.898084 1.670807,1.766982 2.532562,2.624524 0.621701,0.61866 1.554941,1.40329 2.231722,2.023923 0.176039,0.161435 0.344658,0.330781 0.516987,0.496171 0.08139,0.137901 0.373233,0.318922 0.244169,0.413702 -2.507942,1.841752 -2.294493,1.901373 -3.849822,0.884106 C 54.46138,94.435713 52.726792,93.433629 50.915375,92.575561 50.440001,92.362332 49.969598,92.137654 49.489253,91.935873 47.333888,91.03046 45.103839,90.303058 42.969041,89.345136 42.352124,89.081385 41.036757,88.531383 40.431299,88.224135 38.941725,87.468232 37.659617,86.38063 36.290608,85.437581 35.183952,84.622699 34.077855,83.80524 32.94989,83.019843 c -0.275947,-0.192141 -1.21849,-0.84068 -1.586184,-1.034554 -0.106589,-0.0562 -0.227799,-0.07866 -0.341698,-0.117989 3.164732,-2.168776 1.852932,-2.316886 3.110605,-1.11869 0.464917,0.403307 0.965502,0.763499 1.433709,1.163145 0.580449,0.480948 1.166321,0.955697 1.736606,1.448234 0.586298,0.522501 1.157229,1.06399 1.779283,1.544475 0.500443,0.340449 1.042686,0.584069 1.612094,0.788533 0.578513,0.198069 1.242351,0.46858 1.856137,0.342065 -0.849873,0.535773 -1.718839,1.042393 -2.549618,1.607319 -0.03008,0.02045 0.0491,0.06137 0.08471,0.06881 0.130076,0.02716 -0.440289,-0.373503 -0.304318,-0.271504 -0.389037,-0.24231 -0.736847,-0.536641 -1.064436,-0.8572 -0.600527,-0.601678 -1.236272,-1.166257 -1.902528,-1.694523 -0.84387,-0.622866 -1.736209,-1.172916 -2.606767,-1.757176 -1.018847,-0.592037 -2.056604,-1.149194 -3.173725,-1.536857 -1.008812,-0.424071 -2.027454,-0.825071 -3.050911,-1.212302 -0.761236,-0.300497 -1.558626,-0.5252 -2.239568,-0.995633 -0.565638,-0.387798 -1.010166,-0.865014 -1.156346,-1.557396 -0.219083,-0.75842 -0.389946,-1.526465 -0.340157,-2.321891 -0.01243,-1.382249 -0.187751,-3.209772 2.779832,-2.704505 0.191185,0.03658 0.370883,0.101708 0.534613,0.209699 0.374683,0.247651 0.723,0.541945 1.035921,0.863434 0.405361,0.437421 0.816289,0.867866 1.244009,1.283916 0.397678,0.416867 0.785787,0.842297 1.160587,1.279957 0.51595,0.593503 0.998843,1.209753 1.482588,1.829936 0.462504,0.564021 0.940569,1.116672 1.513301,1.573387 0.481801,0.410274 0.964541,0.822834 1.477647,1.193434 0.686608,0.457562 1.357442,0.938238 2.037919,1.404819 0.7084,0.487203 1.378949,1.022192 2.037553,1.574417 0.907384,0.703914 1.828402,1.391834 2.826296,1.964655 1.113183,0.63005 2.283293,1.151018 3.4071,1.761671 0.560522,0.321531 1.076371,0.712055 1.61347,1.070778 0.683246,0.46615 1.377589,0.912307 2.094989,1.325058 0.885878,0.510153 1.802436,0.970432 2.771629,1.302188 0.507212,0.179619 1.013908,0.365438 1.557165,0.398738 1.190332,0.07296 2.783202,-1.373947 -1.955638,1.485113 0.245301,0.238262 0.005,-0.06663 -0.09749,-0.08557 -0.229395,-0.10114 -0.421844,-0.256063 -0.601774,-0.429244 -0.352293,-0.3076 -0.678617,-0.634804 -0.917716,-1.041785 -0.305856,-0.524134 -0.640147,-1.022626 -1.09498,-1.432505 -0.62302,-0.573358 -1.241338,-1.154333 -1.95966,-1.610364 -0.66981,-0.438485 -1.396068,-0.736533 -2.153784,-0.991364 -0.889525,-0.349483 -1.788539,-0.673648 -2.674553,-1.032128 -1.150593,-0.439874 -2.268213,-0.970948 -3.458846,-1.299909 -0.179851,-0.04065 -0.497327,-0.132326 -0.702018,-0.116909 -0.06069,0.0046 -0.221599,0.0956 -0.172674,0.05939 2.723362,-2.01562 1.589354,-2.232689 2.678621,-1.698789 0.6352,0.309039 1.281449,0.592764 1.917711,0.899658 0.953614,0.435229 1.879944,0.917814 2.744946,1.514141 0.950579,0.663584 1.892934,1.33885 2.733942,2.141568 0.82729,0.715355 1.587456,1.503617 2.398813,2.23716 0.581552,0.492843 1.178076,0.971205 1.814104,1.39236 0.430459,0.237132 0.760287,0.300818 1.2538,0.263673 0.593461,0.0059 1.187096,0.01095 1.780501,-0.0019 0.441563,-0.0149 0.884651,-0.02386 1.322033,-0.09358 1.085455,-0.173028 2.693388,-1.501858 -1.941911,1.322398 0.363717,-0.117356 0.201152,-0.341511 0.209497,-0.665661 -0.03368,-0.373828 -0.109155,-0.733423 -0.292293,-1.066274 -0.233372,-0.496152 -0.4765,-0.988445 -0.815094,-1.423861 -0.827241,-1.019114 -1.817982,-1.890034 -2.873998,-2.666373 -0.788329,-0.562948 -0.462379,-0.324195 -1.154272,-0.838353 -0.117079,-0.087 -0.456574,-0.160703 -0.350988,-0.261345 1.779241,-1.695919 1.742983,-2.390762 2.739269,-1.673184 0.28685,0.245283 0.585212,0.480032 0.832084,0.767682 0.352464,0.370757 0.694491,0.754031 1.078278,1.092815 0.543391,0.498258 1.085906,0.996829 1.648365,1.473731 0.879849,0.770418 1.782676,1.515241 2.721985,2.212297 0.856478,0.610499 1.742496,1.171784 2.677138,1.655561 0.07895,0.05756 0.310539,0.108534 0.236841,0.172676 -1.979275,1.722634 -1.689479,1.854448 -3.136436,1.835662 -0.440581,-0.0042 -0.88159,-6.93e-4 -1.321722,-0.02288 -0.418173,-0.03267 -0.847883,-0.07454 -1.209858,-0.30645 C 55.43425,93.384524 55.124677,93.19011 54.804875,93.015781 54.22253,92.7058 53.70599,92.294272 53.191527,91.88416 52.552388,91.296381 51.932162,90.687941 51.319611,90.073044 50.856737,89.587676 50.410102,89.088188 50.000943,88.556143 49.486757,87.925736 48.983194,87.285892 48.428345,86.689652 48.024285,86.224418 47.640292,85.754374 47.405768,85.178469 46.923127,84.26826 46.223734,83.48768 45.698273,82.602941 44.709326,81.113435 43.777503,79.59287 42.933198,78.015684 42.202619,76.771988 41.443267,75.539456 40.815107,74.240225 39.95353,72.575354 39.203322,70.85541 38.340834,69.190562 c -0.477639,-0.93462 -0.932629,-1.873779 -1.360653,-2.832241 -0.139686,-0.312795 -0.446037,-0.98748 -0.556608,-1.350864 -0.02949,-0.09691 -0.03195,-0.20007 -0.04792,-0.300105 0.165171,-1.311889 1.991564,-1.954542 3.239134,-1.863224 0.281212,0.01817 0.565579,0.04529 0.78929,0.23575 0.240728,0.250485 0.43864,0.551419 0.621011,0.844836 0.274784,0.565651 0.512353,1.151943 0.687885,1.756427 0.302264,1.106383 0.626172,2.20676 0.903215,3.319993 0.161495,0.672111 0.345195,1.33936 0.45769,2.022008 0.0262,0.159018 0.18543,0.369384 0.06711,0.478807 -2.325318,2.150465 -1.688878,2.341057 -2.897887,1.835596 -0.998203,-1.034112 -1.689612,-2.336297 -2.654755,-3.401976 -0.69981,-0.856441 -1.553833,-1.652275 -1.97708,-2.690786 -0.170361,-0.60176 -0.135532,-1.116118 -0.1409,-1.732691 0.0069,-0.546501 0.008,-1.093327 -0.02314,-1.639265 -0.07926,-1.309439 -0.231832,-2.614019 -0.494596,-3.900301 -0.194206,-0.911383 -0.376367,-1.821502 -0.369492,-2.758557 -0.04516,-0.732207 -0.14504,-1.461044 -0.164966,-2.193323 1.8e-4,-0.736705 0.01142,-1.473391 0.0061,-2.210115 0.0017,-0.922764 -0.0027,-1.845815 0.02473,-2.768255 0.04405,-1.070775 0.122973,-2.141305 0.367389,-3.188318 0.217111,-0.963879 0.44259,-1.924674 0.743464,-2.866416 0.214778,-0.706665 0.416252,-1.417049 0.629101,-2.12418 0.253747,-0.925951 0.644415,-1.804869 0.873278,-2.73874 0.30413,-1.002986 0.568755,-2.017928 0.885924,-3.017261 0.241468,-0.697144 0.531066,-1.383003 0.670025,-2.110295 0.05006,-0.49438 -0.0039,-0.993165 0.072,-1.48432 0.152237,-0.493662 0.43493,-0.914061 0.661091,-1.376292 0.441319,-0.891855 0.860376,-1.798614 1.414802,-2.628148 0.479544,-0.732419 0.985619,-1.447534 1.444087,-2.193601 0.561827,-0.918139 1.231684,-1.763175 1.812682,-2.668951 0.695663,-1.023523 1.426291,-2.022304 2.263084,-2.936806 0.924053,-0.901148 1.85365,-1.799684 2.706428,-2.769699 0.535024,-0.580337 1.076409,-1.15766 1.560799,-1.782047 0.05637,-0.07266 0.477971,-0.653353 0.54735,-0.793155 0.03232,-0.06513 0.03504,-0.141132 0.05255,-0.211698 -0.115399,-1.358633 3.718016,-2.668895 2.39199,-1.293785 -0.301314,0.388638 -0.52994,0.832243 -0.857744,1.203148 -0.216938,0.317858 -0.438337,0.629919 -0.640434,0.958572 -0.241229,0.276334 0.0691,-0.05806 -0.1997,0.168028 -0.178496,0.150134 -0.293379,0.374355 -0.47348,0.523962 -0.490869,0.424499 -0.885047,0.955425 -1.363046,1.394887 -0.527096,0.543858 -1.135755,0.999647 -1.672605,1.534344 -0.54516,0.426744 -1.078028,0.876547 -1.582048,1.350166 -0.572159,0.577867 -1.111047,1.188415 -1.613176,1.828269 -0.417988,0.578087 -0.796492,1.18035 -1.080466,1.836938 -0.49302,1.180276 0.0026,0.114422 -2.932229,1.619655 -0.04739,0.02431 0.112646,-0.0074 0.154659,-0.04017 0.244464,-0.190507 0.396977,-0.597398 0.63084,-0.800875 0.60188,-0.796812 1.230135,-1.57552 1.738946,-2.438292 0.455557,-0.669938 0.913998,-1.347676 1.497623,-1.914668 0.373316,-0.289585 0.720153,-0.603357 1.058657,-0.933763 0.35359,-0.304624 0.682756,-0.631066 1.043504,-0.926322 0.318568,-0.32573 0.678352,-0.613066 0.971511,-0.966926 0.297641,-0.311836 0.644113,-0.579368 0.902895,-0.932146 0.907591,-1.040591 -0.899761,0.305603 3.106203,-1.512636 0.01091,-0.005 -0.02394,-0.01872 -0.03387,-0.01203 -0.03033,0.02043 -0.05453,0.05076 -0.07161,0.08309 -0.03313,0.06268 -0.05138,0.132152 -0.07707,0.198229 -0.152811,0.374253 -0.352695,0.728242 -0.504977,1.102104 -0.03993,0.09803 -0.05866,0.204159 -0.101965,0.30075 -0.02333,0.05204 -0.06419,0.09429 -0.09629,0.141439 -0.936763,0.478775 -1.862194,0.980402 -2.81029,1.436326 -0.07002,0.03367 0.116709,-0.10371 0.165256,-0.16437 0.31805,-0.397404 0.587022,-0.837826 0.903027,-1.238427 0.153386,-0.194449 0.313509,-0.383487 0.470264,-0.575231 1.217022,-1.430862 2.406599,-2.889697 3.746043,-4.210164 0.754071,-0.826547 1.497357,-1.661593 2.114596,-2.599244 0.277822,-0.4220414 0.614606,-0.9621476 0.717056,-1.4823168 0.0289,-0.1467406 -0.005,-0.2990776 -0.0075,-0.4486164 -0.01544,-0.098128 -0.02671,-0.1970038 -0.04633,-0.2943826 -0.0055,-0.027499 -0.0041,-0.065907 -0.0289,-0.079035 -0.04004,-0.021207 -0.83458,0.2312204 -0.889,0.2348995 -1.493168,0.458364 -2.973657,0.957866 -4.467208,1.4153036 -1.016317,0.3404983 -2.038648,0.6619827 -3.055035,1.0021097 -0.288002,0.09638 -0.574837,0.196219 -0.861598,0.29623 -0.214391,0.07477 -0.799352,0.39164 -0.641835,0.228109 0.662306,-0.687598 1.463106,-1.2268183 2.194659,-1.8402275 0.615004,-0.2451902 1.206088,-0.5483063 1.829477,-0.7735052 0.377224,-0.1220592 0.568017,-0.1984123 0.956774,-0.2677848 0.596484,-0.1064408 1.205424,-0.044493 1.806315,-0.04048 1.023786,0.037484 2.070075,0.045838 3.060909,0.332875 0.435417,0.1709389 0.919161,0.3514876 1.207274,0.7397915 0.109991,0.2167221 -0.02347,0.054103 0.259152,-0.063678 -0.842721,0.4882678 -1.686834,0.974139 -2.528161,1.464803 -0.06114,0.03566 0.12724,-0.06254 0.187477,-0.09971 0.166175,-0.10254 0.415004,-0.357088 0.587072,-0.416731 0.05175,-0.01794 0.109191,0.0087 0.163786,0.01311 0.05646,0.06709 0.146232,0.116688 0.169375,0.201261 0.01005,0.03674 -0.06561,0.0387 -0.09841,0.05805 0.807186,-0.4751655 1.614372,-0.9503316 2.421558,-1.4254977 0.116428,-0.066073 -0.219868,0.1530451 -0.325122,0.2357663 -0.215378,0.1692709 -0.577234,0.4934227 -0.775305,0.6677813 -0.139731,0.1357901 -0.82778,0.8828311 -0.984508,0.9587801 -5.209703,2.524594 -3.445359,1.76088 -2.451551,0.949162 0.804089,-0.711163 1.655592,-1.374107 2.348073,-2.2013703 1.242193,-1.5226234 -1.372246,0.4266583 3.1105,-2.029709 0.0307,-0.016821 -0.0689,0.012427 -0.103346,0.018641 -0.493605,0.4345803 -0.893331,0.9733529 -1.342115,1.4522327 -1.17396,1.2822716 -2.33909,2.5756656 -3.438757,3.9223396 -0.130697,0.17891 -0.265449,0.354928 -0.392093,0.536731 -0.08285,0.118932 -0.146363,0.251332 -0.236139,0.365125 -0.03023,0.03832 -0.07941,0.05677 -0.119109,0.08516 -0.0097,-0.02673 -0.0042,-0.09377 -0.02925,-0.08019 -0.866357,0.470368 -1.703124,0.993327 -2.557725,1.484731 -0.05077,0.02919 0.09726,-0.06527 0.145885,-0.0979 1.532143,-0.88325 2.718321,-1.643485 4.26424,-2.274949 -0.759072,0.445753 -1.520387,0.88771 -2.277217,1.337261 -0.122525,0.07278 0.253017,-0.131797 0.374156,-0.20686 0.116838,-0.0724 0.229207,-0.152084 0.338863,-0.234958 0.407284,-0.307807 0.761847,-0.675631 1.095626,-1.060328 0.998996,-1.130848 1.993819,-2.283718 2.76034,-3.5892922 0.10179,-0.3715818 0.08866,-0.6227791 0.06597,-0.9995183 -0.009,-0.1495446 -0.04485,-0.1057742 0.0071,-0.1560907 -0.196248,0.073013 -0.439013,-0.022484 -0.64427,0.013839 -0.545544,-0.00476 -1.091125,-0.00656 -1.636695,-0.00786 -0.654448,0.0015 -1.308894,-0.00234 -1.963332,0.003 -0.55476,-0.00346 -1.109552,-0.00837 -1.664308,-0.00132 -0.470246,0.00529 -0.948895,0.00137 -1.406255,0.1250373 -0.528641,0.19319 -1.04068,0.434977 -1.552919,0.666764 -1.204599,0.6349127 -0.430977,0.2352923 1.604842,-0.9578214 0.197405,-0.1156913 -0.400902,0.2209377 -0.596486,0.3396813 -0.560045,0.3400162 -1.097962,0.7182023 -1.577407,1.1664399 -0.06857,0.072468 -0.482142,0.4950131 -0.555972,0.6205371 -0.03985,0.06775 3.33e-4,0.183677 -0.06558,0.226484 -2.481261,1.611363 -1.770665,1.644534 -3.065426,1.633328 -0.374907,-0.0011 -0.750372,0.0087 -1.123442,0.04813 -0.757296,0.0812 -1.504965,0.226813 -2.244219,0.409685 -0.495302,0.155808 -0.595262,0.168921 -1.074732,0.397146 -0.189227,0.09007 -0.735511,0.401676 -0.555823,0.293827 4.123572,-2.474969 1.112221,-0.614914 0.273882,-0.142276 -1.234797,0.768456 -2.516511,1.540977 -3.446494,2.682083 -0.117764,0.261085 -0.03384,0.01584 -0.04408,0.190648 -8.03e-4,0.01373 -0.01973,-0.02758 -0.01253,-0.0393 0.01181,-0.01923 0.03726,-0.02606 0.05805,-0.03484 0.09428,-0.03982 0.19828,-0.05413 0.288713,-0.104508 0.807724,-0.353132 1.579585,-0.784109 2.359092,-1.193988 -0.620067,0.36043 -1.239828,0.721388 -1.860202,1.08129 -0.248842,0.144362 0.498366,-0.287576 0.745602,-0.43467 0.661823,-0.393751 1.311373,-0.810502 1.958749,-1.227451 0.153674,-0.09897 0.303287,-0.204118 0.454931,-0.306177 0.162534,-0.140973 0.507422,-0.579057 0.767848,-0.452561 0.02194,0.01066 -0.04607,0.01607 -0.06935,0.02335 -0.443088,0.138518 -0.06059,0.01156 -0.582084,0.190228 -1.237612,0.462627 -2.454009,0.98474 -3.639541,1.568151 -0.501816,0.246214 -0.62522,0.309362 -1.122417,0.543421 -0.144128,0.06785 -0.569284,0.284343 -0.433733,0.200661 0.805509,-0.497276 1.630688,-0.961962 2.446032,-1.442943 -0.208203,-0.266009 -0.267684,-0.170837 -0.182572,-0.282896 0.301119,-0.0032 0.602682,-0.01698 0.900848,-0.06161 0.717853,-0.110315 1.431769,-0.24641 2.152494,-0.338095 0.986835,-0.111898 1.973331,-0.245031 2.968725,-0.236389 -2.180369,1.677934 -1.47848,1.885513 -2.809938,1.848164 -0.3094,-0.0033 -0.618967,-0.0018 -0.927987,0.01571 -0.426585,0.03413 -0.858617,0.08764 -1.253899,0.261735 -0.417724,0.209122 -0.852061,0.386318 -1.285175,0.560721 -0.653996,0.271174 -1.325787,0.493328 -1.981707,0.759244 -0.42601,0.182244 -0.845683,0.367661 -1.256437,0.582796 -0.142034,0.07439 -0.561431,0.309822 -0.423492,0.228086 2.804427,-1.661772 2.843884,-1.695988 1.811854,-1.029436 -0.676824,0.427399 -1.373917,0.831515 -2.000947,1.330932 -0.35348,0.335554 -0.779852,0.601863 -1.048619,1.022605 -0.526391,0.625137 -0.947863,1.326863 -1.394494,2.009409 -0.352804,0.533066 -0.742738,1.037161 -1.153438,1.526643 -0.240824,0.388368 -0.611787,0.682905 -0.908827,1.027502 -1.082139,0.81623 -2.315034,2.58094 -3.722731,2.179535 -0.05022,-0.06195 -0.109397,-0.117599 -0.150659,-0.185841 -0.05401,-0.08933 0.05107,-0.419636 0.0024,-0.524183 0.0032,-0.302198 0.01136,-0.605661 0.08616,-0.900708 0.02714,-0.112722 0.05849,-0.273267 0.112356,-0.37852 0.12347,-0.24127 0.347946,-0.430272 0.461909,-0.679069 0.185559,-0.231811 0.347051,-0.483141 0.522184,-0.713678 4.535488,-2.126295 3.405616,-1.867468 2.402863,-0.919706 -0.218141,0.175403 -0.443741,0.340649 -0.599247,0.573693 -0.07833,0.11683 -0.189125,0.186898 -0.267378,0.29704 -0.08349,0.117521 -0.137117,0.256737 -0.25701,0.351075 -0.28151,0.336755 -0.567416,0.664077 -0.747838,1.071664 -0.282824,0.481897 -0.518683,1.000238 -0.721554,1.520156 -0.151668,0.395125 -0.162566,0.805058 -0.223341,1.221353 -0.04385,0.246585 -0.09136,0.482419 -0.09084,0.736165 -0.103185,0.250754 -0.246346,0.436025 -0.461291,0.60641 -0.224789,0.204028 -0.454745,0.396169 -0.705548,0.568315 -0.251967,0.26078 -0.55329,0.462007 -0.816702,0.710642 -0.136249,0.114422 -0.328729,0.216335 -0.332967,0.402293 -0.04401,0.210785 -0.106888,0.403762 -0.218121,0.590701 -0.166708,0.249193 -0.198022,0.620486 -0.207446,0.912208 0.0022,0.04956 0.0041,0.09913 0.0066,0.148676 0.0017,0.03394 0.03516,0.08479 0.0057,0.101772 -3.826918,2.207469 -2.93689,2.459996 -2.72895,1.214922 0.341337,-1.109696 0.0033,-0.08593 2.931072,-1.462307 0.01722,-0.0081 -0.03626,0.01689 -0.04672,0.03278 -0.0876,0.133113 -0.106483,0.311516 -0.192606,0.445585 -0.173444,0.403568 -0.427722,0.80048 -0.396846,1.256357 0.0062,0.205353 0.0078,0.410496 0.0053,0.615924 -0.005,0.326167 -0.0019,0.652376 -0.0046,0.978564 0.0023,0.353542 -0.0089,0.708459 -0.08882,1.054602 -0.18658,0.325592 -0.46081,0.571088 -0.707604,0.852119 -0.447702,0.520185 -0.894244,1.045125 -1.305566,1.593436 -0.01659,0.0243 -0.207917,0.247806 -0.230977,0.317047 -0.03689,0.110764 -0.0081,0.252911 -0.06898,0.360023 -0.178532,0.431373 -0.386496,0.855475 -0.492501,1.31166 -0.411891,2.015779 1.000248,0.477373 -2.888739,2.513473 -0.01563,0.0082 0.02156,-0.02792 0.03234,-0.04189 0.0803,-0.278894 0.22125,-0.471189 0.459986,-0.643234 0.07517,-0.105258 0.166232,-0.198649 0.240208,-0.304752 0.183713,-0.263497 0.290518,-0.573438 0.440651,-0.855026 0.323896,-0.556703 0.609659,-1.134655 0.85096,-1.732079 0.145228,-0.472002 0.139084,-0.946561 0.07364,-1.435075 -0.0025,-0.01352 -0.02438,-0.162069 -0.04662,-0.196602 -0.0063,-0.0097 0.0083,0.02518 0.0017,0.03462 -0.01214,0.01725 -0.06997,0.04704 -0.05172,0.03645 2.623368,-1.521792 3.392523,-2.16065 2.506501,-1.435366 -0.225298,0.157136 -0.396976,0.355852 -0.609619,0.525503 -0.240836,0.289054 -0.525697,0.530004 -0.762933,0.820868 -0.175736,0.248192 -0.360363,0.477899 -0.583578,0.686972 -0.148564,0.156177 -0.24777,0.32238 -0.317238,0.528138 -0.147108,0.195538 -0.30002,0.348228 -0.261012,0.608566 -0.0022,0.245836 -0.0014,0.491701 -0.0024,0.737539 -2.057933,1.202823 -2.813719,2.673999 -2.830996,1.24968 0.222942,-1.211208 1.891695,-2.141287 3.066754,-1.829205 0.215677,0.07143 0.389427,0.199428 0.542839,0.367342 0.136284,0.152554 0.257517,0.260343 0.468484,0.225487 0.171105,-0.0028 0.342283,-0.0028 0.513405,-0.0022 0.177817,0.0082 0.357383,0.01654 0.514287,0.111299 0.201558,0.131601 0.311953,0.307391 0.355446,0.543816 0.07839,0.206041 0.152162,0.403676 0.181744,0.623029 0.140845,0.367313 0.342023,0.709164 0.471489,1.081886 0.467548,1.024315 0.889154,2.072358 1.46226,3.04478 0.562621,0.850939 0.816146,1.224422 0.645243,2.30765 -0.223927,2.158647 -0.504192,4.314869 -0.925798,6.444493 -0.298742,1.456357 -0.620148,2.907832 -1.115333,4.312296 -0.325082,1.147188 -0.415719,2.348512 -0.440347,3.536525 0.01936,1.087379 0.004,2.175215 0.04272,3.262223 0.0075,0.228629 0.0037,0.459931 0.03529,0.686728 0.06845,0.164297 0.190005,0.280411 0.325155,0.394369 0.13561,0.126 0.276514,0.246412 0.412937,0.371603 0.20053,0.202444 0.374205,0.428258 0.504835,0.68247 0.184076,0.286019 0.35234,0.581718 0.563353,0.849397 0.162177,0.225128 0.369715,0.418227 0.494559,0.670317 0.274952,0.462244 0.534992,0.925821 0.714237,1.435908 0.258894,0.649586 0.496588,1.309994 0.810226,1.935276 0.211684,0.376765 0.473766,0.92041 0.974247,0.923084 1.029331,-0.462768 -0.161819,0.06776 -2.464538,1.492961 -0.02609,0.01615 0.06484,0.0082 0.09182,-0.0064 0.113481,-0.06142 0.02393,-0.297504 0.054,-0.386021 10e-4,-0.614445 -0.0061,-1.229473 -0.06813,-1.84145 -0.09424,-0.843269 -0.251709,-1.672781 -0.555943,-2.468609 -0.133663,-0.338124 -0.245407,-0.686983 -0.548252,-0.912445 -0.311748,-0.252889 -0.620563,-0.503718 -0.966108,-0.711701 -0.722947,-0.488456 -1.4721,-0.947198 -2.136085,-1.514631 -0.218838,-0.214075 -0.469034,-0.44246 -0.653351,-0.689043 -0.369745,-0.494653 -0.499716,-1.114679 -0.672429,-1.694288 -0.288624,-0.991409 -0.482053,-2.017921 -0.959682,-2.944951 -0.05065,-0.09891 -0.100603,-0.198172 -0.151946,-0.29672 -0.0095,-0.01817 -0.04811,-0.04298 -0.03046,-0.05339 0.887122,-0.523072 1.805749,-0.99151 2.692054,-1.515964 0.06162,-0.03646 -0.37612,0.0037 -0.145989,0.141901 -0.01719,0.603994 -0.04116,1.207988 -0.08045,1.810975 -0.0829,1.353871 -0.209055,2.703803 -0.340464,4.053776 -0.01747,0.193643 -0.03352,0.387421 -0.0524,0.580931 -0.01529,0.156612 0.06928,0.366907 -0.05012,0.469402 -0.311259,0.267197 -2.399467,2.956292 -3.010633,1.577885 -0.202422,-0.397641 -0.411187,-0.785293 -0.468722,-1.238201 -0.241942,-1.645282 -0.305813,-3.306052 -0.354913,-4.967057 -0.147712,-2.93759 -0.3182,-5.893813 -0.914116,-8.780385 3.214358,-2.066521 2.693271,-2.667542 2.723081,-0.938949 8.91e-4,0.423162 0.0045,0.846617 0.03965,1.268642 0.05693,0.660317 0.162195,1.316987 0.174477,1.980387 0.04259,0.684542 0.10279,1.371619 0.38883,2.005382 0.174749,0.430935 0.319914,0.877851 0.515972,1.299838 0.03779,0.08134 0.198855,0.182737 0.127432,0.236992 -0.835853,0.634929 -1.772927,1.124219 -2.65939,1.686328 0.01111,-0.358588 -0.325783,-0.818725 -0.352161,-1.188898 -0.152841,-0.613039 -0.216082,-1.215731 -0.169078,-1.848937 -0.0035,-0.610205 0.0039,-1.220795 -0.018,-1.830632 0,0 2.803215,-1.428309 2.803215,-1.428309 z"
     inkscape:connector-curvature="0" /></svg>