<?xml version="1.0" encoding="UTF-8" standalone="no"?>
<svg
   xmlns:dc="http://purl.org/dc/elements/1.1/"
   xmlns:cc="http://creativecommons.org/ns#"
   xmlns:rdf="http://www.w3.org/1999/02/22-rdf-syntax-ns#"
   xmlns:svg="http://www.w3.org/2000/svg"
   xmlns="http://www.w3.org/2000/svg"
   xmlns:sodipodi="http://sodipodi.sourceforge.net/DTD/sodipodi-0.dtd"
   xmlns:inkscape="http://www.inkscape.org/namespaces/inkscape"
   version="1.1"
   x="0px"
   y="0px"
   viewBox="0 0 100 100"
   enable-background="new 0 0 100 100"
   xml:space="preserve"
   id="svg2"
   inkscape:version="0.91 r13725"
   sodipodi:docname="partly-cloudy-night.svg"
   width="100"
   height="100"><metadata
     id="metadata18"><rdf:RDF><cc:Work
         rdf:about=""><dc:format>image/svg+xml</dc:format><dc:type
           rdf:resource="http://purl.org/dc/dcmitype/StillImage" /><dc:title></dc:title></cc:Work></rdf:RDF></metadata><defs
     id="defs16" /><sodipodi:namedview
     pagecolor="#ffffff"
     bordercolor="#666666"
     borderopacity="1"
     objecttolerance="10"
     gridtolerance="10"
     guidetolerance="10"
     inkscape:pageopacity="0"
     inkscape:pageshadow="2"
     inkscape:window-width="1313"
     inkscape:window-height="744"
     id="namedview14"
     showgrid="false"
     inkscape:zoom="3.776"
     inkscape:cx="51.260986"
     inkscape:cy="33.840597"
     inkscape:window-x="53"
     inkscape:window-y="24"
     inkscape:window-maximized="1"
     inkscape:current-layer="svg2"
     fit-margin-top="0"
     fit-margin-left="0"
     fit-margin-right="0"
     fit-margin-bottom="0" /><g
     id="g4"
     transform="matrix(1.1000471,0,0,1.2005915,-4.7059652,-12.106055)"><path
       d="m 23.212,23.132 c -2.824,5.628 -2.633,12.409 1.226,17.657 0.933,-1.287 2.044,-2.419 3.286,-3.372 -3.061,-4.525 -3.385,-10.854 1.94,-16.171 1.182,-1.18 0.396,-3.787 -1.483,-3.58 C 10.836,19.574 1.375,39.943 12.836,53.46 14.089,52.704 15.451,52.101 16.895,51.691 7.848,42.323 12.268,27.667 23.212,23.132 Z"
       id="path6"
       inkscape:connector-curvature="0" /><path
       d="M 94.98,68.197 C 94.598,61.219 89.147,56.545 82.704,55.934 84.802,46.629 81.208,36.828 72.651,31.818 63.564,26.497 52.349,28.735 45.387,36.206 c -6.261,-3.4 -12.929,-2.421 -17.663,1.211 -1.242,0.953 -2.353,2.086 -3.286,3.372 -2.041,2.814 -3.239,6.351 -3.153,10.283 -1.519,0.012 -2.993,0.223 -4.39,0.62 -1.444,0.41 -2.806,1.013 -4.059,1.769 -7.205,4.343 -10.76,13.835 -4.884,22.103 5.19,7.302 13.435,6.576 21.271,6.576 10.958,0 21.916,0 32.874,0 6.768,0 13.743,0.497 20.496,-0.051 7.187,-0.582 12.787,-6.58 12.387,-13.892 z m -19.082,9.748 c -9.316,0 -18.632,0 -27.949,0 -8.274,0 -16.548,0 -24.822,0 -3.647,0 -7.099,-0.32 -10.028,-2.87 -8.876,-7.731 -1.207,-21.284 9.63,-19.782 0.356,0.109 0.749,0.109 1.132,0.012 0.276,-0.06 0.525,-0.172 0.745,-0.322 0.014,-0.009 0.029,-0.016 0.042,-0.026 0.031,-0.023 0.06,-0.047 0.09,-0.071 0.469,-0.349 0.811,-0.868 0.875,-1.515 0.054,-0.328 0.037,-0.656 -0.061,-0.956 -1.647,-11.053 9.982,-17.82 19.191,-11.709 -0.008,-0.02 -0.016,-0.04 -0.025,-0.06 0.82,0.488 1.916,0.535 2.566,-0.267 12.884,-15.893 37.104,-2.464 30.737,16.754 -0.129,0.262 -0.2,0.556 -0.174,0.885 0,0 0,0 0,10e-4 0.104,1.32 1.129,2.05 2.152,2.041 -0.018,0.018 -0.037,0.037 -0.055,0.055 12.756,-1.085 14.691,17.028 1.79,17.831 -1.927,0.119 -3.906,-0.001 -5.836,-0.001 z"
       id="path8"
       inkscape:connector-curvature="0" /></g></svg>