<?xml version="1.0" encoding="UTF-8" standalone="no"?>
<svg
   xmlns:dc="http://purl.org/dc/elements/1.1/"
   xmlns:cc="http://creativecommons.org/ns#"
   xmlns:rdf="http://www.w3.org/1999/02/22-rdf-syntax-ns#"
   xmlns:svg="http://www.w3.org/2000/svg"
   xmlns="http://www.w3.org/2000/svg"
   xmlns:sodipodi="http://sodipodi.sourceforge.net/DTD/sodipodi-0.dtd"
   xmlns:inkscape="http://www.inkscape.org/namespaces/inkscape"
   version="1.1"
   x="0px"
   y="0px"
   viewBox="0 0 100 100"
   enable-background="new 0 0 150 150"
   xml:space="preserve"
   id="svg2"
   inkscape:version="0.91 r13725"
   sodipodi:docname="noun_685074_cc.svg"
   width="100"
   height="100"><metadata
     id="metadata34"><rdf:RDF><cc:Work
         rdf:about=""><dc:format>image/svg+xml</dc:format><dc:type
           rdf:resource="http://purl.org/dc/dcmitype/StillImage" /><dc:title></dc:title></cc:Work></rdf:RDF></metadata><defs
     id="defs32" /><sodipodi:namedview
     pagecolor="#ffffff"
     bordercolor="#666666"
     borderopacity="1"
     objecttolerance="10"
     gridtolerance="10"
     guidetolerance="10"
     inkscape:pageopacity="0"
     inkscape:pageshadow="2"
     inkscape:window-width="1313"
     inkscape:window-height="744"
     id="namedview30"
     showgrid="false"
     inkscape:zoom="3.5600469"
     inkscape:cx="83.179242"
     inkscape:cy="75.597646"
     inkscape:window-x="53"
     inkscape:window-y="24"
     inkscape:window-maximized="1"
     inkscape:current-layer="svg2" /><g
     id="g8"
     transform="matrix(0.88888889,0,0,0.88913039,-16.455748,-13.697032)"><path
       d="m 128.906,85.62 0,-0.05 -107.812,0 0,0.05 c -1.294,0 -2.344,1.049 -2.344,2.344 0,1.295 1.05,2.344 2.344,2.344 l 107.812,0 c 1.294,0 2.344,-1.049 2.344,-2.344 0,-1.295 -1.05,-2.344 -2.344,-2.344 z"
       id="path10"
       inkscape:connector-curvature="0" /><path
       d="m 74.998,50.325 c 1.295,0 2.344,-1.049 2.344,-2.344 l 0,-14.057 c 0,-0.002 0.001,-0.003 0.001,-0.005 0,-1.294 -1.05,-2.344 -2.344,-2.344 -1.295,0 -2.345,1.05 -2.345,2.344 l 0,14.062 c 0,1.295 1.05,2.344 2.344,2.344 z"
       id="path12"
       inkscape:connector-curvature="0" /><path
       d="m 30.467,80.794 14.062,0 c 1.295,0 2.344,-1.049 2.344,-2.344 0,-1.294 -1.049,-2.344 -2.344,-2.344 l -14.057,0 c -0.002,0 -0.003,0 -0.005,0 -1.294,0 -2.344,1.049 -2.344,2.344 0,1.295 1.05,2.344 2.344,2.344 z"
       id="path14"
       inkscape:connector-curvature="0" /><path
       d="m 105.521,76.106 c -1.294,0 -2.344,1.049 -2.344,2.344 0,1.295 1.05,2.344 2.344,2.344 l 14.011,0 c 1.295,0 2.343,-1.049 2.343,-2.344 0,-1.294 -1.048,-2.344 -2.343,-2.344 l -14.006,0 c -0.002,0 -0.003,0 -0.005,0 z"
       id="path16"
       inkscape:connector-curvature="0" /><path
       d="m 98.199,58.562 9.94,-9.939 c 0.002,-0.002 0.003,-0.002 0.004,-0.004 0.915,-0.914 0.915,-2.398 0,-3.314 -0.915,-0.915 -2.399,-0.915 -3.314,0 l -9.944,9.943 c -0.915,0.916 -0.915,2.399 0,3.314 0.916,0.916 2.399,0.916 3.314,0 z"
       id="path18"
       inkscape:connector-curvature="0" /><path
       d="m 51.796,58.562 c 0.915,0.916 2.398,0.916 3.314,0 0.914,-0.915 0.915,-2.398 0,-3.314 l -9.94,-9.939 c -0.001,-0.002 -0.002,-0.003 -0.003,-0.004 -0.915,-0.915 -2.399,-0.916 -3.314,0 -0.916,0.916 -0.915,2.399 0,3.314 l 9.943,9.943 z"
       id="path20"
       inkscape:connector-curvature="0" /><path
       d="m 51.677,80.794 4.734,0 c -0.096,-0.77 -0.161,-1.548 -0.161,-2.344 0,-10.356 8.376,-18.738 18.73,-18.749 l 0.04,0 c 10.354,0.011 18.73,8.393 18.73,18.749 0,0.796 -0.065,1.574 -0.162,2.344 l 4.734,0 c 0.077,-0.771 0.117,-1.553 0.117,-2.344 0,-12.907 -10.406,-23.356 -23.295,-23.434 l 0,-0.004 -0.292,0 0,0.004 C 61.966,55.094 51.561,65.544 51.561,78.45 c 0,0.791 0.04,1.573 0.116,2.344 z"
       id="path22"
       inkscape:connector-curvature="0" /><path
       d="m 79.97,107.803 -3.028,3.028 0,-13.492 c 0,-1.295 -1.05,-2.344 -2.344,-2.344 -1.295,0 -2.344,1.049 -2.344,2.344 l 0,13.093 -2.629,-2.629 c -0.916,-0.916 -2.398,-0.916 -3.314,0 -0.914,0.915 -0.916,2.398 0,3.314 l 6.625,6.625 c 10e-4,10e-4 10e-4,0.002 0.002,0.003 0,0 0,0 10e-4,10e-4 0.008,0.008 0.017,0.013 0.025,0.021 0.103,0.1 0.213,0.191 0.333,0.271 0.057,0.038 0.118,0.063 0.177,0.096 0.075,0.042 0.147,0.087 0.227,0.12 0.074,0.03 0.151,0.048 0.228,0.07 0.07,0.021 0.138,0.048 0.21,0.062 0.218,0.043 0.438,0.046 0.659,0.026 0.665,0.058 1.349,-0.158 1.857,-0.667 l 6.625,-6.626 c 0.002,-0.001 0.002,-0.002 0.004,-0.003 0.916,-0.915 0.916,-2.399 0,-3.314 -0.916,-0.915 -2.4,-0.914 -3.314,10e-4 z"
       id="path24"
       inkscape:connector-curvature="0" /></g></svg>