<?xml version="1.0" encoding="UTF-8" standalone="no"?>
<svg
   xmlns:dc="http://purl.org/dc/elements/1.1/"
   xmlns:cc="http://creativecommons.org/ns#"
   xmlns:rdf="http://www.w3.org/1999/02/22-rdf-syntax-ns#"
   xmlns:svg="http://www.w3.org/2000/svg"
   xmlns="http://www.w3.org/2000/svg"
   xmlns:sodipodi="http://sodipodi.sourceforge.net/DTD/sodipodi-0.dtd"
   xmlns:inkscape="http://www.inkscape.org/namespaces/inkscape"
   version="1.1"
   x="0px"
   y="0px"
   viewBox="0 0 100 100"
   enable-background="new 0 0 100 100"
   xml:space="preserve"
   id="svg2"
   inkscape:version="0.91 r13725"
   sodipodi:docname="noun_478290_cc.svg"
   width="100"
   height="100"><metadata
     id="metadata20"><rdf:RDF><cc:Work
         rdf:about=""><dc:format>image/svg+xml</dc:format><dc:type
           rdf:resource="http://purl.org/dc/dcmitype/StillImage" /><dc:title></dc:title></cc:Work></rdf:RDF></metadata><defs
     id="defs18" /><sodipodi:namedview
     pagecolor="#ffffff"
     bordercolor="#666666"
     borderopacity="1"
     objecttolerance="10"
     gridtolerance="10"
     guidetolerance="10"
     inkscape:pageopacity="0"
     inkscape:pageshadow="2"
     inkscape:window-width="1313"
     inkscape:window-height="744"
     id="namedview16"
     showgrid="false"
     inkscape:zoom="1.888"
     inkscape:cx="50"
     inkscape:cy="62.5"
     inkscape:window-x="53"
     inkscape:window-y="24"
     inkscape:window-maximized="1"
     inkscape:current-layer="svg2" /><g
     id="g4"
     transform="matrix(1.2684583,0,0,1.4303126,-12.098764,-21.092116)"><path
       d="m 77.396,33.291 c -4.52,0 -8.396,3.371 -9.017,7.842 -0.114,0.82 0.459,1.578 1.279,1.692 0.817,0.113 1.578,-0.459 1.691,-1.28 0.416,-2.995 3.016,-5.254 6.046,-5.254 3.365,0 6.104,2.738 6.104,6.104 0,3.366 -2.737,6.105 -6.103,6.105 L 15,48.5 c -0.828,0 -1.5,0.671 -1.5,1.5 0,0.829 0.672,1.5 1.5,1.5 l 62.396,0 c 5.02,0 9.104,-4.084 9.104,-9.104 0,-5.02 -4.084,-9.105 -9.104,-9.105 z"
       id="path6"
       inkscape:connector-curvature="0" /><path
       d="m 15,43.591 39.297,0 c 5.021,0 9.105,-4.084 9.105,-9.104 0,-5.02 -4.085,-9.104 -9.105,-9.104 -4.518,0 -8.394,3.371 -9.017,7.841 -0.114,0.82 0.458,1.578 1.278,1.693 0.821,0.117 1.578,-0.458 1.692,-1.279 0.418,-2.996 3.017,-5.255 6.046,-5.255 3.366,0 6.105,2.738 6.105,6.104 0,3.366 -2.739,6.104 -6.105,6.104 l -39.296,0 c -0.828,0 -1.5,0.671 -1.5,1.5 0,0.829 0.672,1.5 1.5,1.5 z"
       id="path8"
       inkscape:connector-curvature="0" /><path
       d="m 54.297,56.409 -39.297,0 c -0.828,0 -1.5,0.671 -1.5,1.5 0,0.829 0.672,1.5 1.5,1.5 l 39.297,0 c 3.366,0 6.105,2.738 6.105,6.104 0,3.367 -2.739,6.105 -6.105,6.105 -3.029,0 -5.628,-2.259 -6.046,-5.255 -0.114,-0.821 -0.875,-1.395 -1.692,-1.279 -0.82,0.115 -1.393,0.873 -1.278,1.693 0.623,4.47 4.499,7.841 9.017,7.841 5.021,0 9.105,-4.084 9.105,-9.105 -10e-4,-5.02 -4.086,-9.104 -9.106,-9.104 z"
       id="path10"
       inkscape:connector-curvature="0" /></g></svg>